<?xml version="1.0" encoding="UTF-8" standalone="no"?>
<svg xmlns="http://www.w3.org/2000/svg" width="101.6" height="180" viewBox="0 0 101.6 180">

  <!-- Panel background -->
  <rect width="101.6" height="180" fill="#d8d6d0"/>
  <rect x="2" y="2" width="97.6" height="176" fill="#eceae4" rx="1"/>

  <!-- Mounting holes -->
  <circle cx="7.5"  cy="7.5"   r="4" fill="#c8c5be" stroke="#aaa" stroke-width="1"/>
  <circle cx="94.1" cy="7.5"   r="4" fill="#c8c5be" stroke="#aaa" stroke-width="1"/>
  <circle cx="7.5"  cy="172.5" r="4" fill="#c8c5be" stroke="#aaa" stroke-width="1"/>
  <circle cx="94.1" cy="172.5" r="4" fill="#c8c5be" stroke="#aaa" stroke-width="1"/>

  <!-- Separator lines -->
  <line x1="4" y1="27" x2="97.6" y2="27" stroke="#ccc" stroke-width="0.3"/>
  <line x1="4" y1="44" x2="97.6" y2="44" stroke="#bbb" stroke-width="0.3"/>
  <line x1="4" y1="78" x2="97.6" y2="78" stroke="#bbb" stroke-width="0.3"/>
  <line x1="4" y1="118" x2="97.6" y2="118" stroke="#bbb" stroke-width="0.3"/>
  <line x1="4" y1="125" x2="97.6" y2="125" stroke="#bbb" stroke-width="0.3"/>
  <line x1="4" y1="161" x2="97.6" y2="161" stroke="#bbb" stroke-width="0.3"/>

  <!-- 8 output jacks y=33 -->
  <circle cx="8.89"  cy="33" r="4.5" fill="#b8b5ae" stroke="#888" stroke-width="0.8"/>
  <circle cx="8.89"  cy="33" r="2.7" fill="#111"/>
  <circle cx="20.96" cy="33" r="4.5" fill="#b8b5ae" stroke="#888" stroke-width="0.8"/>
  <circle cx="20.96" cy="33" r="2.7" fill="#111"/>
  <circle cx="33.02" cy="33" r="4.5" fill="#b8b5ae" stroke="#888" stroke-width="0.8"/>
  <circle cx="33.02" cy="33" r="2.7" fill="#111"/>
  <circle cx="45.09" cy="33" r="4.5" fill="#b8b5ae" stroke="#888" stroke-width="0.8"/>
  <circle cx="45.09" cy="33" r="2.7" fill="#111"/>
  <circle cx="57.15" cy="33" r="4.5" fill="#b8b5ae" stroke="#888" stroke-width="0.8"/>
  <circle cx="57.15" cy="33" r="2.7" fill="#111"/>
  <circle cx="69.22" cy="33" r="4.5" fill="#b8b5ae" stroke="#888" stroke-width="0.8"/>
  <circle cx="69.22" cy="33" r="2.7" fill="#111"/>
  <circle cx="81.28" cy="33" r="4.5" fill="#b8b5ae" stroke="#888" stroke-width="0.8"/>
  <circle cx="81.28" cy="33" r="2.7" fill="#111"/>
  <circle cx="93.34" cy="33" r="4.5" fill="#b8b5ae" stroke="#888" stroke-width="0.8"/>
  <circle cx="93.34" cy="33" r="2.7" fill="#111"/>

  <!-- Red LEDs below jacks y=40 -->
  <circle cx="8.89"  cy="40" r="2" fill="#cc2020"/>
  <circle cx="20.96" cy="40" r="2" fill="#cc2020"/>
  <circle cx="33.02" cy="40" r="2" fill="#cc2020"/>
  <circle cx="45.09" cy="40" r="2" fill="#cc2020"/>
  <circle cx="57.15" cy="40" r="2" fill="#cc2020"/>
  <circle cx="69.22" cy="40" r="2" fill="#cc2020"/>
  <circle cx="81.28" cy="40" r="2" fill="#cc2020"/>
  <circle cx="93.34" cy="40" r="2" fill="#cc2020"/>

  <!-- CLK/CV jack y=53 -->
  <circle cx="7.94" cy="53" r="4.5" fill="#b8b5ae" stroke="#888" stroke-width="0.8"/>
  <circle cx="7.94" cy="53" r="2.7" fill="#111"/>

  <!-- CLK/CV/SLV switch -->
  <rect x="16" y="50" width="9" height="13" rx="1.5" fill="#ccc" stroke="#999" stroke-width="0.5"/>
  <rect x="17" y="51" width="3" height="5" rx="1" fill="#111"/>
  <rect x="17" y="57" width="3" height="5" rx="1" fill="#bbb"/>

  <!-- RST/HLD jack y=68 -->
  <circle cx="7.94" cy="68" r="4.5" fill="#b8b5ae" stroke="#888" stroke-width="0.8"/>
  <circle cx="7.94" cy="68" r="2.7" fill="#111"/>

  <!-- OFFSET knob y=57 -->
  <circle cx="33.34" cy="57" r="6" fill="#ccc" stroke="#999" stroke-width="0.7"/>
  <circle cx="33.34" cy="57" r="4.5" fill="#222"/>
  <line x1="33.34" y1="51.5" x2="33.34" y2="54" stroke="#ddd" stroke-width="1.2"/>

  <!-- ATTEN knob y=57 -->
  <circle cx="46.99" cy="57" r="6" fill="#ccc" stroke="#999" stroke-width="0.7"/>
  <circle cx="46.99" cy="57" r="4.5" fill="#222"/>
  <line x1="46.99" y1="51.5" x2="46.99" y2="54" stroke="#ddd" stroke-width="1.2"/>

  <!-- DIVIDE knob y=57 -->
  <circle cx="60.64" cy="57" r="6" fill="#ccc" stroke="#999" stroke-width="0.7"/>
  <circle cx="60.64" cy="57" r="4.5" fill="#222"/>
  <line x1="60.64" y1="51.5" x2="60.64" y2="54" stroke="#ddd" stroke-width="1.2"/>

  <!-- Mode buttons row 1 y=52 -->
  <circle cx="73.03" cy="52" r="5.5" fill="#d0cece" stroke="#aaa" stroke-width="0.7"/>
  <circle cx="82.87" cy="52" r="5.5" fill="#d0cece" stroke="#aaa" stroke-width="0.7"/>
  <circle cx="92.71" cy="52" r="5.5" fill="#d0cece" stroke="#aaa" stroke-width="0.7"/>

  <!-- Mode buttons row 2 y=65 -->
  <circle cx="73.03" cy="65" r="5.5" fill="#d0cece" stroke="#aaa" stroke-width="0.7"/>
  <circle cx="82.87" cy="65" r="5.5" fill="#d0cece" stroke="#aaa" stroke-width="0.7"/>
  <circle cx="92.71" cy="65" r="5.5" fill="#d0cece" stroke="#aaa" stroke-width="0.7"/>

  <!-- 8 slider tracks y=80-115 -->
  <rect x="6.39"  y="80" width="5" height="35" rx="2.5" fill="#c8c5be" stroke="#aaa" stroke-width="0.5"/>
  <rect x="18.46" y="80" width="5" height="35" rx="2.5" fill="#c8c5be" stroke="#aaa" stroke-width="0.5"/>
  <rect x="30.52" y="80" width="5" height="35" rx="2.5" fill="#c8c5be" stroke="#aaa" stroke-width="0.5"/>
  <rect x="42.59" y="80" width="5" height="35" rx="2.5" fill="#c8c5be" stroke="#aaa" stroke-width="0.5"/>
  <rect x="54.65" y="80" width="5" height="35" rx="2.5" fill="#c8c5be" stroke="#aaa" stroke-width="0.5"/>
  <rect x="66.72" y="80" width="5" height="35" rx="2.5" fill="#c8c5be" stroke="#aaa" stroke-width="0.5"/>
  <rect x="78.78" y="80" width="5" height="35" rx="2.5" fill="#c8c5be" stroke="#aaa" stroke-width="0.5"/>
  <rect x="90.84" y="80" width="5" height="35" rx="2.5" fill="#c8c5be" stroke="#aaa" stroke-width="0.5"/>

  <!-- Slider handles y=93 -->
  <rect x="5.39"  y="93" width="7" height="9" rx="1.5" fill="#333" stroke="#222" stroke-width="0.3"/>
  <rect x="17.46" y="93" width="7" height="9" rx="1.5" fill="#333" stroke="#222" stroke-width="0.3"/>
  <rect x="29.52" y="93" width="7" height="9" rx="1.5" fill="#333" stroke="#222" stroke-width="0.3"/>
  <rect x="41.59" y="93" width="7" height="9" rx="1.5" fill="#333" stroke="#222" stroke-width="0.3"/>
  <rect x="53.65" y="93" width="7" height="9" rx="1.5" fill="#333" stroke="#222" stroke-width="0.3"/>
  <rect x="65.72" y="93" width="7" height="9" rx="1.5" fill="#333" stroke="#222" stroke-width="0.3"/>
  <rect x="77.78" y="93" width="7" height="9" rx="1.5" fill="#333" stroke="#222" stroke-width="0.3"/>
  <rect x="89.84" y="93" width="7" height="9" rx="1.5" fill="#333" stroke="#222" stroke-width="0.3"/>

  <!-- Slider LEDs y=97.5 -->
  <circle cx="8.89"  cy="97.5" r="1.5" fill="#cc2020"/>
  <circle cx="20.96" cy="97.5" r="1.5" fill="#cc2020"/>
  <circle cx="33.02" cy="97.5" r="1.5" fill="#cc2020"/>
  <circle cx="45.09" cy="97.5" r="1.5" fill="#cc2020"/>
  <circle cx="57.15" cy="97.5" r="1.5" fill="#cc2020"/>
  <circle cx="69.22" cy="97.5" r="1.5" fill="#cc2020"/>
  <circle cx="81.28" cy="97.5" r="1.5" fill="#cc2020"/>
  <circle cx="93.34" cy="97.5" r="1.5" fill="#cc2020"/>

  <!-- 8 red LEDs above step row 1 y=122 -->
  <circle cx="8.89"  cy="122" r="1.8" fill="#cc2020"/>
  <circle cx="20.96" cy="122" r="1.8" fill="#cc2020"/>
  <circle cx="33.02" cy="122" r="1.8" fill="#cc2020"/>
  <circle cx="45.09" cy="122" r="1.8" fill="#cc2020"/>
  <circle cx="57.15" cy="122" r="1.8" fill="#cc2020"/>
  <circle cx="69.22" cy="122" r="1.8" fill="#cc2020"/>
  <circle cx="81.28" cy="122" r="1.8" fill="#cc2020"/>
  <circle cx="93.34" cy="122" r="1.8" fill="#cc2020"/>

  <!-- Step buttons row 1 y=131 r=7 -->
  <circle cx="8.89"  cy="131" r="7" fill="#484848" stroke="#333" stroke-width="0.5"/>
  <circle cx="20.96" cy="131" r="7" fill="#484848" stroke="#333" stroke-width="0.5"/>
  <circle cx="33.02" cy="131" r="7" fill="#484848" stroke="#333" stroke-width="0.5"/>
  <circle cx="45.09" cy="131" r="7" fill="#484848" stroke="#333" stroke-width="0.5"/>
  <circle cx="57.15" cy="131" r="7" fill="#484848" stroke="#333" stroke-width="0.5"/>
  <circle cx="69.22" cy="131" r="7" fill="#484848" stroke="#333" stroke-width="0.5"/>
  <circle cx="81.28" cy="131" r="7" fill="#484848" stroke="#333" stroke-width="0.5"/>
  <circle cx="93.34" cy="131" r="7" fill="#484848" stroke="#333" stroke-width="0.5"/>

  <!-- LEDs between rows y=141 + 2 PCB screws -->
  <circle cx="8.89"  cy="141" r="1.8" fill="#cc2020"/>
  <circle cx="14.92" cy="141" r="1.8" fill="#d5d2cb" stroke="#bbb" stroke-width="0.6"/>
  <circle cx="20.96" cy="141" r="1.8" fill="#cc2020"/>
  <circle cx="33.02" cy="141" r="1.8" fill="#cc2020"/>
  <circle cx="45.09" cy="141" r="1.8" fill="#cc2020"/>
  <circle cx="57.15" cy="141" r="1.8" fill="#cc2020"/>
  <circle cx="69.22" cy="141" r="1.8" fill="#cc2020"/>
  <circle cx="81.28" cy="141" r="1.8" fill="#cc2020"/>
  <circle cx="87.31" cy="141" r="1.8" fill="#d5d2cb" stroke="#bbb" stroke-width="0.6"/>
  <circle cx="93.34" cy="141" r="1.8" fill="#cc2020"/>

  <!-- Step buttons row 2 y=151 r=7 -->
  <circle cx="8.89"  cy="151" r="7" fill="#484848" stroke="#333" stroke-width="0.5"/>
  <circle cx="20.96" cy="151" r="7" fill="#484848" stroke="#333" stroke-width="0.5"/>
  <circle cx="33.02" cy="151" r="7" fill="#484848" stroke="#333" stroke-width="0.5"/>
  <circle cx="45.09" cy="151" r="7" fill="#484848" stroke="#333" stroke-width="0.5"/>
  <circle cx="57.15" cy="151" r="7" fill="#484848" stroke="#333" stroke-width="0.5"/>
  <circle cx="69.22" cy="151" r="7" fill="#484848" stroke="#333" stroke-width="0.5"/>
  <circle cx="81.28" cy="151" r="7" fill="#484848" stroke="#333" stroke-width="0.5"/>
  <circle cx="93.34" cy="151" r="7" fill="#484848" stroke="#333" stroke-width="0.5"/>


  <!-- Labels - nanosvg ignores text but shapes render correctly -->
  <!-- Channel numbers -->
  <text x="8.89"  y="29" text-anchor="middle" font-size="4" font-family="Arial" fill="#666">1</text>
  <text x="20.96" y="29" text-anchor="middle" font-size="4" font-family="Arial" fill="#666">2</text>
  <text x="33.02" y="29" text-anchor="middle" font-size="4" font-family="Arial" fill="#666">3</text>
  <text x="45.09" y="29" text-anchor="middle" font-size="4" font-family="Arial" fill="#666">4</text>
  <text x="57.15" y="29" text-anchor="middle" font-size="4" font-family="Arial" fill="#666">5</text>
  <text x="69.22" y="29" text-anchor="middle" font-size="4" font-family="Arial" fill="#666">6</text>
  <text x="81.28" y="29" text-anchor="middle" font-size="4" font-family="Arial" fill="#666">7</text>
  <text x="93.34" y="29" text-anchor="middle" font-size="4" font-family="Arial" fill="#666">8</text>
  <!-- Control labels -->
  <text x="7.94"  y="49" text-anchor="middle" font-size="3" font-family="Arial" fill="#555">CLK/CV</text>
  <text x="7.94"  y="75" text-anchor="middle" font-size="3" font-family="Arial" fill="#555">RST/HLD</text>
  <text x="33.34" y="49" text-anchor="middle" font-size="3" font-family="Arial" fill="#555">OFFSET</text>
  <text x="46.99" y="49" text-anchor="middle" font-size="3" font-family="Arial" fill="#555">ATTEN</text>
  <text x="60.64" y="49" text-anchor="middle" font-size="3" font-family="Arial" fill="#555">DIVIDE</text>
  <text x="73.03" y="61" text-anchor="middle" font-size="3" font-family="Arial" fill="#444">MUTE</text>
  <text x="82.87" y="61" text-anchor="middle" font-size="3" font-family="Arial" fill="#444">LEN</text>
  <text x="92.71" y="61" text-anchor="middle" font-size="3" font-family="Arial" fill="#444">SHIFT</text>
  <text x="73.03" y="74" text-anchor="middle" font-size="3" font-family="Arial" fill="#444">SCALE</text>
  <text x="82.87" y="74" text-anchor="middle" font-size="3" font-family="Arial" fill="#444">SAVE</text>
  <text x="92.71" y="74" text-anchor="middle" font-size="3" font-family="Arial" fill="#444">RECALL</text>
  <!-- Title -->
  <text x="50.8" y="14" text-anchor="middle" font-size="6" font-family="Arial Narrow,Arial,sans-serif" font-weight="700" fill="#111" letter-spacing="2">VOLTAGE BLOCK</text>
  <text x="50.8" y="20" text-anchor="middle" font-size="3" font-family="Arial,sans-serif" fill="#aaa">8 CHANNEL CV SEQUENCER</text>
  <!-- Bottom labels -->
  <text x="8.89"  y="163" text-anchor="middle" font-size="2.8" font-family="Arial" fill="#555">CLEAR</text>
  <text x="20.96" y="163" text-anchor="middle" font-size="2.8" font-family="Arial" fill="#555">SMOOTH</text>
  <text x="33.02" y="163" text-anchor="middle" font-size="2.8" font-family="Arial" fill="#555">RND</text>
  <text x="45.09" y="163" text-anchor="middle" font-size="2.8" font-family="Arial" fill="#555">FREEZE</text>
  <text x="57.15" y="163" text-anchor="middle" font-size="2.8" font-family="Arial" fill="#555">FWD</text>
  <text x="69.22" y="163" text-anchor="middle" font-size="2.8" font-family="Arial" fill="#555">REV</text>
  <text x="81.28" y="163" text-anchor="middle" font-size="2.8" font-family="Arial" fill="#555">PEND</text>
  <text x="93.34" y="163" text-anchor="middle" font-size="2.5" font-family="Arial" fill="#555">RND SEQ</text>

</svg>
