<?xml version="1.0" encoding="UTF-8" standalone="no"?>
<!--
  Skyline VCV Rack Panel — 20HP (300 × 380 px)
  All pixel coordinates derived from: scale = 300/101.6 = 2.9528 px/mm
  Matching exactly the mm positions in SkylineWidget constructor.

  Channel X px: 20.7, 57.6, 94.6, 131.5, 168.5, 205.4, 242.4, 279.3
-->

<svg
   width="300"
   height="380"
   viewBox="0 0 300 380"
   version="1.1"
   id="svg186"
   sodipodi:docname="Skyline.svg"
   xmlns:inkscape="http://www.inkscape.org/namespaces/inkscape"
   xmlns:sodipodi="http://sodipodi.sourceforge.net/DTD/sodipodi-0.dtd"
   xmlns="http://www.w3.org/2000/svg"
   xmlns:svg="http://www.w3.org/2000/svg">
  <defs
     id="defs190" />
  <sodipodi:namedview
     id="namedview188"
     pagecolor="#ffffff"
     bordercolor="#000000"
     borderopacity="0.25"
     inkscape:showpageshadow="2"
     inkscape:pageopacity="0.0"
     inkscape:pagecheckerboard="0"
     inkscape:deskcolor="#d1d1d1" />
  <!-- PANEL BACKGROUND -->
  <path
     id="rect2"
     style="fill:#b8b5ae"
     d="M 0,0 H 300 V 380 H 0 Z" />
  <path
     id="rect4"
     style="fill:#e2dfd8"
     d="m 3,2 h 294 c 0.554,0 1,0.446 1,1 v 374 c 0,0.554 -0.446,1 -1,1 H 3 c -0.554,0 -1,-0.446 -1,-1 V 3 C 2,2.446 2.446,2 3,2 Z" />
  <!-- SECTION BANDS (subtle) -->
  <!-- outputs band -->
  <path
     id="rect6"
     style="fill:#dedad3"
     d="m 2,35 h 296 v 80 H 2 Z" />
  <!-- controls band -->
  <path
     id="rect8"
     style="fill:#e5e2db"
     d="m 2,115 h 296 v 90 H 2 Z" />
  <!-- sliders band -->
  <path
     id="rect10"
     style="fill:#dedad3"
     d="M 2,205 H 298 V 305 H 2 Z" />
  <!-- step buttons band -->
  <path
     id="rect12"
     style="fill:#e5e2db"
     d="m 2,280 h 296 v 98 H 2 Z" />
  <!-- DIVIDER LINES -->
  <path
     id="line14"
     style="stroke:#c8c5be;stroke-width:0.75"
     d="M 4,35 H 296" />
  <path
     id="line16"
     style="stroke:#c8c5be;stroke-width:0.75"
     d="M 4,115 H 296" />
  <path
     id="line18"
     style="stroke:#c8c5be;stroke-width:0.75"
     d="M 4,205 H 296" />
  <path
     id="line20"
     style="stroke:#c8c5be;stroke-width:0.75"
     d="M 4,280 H 296" />
  <!-- No decorative screws -->
  <!-- ═══════════════════════════════════════════
       TITLE AREA  (y=2-35)
  ═══════════════════════════════════════════ -->
  <g
     aria-label="SKYLINE"
     id="text22"
     style="font-weight:bold;font-size:11px;letter-spacing:3;text-anchor:middle;fill:#111111">
    <path
       d="m 121.47339,9.2333984 v 1.6972656 q -0.66065,-0.29541 -1.28906,-0.445801 -0.62842,-0.15039 -1.18702,-0.15039 -0.74121,0 -1.0957,0.204101 -0.35449,0.204102 -0.35449,0.633789 0,0.322266 0.23633,0.504883 0.2417,0.177246 0.87011,0.306152 l 0.88086,0.177247 q 1.33741,0.268554 1.90137,0.816406 0.56397,0.547851 0.56397,1.557617 0,1.32666 -0.78955,1.976562 -0.78418,0.644532 -2.40088,0.644532 -0.7627,0 -1.53077,-0.14502 -0.76806,-0.145019 -1.53613,-0.429687 v -1.745606 q 0.76807,0.408203 1.48242,0.617676 0.71973,0.204102 1.38575,0.204102 0.67675,0 1.03662,-0.225586 0.35986,-0.225586 0.35986,-0.644532 0,-0.375976 -0.24707,-0.580078 -0.2417,-0.204101 -0.97217,-0.365234 l -0.80029,-0.177246 q -1.20313,-0.257813 -1.76172,-0.821778 -0.55322,-0.563964 -0.55322,-1.520019 0,-1.197754 0.77343,-1.8422852 0.77344,-0.6445313 2.22364,-0.6445313 0.66064,0 1.35888,0.1020508 0.69825,0.09668 1.44483,0.2954101 z"
       id="path202" />
    <path
       d="m 126.81519,8.980957 h 2.06787 v 2.927246 l 2.98095,-2.927246 h 2.40088 L 130.40308,12.77832 134.66235,17 h -2.58886 l -3.19043,-3.158203 V 17 h -2.06787 z"
       id="path204" />
    <path
       d="m 137.22192,8.980957 h 2.26123 l 1.82618,2.857422 1.82617,-2.857422 h 2.2666 l -3.05615,4.640625 V 17 h -2.06787 v -3.378418 z"
       id="path206" />
    <path
       d="m 149.30444,8.980957 h 2.06787 v 6.456055 h 3.63086 V 17 h -5.69873 z"
       id="path208" />
    <path
       d="m 159.31372,8.980957 h 2.06787 V 17 h -2.06787 z"
       id="path210" />
    <path
       d="m 166.40649,8.980957 h 2.30957 l 2.91651,5.5 v -5.5 h 1.96045 V 17 h -2.30957 l -2.91651,-5.5 V 17 h -1.96045 z"
       id="path212" />
    <path
       d="m 178.61255,8.980957 h 5.58057 v 1.562988 h -3.5127 v 1.493164 h 3.30322 v 1.562989 h -3.30322 v 1.836914 h 3.63086 V 17 h -5.69873 z"
       id="path214" />
  </g>
  <g
     aria-label="8 CHANNEL CV SEQUENCER"
     id="text24"
     style="font-size:7px;letter-spacing:1.5;text-anchor:middle;fill:#888888">
    <path
       d="m 87.53833,26.57666 q -0.492187,0 -0.775879,0.263184 -0.280273,0.263183 -0.280273,0.724609 0,0.461426 0.280273,0.724609 0.283692,0.263184 0.775879,0.263184 0.492188,0 0.775879,-0.263184 0.283691,-0.266601 0.283691,-0.724609 0,-0.461426 -0.283691,-0.724609 Q 88.033936,26.57666 87.53833,26.57666 Z M 86.8479,26.282715 q -0.444336,-0.109375 -0.693847,-0.413574 -0.246094,-0.3042 -0.246094,-0.7417 0,-0.611816 0.434082,-0.967285 0.4375,-0.355469 1.196289,-0.355469 0.762207,0 1.196289,0.355469 0.434082,0.355469 0.434082,0.967285 0,0.4375 -0.249512,0.7417 -0.246093,0.304199 -0.687011,0.413574 0.499023,0.116211 0.775879,0.45459 0.280273,0.338379 0.280273,0.827148 0,0.741699 -0.45459,1.138184 -0.451172,0.396484 -1.29541,0.396484 -0.844238,0 -1.298828,-0.396484 -0.451172,-0.396485 -0.451172,-1.138184 0,-0.488769 0.280274,-0.827148 0.280273,-0.338379 0.779296,-0.45459 z m -0.252929,-1.090332 q 0,0.396484 0.246093,0.618652 0.249512,0.222168 0.697266,0.222168 0.444336,0 0.693848,-0.222168 0.252929,-0.222168 0.252929,-0.618652 0,-0.396485 -0.252929,-0.618653 -0.249512,-0.222168 -0.693848,-0.222168 -0.447754,0 -0.697266,0.222168 -0.246093,0.222168 -0.246093,0.618653 z"
       id="path217" />
    <path
       d="m 99.500244,24.290039 v 0.728027 q -0.348633,-0.324707 -0.745117,-0.485351 -0.393066,-0.160645 -0.837402,-0.160645 -0.875,0 -1.339844,0.536621 -0.464844,0.533204 -0.464844,1.544922 0,1.008301 0.464844,1.544922 0.464844,0.533203 1.339844,0.533203 0.444336,0 0.837402,-0.160644 0.396484,-0.160645 0.745117,-0.485352 v 0.721192 q -0.362305,0.246093 -0.769043,0.36914 -0.40332,0.123047 -0.854492,0.123047 -1.158691,0 -1.825195,-0.707519 -0.666504,-0.710938 -0.666504,-1.937989 0,-1.230468 0.666504,-1.937988 0.666504,-0.710938 1.825195,-0.710938 0.458008,0 0.861328,0.123047 0.406738,0.119629 0.762207,0.362305 z"
       id="path219" />
    <path
       d="m 102.06665,23.896973 h 0.69043 v 2.091797 h 2.50879 v -2.091797 h 0.69043 V 29 h -0.69043 v -2.430176 h -2.50879 V 29 h -0.69043 z"
       id="path221" />
    <path
       d="m 110.53589,24.577148 -0.93652,2.539551 h 1.87646 z m -0.38965,-0.680175 h 0.78272 L 112.87378,29 h -0.71777 l -0.46485,-1.309082 h -2.30029 L 108.92603,29 H 108.198 Z"
       id="path223" />
    <path
       d="m 115.1189,23.896973 h 0.92968 l 2.2627,4.269043 v -4.269043 h 0.66992 V 29 h -0.92969 l -2.26269,-4.269043 V 29 h -0.66992 z"
       id="path225" />
    <path
       d="m 121.85522,23.896973 h 0.92969 l 2.2627,4.269043 v -4.269043 h 0.66992 V 29 h -0.92969 l -2.26269,-4.269043 V 29 h -0.66993 z"
       id="path227" />
    <path
       d="m 128.59155,23.896973 h 3.22657 v 0.581054 h -2.53614 v 1.510743 h 2.43018 v 0.581054 h -2.43018 v 1.849121 h 2.59766 V 29 h -3.28809 z"
       id="path229" />
    <path
       d="m 134.5144,23.896973 h 0.69043 v 4.521972 h 2.48487 V 29 h -3.1753 z"
       id="path231" />
    <path
       d="m 147.46069,24.290039 v 0.728027 q -0.34863,-0.324707 -0.74511,-0.485351 -0.39307,-0.160645 -0.83741,-0.160645 -0.875,0 -1.33984,0.536621 -0.46484,0.533204 -0.46484,1.544922 0,1.008301 0.46484,1.544922 0.46484,0.533203 1.33984,0.533203 0.44434,0 0.83741,-0.160644 0.39648,-0.160645 0.74511,-0.485352 v 0.721192 q -0.3623,0.246093 -0.76904,0.36914 -0.40332,0.123047 -0.85449,0.123047 -1.15869,0 -1.8252,-0.707519 -0.6665,-0.710938 -0.6665,-1.937989 0,-1.230468 0.6665,-1.937988 0.66651,-0.710938 1.8252,-0.710938 0.45801,0 0.86133,0.123047 0.40673,0.119629 0.7622,0.362305 z"
       id="path233" />
    <path
       d="m 151.34302,29 -1.94824,-5.103027 h 0.72119 l 1.6167,4.296386 1.62011,-4.296386 h 0.71778 L 152.12573,29 Z"
       id="path235" />
    <path
       d="m 163.09985,24.064453 v 0.67334 q -0.39306,-0.187988 -0.7417,-0.280273 -0.34863,-0.09229 -0.67334,-0.09229 -0.56396,0 -0.87158,0.21875 -0.3042,0.21875 -0.3042,0.622071 0,0.338379 0.20166,0.512695 0.20508,0.170898 0.77246,0.276855 l 0.417,0.08545 q 0.77246,0.146972 1.13818,0.519531 0.36914,0.369141 0.36914,0.991211 0,0.741699 -0.49902,1.124512 -0.49561,0.382812 -1.45606,0.382812 -0.3623,0 -0.77246,-0.08203 -0.40674,-0.08203 -0.84424,-0.242676 v -0.710937 q 0.42041,0.235839 0.82373,0.355468 0.40332,0.119629 0.79297,0.119629 0.59131,0 0.9126,-0.232422 0.32129,-0.232422 0.32129,-0.663086 0,-0.375976 -0.23242,-0.58789 -0.22901,-0.211914 -0.75537,-0.317871 l -0.42041,-0.08203 q -0.77246,-0.153808 -1.11768,-0.481933 -0.34521,-0.328125 -0.34521,-0.912598 0,-0.676758 0.47509,-1.066406 0.47852,-0.389649 1.31592,-0.389649 0.35889,0 0.73145,0.06494 0.37256,0.06494 0.7622,0.194824 z"
       id="path237" />
    <path
       d="m 165.98413,23.896973 h 3.22656 v 0.581054 h -2.53613 v 1.510743 h 2.43018 v 0.581054 h -2.43018 v 1.849121 h 2.59766 V 29 h -3.28809 z"
       id="path239" />
    <path
       d="m 173.97827,24.365234 q -0.75195,0 -1.19629,0.560547 -0.44092,0.560547 -0.44092,1.527832 0,0.963867 0.44092,1.524414 0.44434,0.560547 1.19629,0.560547 0.75195,0 1.18945,-0.560547 0.44092,-0.560547 0.44092,-1.524414 0,-0.967285 -0.44092,-1.527832 -0.4375,-0.560547 -1.18945,-0.560547 z m 0.96729,4.542481 0.90918,0.994629 h -0.83399 l -0.75537,-0.816895 q -0.11279,0.0068 -0.17432,0.01025 -0.0581,0.0034 -0.11279,0.0034 -1.07666,0 -1.72265,-0.717773 -0.64258,-0.721192 -0.64258,-1.927735 0,-1.209961 0.64258,-1.927734 0.64599,-0.721192 1.72265,-0.721192 1.07324,0 1.71582,0.721192 0.64258,0.717773 0.64258,1.927734 0,0.888672 -0.35889,1.520996 -0.35547,0.632325 -1.03222,0.933106 z"
       id="path241" />
    <path
       d="m 178.83813,23.896973 h 0.69385 v 3.100097 q 0,0.820313 0.29737,1.182617 0.29736,0.358887 0.96386,0.358887 0.66309,0 0.96045,-0.358887 0.29737,-0.362304 0.29737,-1.182617 v -3.100097 h 0.69384 v 3.185547 q 0,0.998046 -0.4956,1.507324 -0.49219,0.509277 -1.45606,0.509277 -0.96728,0 -1.46289,-0.509277 -0.49219,-0.509278 -0.49219,-1.507324 z"
       id="path243" />
    <path
       d="m 185.54028,23.896973 h 3.22657 v 0.581054 h -2.53614 v 1.510743 h 2.43018 v 0.581054 h -2.43018 v 1.849121 h 2.59766 V 29 h -3.28809 z"
       id="path245" />
    <path
       d="m 191.46313,23.896973 h 0.92969 l 2.2627,4.269043 v -4.269043 h 0.66992 V 29 h -0.92969 l -2.26269,-4.269043 V 29 h -0.66993 z"
       id="path247" />
    <path
       d="m 202.02075,24.290039 v 0.728027 q -0.34863,-0.324707 -0.74512,-0.485351 -0.39306,-0.160645 -0.8374,-0.160645 -0.875,0 -1.33984,0.536621 -0.46485,0.533204 -0.46485,1.544922 0,1.008301 0.46485,1.544922 0.46484,0.533203 1.33984,0.533203 0.44434,0 0.8374,-0.160644 0.39649,-0.160645 0.74512,-0.485352 v 0.721192 q -0.3623,0.246093 -0.76904,0.36914 -0.40332,0.123047 -0.85449,0.123047 -1.15869,0 -1.8252,-0.707519 -0.6665,-0.710938 -0.6665,-1.937989 0,-1.230468 0.6665,-1.937988 0.66651,-0.710938 1.8252,-0.710938 0.458,0 0.86132,0.123047 0.40674,0.119629 0.76221,0.362305 z"
       id="path249" />
    <path
       d="m 204.58716,23.896973 h 3.22656 v 0.581054 h -2.53613 v 1.510743 h 2.43017 v 0.581054 h -2.43017 v 1.849121 h 2.59765 V 29 h -3.28808 z"
       id="path251" />
    <path
       d="m 212.92993,26.607422 q 0.22217,0.0752 0.43067,0.321289 0.21191,0.246094 0.42382,0.676758 L 214.48511,29 h -0.7417 l -0.65283,-1.309082 q -0.25293,-0.512695 -0.49219,-0.680176 -0.23584,-0.16748 -0.646,-0.16748 h -0.75195 V 29 h -0.69043 v -5.103027 h 1.55859 q 0.875,0 1.30567,0.365722 0.43066,0.365723 0.43066,1.104004 0,0.481934 -0.22558,0.799805 -0.22217,0.317871 -0.64942,0.440918 z m -1.72949,-2.143067 v 1.811524 h 0.86816 q 0.49903,0 0.75196,-0.229004 0.25634,-0.232422 0.25634,-0.680176 0,-0.447754 -0.25634,-0.67334 -0.25293,-0.229004 -0.75196,-0.229004 z"
       id="path253" />
  </g>
  <!-- ═══════════════════════════════════════════
       CHANNEL NUMBERS  y=43 (above jacks at y=66)
       Channel X: 20.7, 57.6, 94.6, 131.5, 168.5, 205.4, 242.4, 279.3
  ═══════════════════════════════════════════ -->
  <g
     aria-label="1"
     id="text26"
     style="font-weight:bold;font-size:9px;text-anchor:middle;fill:#333333">
    <path
       d="m 18.623585,41.831055 h 1.49414 v -4.240723 l -1.533691,0.316406 v -1.151367 l 1.524902,-0.316406 h 1.608399 v 5.39209 h 1.49414 V 43 h -4.58789 z"
       id="path256" />
  </g>
  <g
     aria-label="2"
     id="text28"
     style="font-weight:bold;font-size:9px;text-anchor:middle;fill:#333333">
    <path
       d="m 57.061668,41.756348 h 2.887207 V 43 h -4.768066 v -1.243652 l 2.39502,-2.11377 q 0.3208,-0.290039 0.474609,-0.566894 0.153809,-0.276856 0.153809,-0.575684 0,-0.461426 -0.312012,-0.742676 -0.307617,-0.28125 -0.821778,-0.28125 -0.395507,0 -0.865722,0.171387 -0.470215,0.166992 -1.006348,0.500976 v -1.441406 q 0.571289,-0.188965 1.129395,-0.285644 0.558105,-0.101075 1.094238,-0.101075 1.177734,0 1.828125,0.518555 0.654785,0.518555 0.654785,1.445801 0,0.536133 -0.276855,1.001953 -0.276856,0.461426 -1.164551,1.239258 z"
       id="path259" />
  </g>
  <g
     aria-label="3"
     id="text30"
     style="font-weight:bold;font-size:9px;text-anchor:middle;fill:#333333">
    <path
       d="m 95.661278,39.462402 q 0.663574,0.171387 1.006347,0.597657 0.347168,0.421875 0.347168,1.07666 0,0.975586 -0.74707,1.485351 -0.74707,0.505371 -2.179687,0.505371 -0.505372,0 -1.015137,-0.0835 -0.505371,-0.0791 -1.001953,-0.241699 V 41.49707 q 0.474609,0.237305 0.940429,0.360352 0.470215,0.118652 0.922852,0.118652 0.672363,0 1.02832,-0.23291 0.360352,-0.23291 0.360352,-0.667969 0,-0.448242 -0.369141,-0.676758 -0.364746,-0.23291 -1.081054,-0.23291 h -0.676758 v -1.089843 h 0.711914 q 0.637207,0 0.949219,-0.197754 0.312011,-0.202149 0.312011,-0.61084 0,-0.37793 -0.303222,-0.584473 -0.303223,-0.206543 -0.856934,-0.206543 -0.408691,0 -0.826172,0.09229 -0.41748,0.09229 -0.830566,0.272461 v -1.239258 q 0.500976,-0.140625 0.993164,-0.210937 0.492187,-0.07031 0.966797,-0.07031 1.278808,0 1.911621,0.421875 0.637207,0.417481 0.637207,1.261231 0,0.575684 -0.303223,0.944824 -0.303223,0.364746 -0.896484,0.51416 z"
       id="path262" />
  </g>
  <g
     aria-label="4"
     id="text32"
     style="font-weight:bold;font-size:9px;text-anchor:middle;fill:#333333">
    <path
       d="m 131.68237,37.832031 -1.85449,2.746582 h 1.85449 z m -0.28125,-1.393066 h 1.88086 v 4.139648 h 0.93604 v 1.226074 h -0.93604 V 43 h -1.59961 v -1.195313 h -2.90918 v -1.450195 z"
       id="path265" />
  </g>
  <g
     aria-label="5"
     id="text34"
     style="font-weight:bold;font-size:9px;text-anchor:middle;fill:#333333">
    <path
       d="m 166.32251,36.438965 h 4.20557 v 1.243652 h -2.85645 v 1.015137 q 0.19336,-0.05273 0.38672,-0.0791 0.19775,-0.03076 0.40869,-0.03076 1.19971,0 1.86768,0.60205 0.66797,0.597657 0.66797,1.669922 0,1.063477 -0.7295,1.665528 -0.72509,0.60205 -2.01709,0.60205 -0.5581,0 -1.10742,-0.109863 -0.54492,-0.105469 -1.08545,-0.325195 V 41.36084 q 0.53614,0.307617 1.01514,0.461426 0.4834,0.153808 0.90967,0.153808 0.61523,0 0.96679,-0.298828 0.35596,-0.303223 0.35596,-0.817383 0,-0.518554 -0.35596,-0.817383 -0.35156,-0.298828 -0.96679,-0.298828 -0.36475,0 -0.77783,0.09668 -0.41309,0.09229 -0.8877,0.290039 z"
       id="path268" />
  </g>
  <g
     aria-label="6"
     id="text36"
     style="font-weight:bold;font-size:9px;text-anchor:middle;fill:#333333">
    <path
       d="m 205.52524,39.76123 q -0.44385,0 -0.66797,0.29004 -0.21973,0.285644 -0.21973,0.861328 0,0.575683 0.21973,0.865722 0.22412,0.285645 0.66797,0.285645 0.44824,0 0.66797,-0.285645 0.22412,-0.290039 0.22412,-0.865722 0,-0.575684 -0.22412,-0.861328 -0.21973,-0.29004 -0.66797,-0.29004 z m 2.09179,-3.150878 v 1.21289 q -0.41748,-0.197754 -0.78662,-0.290039 -0.36914,-0.09668 -0.7207,-0.09668 -0.75586,0 -1.17773,0.421875 -0.42188,0.417481 -0.49219,1.243653 0.29004,-0.215332 0.62842,-0.320801 0.33838,-0.109863 0.73828,-0.109863 1.00635,0 1.62158,0.588867 0.61963,0.588867 0.61963,1.54248 0,1.054688 -0.68994,1.691895 -0.68994,0.632812 -1.8501,0.632812 -1.27881,0 -1.98193,-0.861328 -0.69873,-0.865722 -0.69873,-2.452148 0,-1.625977 0.81738,-2.553223 0.82178,-0.93164 2.25,-0.93164 0.45264,0 0.8789,0.07031 0.42627,0.07031 0.84375,0.210938 z"
       id="path271" />
  </g>
  <g
     aria-label="7"
     id="text38"
     style="font-weight:bold;font-size:9px;text-anchor:middle;fill:#333333">
    <path
       d="m 239.87094,36.438965 h 4.94385 v 0.953613 L 242.25717,43 h -1.64795 l 2.42139,-5.317383 h -3.15967 z"
       id="path274" />
  </g>
  <g
     aria-label="8"
     id="text40"
     style="font-weight:bold;font-size:9px;text-anchor:middle;fill:#333333">
    <path
       d="m 279.30219,40.064453 q -0.47461,0 -0.7295,0.259277 -0.25488,0.259278 -0.25488,0.742676 0,0.483399 0.25488,0.742676 0.25489,0.254883 0.7295,0.254883 0.47021,0 0.7207,-0.254883 0.25049,-0.259277 0.25049,-0.742676 0,-0.487793 -0.25049,-0.742676 -0.25049,-0.259277 -0.7207,-0.259277 z m -1.23487,-0.558105 q -0.59765,-0.180176 -0.90088,-0.553711 -0.30322,-0.373535 -0.30322,-0.931641 0,-0.830566 0.61963,-1.265625 0.61963,-0.435059 1.81934,-0.435059 1.19091,0 1.81054,0.435059 0.61963,0.430664 0.61963,1.265625 0,0.558106 -0.30762,0.931641 -0.30322,0.373535 -0.90088,0.553711 0.66797,0.18457 1.00635,0.60205 0.34278,0.413086 0.34278,1.045899 0,0.975586 -0.65039,1.476562 -0.646,0.496582 -1.92041,0.496582 -1.27881,0 -1.9336,-0.496582 -0.65039,-0.500976 -0.65039,-1.476562 0,-0.632813 0.33838,-1.045899 0.34277,-0.41748 1.01074,-0.60205 z m 0.39551,-1.313965 q 0,0.391113 0.21533,0.602051 0.21973,0.210937 0.62403,0.210937 0.3955,0 0.61083,-0.210937 0.21534,-0.210938 0.21534,-0.602051 0,-0.391113 -0.21534,-0.597656 -0.21533,-0.210938 -0.61083,-0.210938 -0.4043,0 -0.62403,0.210938 -0.21533,0.210937 -0.21533,0.597656 z"
       id="path277" />
  </g>
  <!-- ═══════════════════════════════════════════
       OUTPUT JACK RINGS  y=66.4  r=11
       (PJ301MPort will render on top)
  ═══════════════════════════════════════════ -->
  <path
     id="circle42"
     style="fill:#a0a09a;stroke:#777777;stroke-width:1.2"
     d="m 31.700001,66.400002 a 11,11 0 0 1 -11,11 11,11 0 0 1 -11.0000002,-11 11,11 0 0 1 11.0000002,-11 11,11 0 0 1 11,11 z" />
  <path
     id="circle44"
     style="fill:#a0a09a;stroke:#777777;stroke-width:1.2"
     d="m 68.599998,66.400002 a 11,11 0 0 1 -11,11 11,11 0 0 1 -11,-11 11,11 0 0 1 11,-11 11,11 0 0 1 11,11 z" />
  <path
     id="circle46"
     style="fill:#a0a09a;stroke:#777777;stroke-width:1.2"
     d="m 105.6,66.400002 a 11,11 0 0 1 -11.000002,11 11,11 0 0 1 -11,-11 11,11 0 0 1 11,-11 11,11 0 0 1 11.000002,11 z" />
  <path
     id="circle48"
     style="fill:#a0a09a;stroke:#777777;stroke-width:1.2"
     d="m 142.5,66.400002 a 11,11 0 0 1 -11,11 11,11 0 0 1 -11,-11 11,11 0 0 1 11,-11 11,11 0 0 1 11,11 z" />
  <path
     id="circle50"
     style="fill:#a0a09a;stroke:#777777;stroke-width:1.2"
     d="m 179.5,66.400002 a 11,11 0 0 1 -11,11 11,11 0 0 1 -11,-11 11,11 0 0 1 11,-11 11,11 0 0 1 11,11 z" />
  <path
     id="circle52"
     style="fill:#a0a09a;stroke:#777777;stroke-width:1.2"
     d="m 216.39999,66.400002 a 11,11 0 0 1 -11,11 11,11 0 0 1 -11,-11 11,11 0 0 1 11,-11 11,11 0 0 1 11,11 z" />
  <path
     id="circle54"
     style="fill:#a0a09a;stroke:#777777;stroke-width:1.2"
     d="m 253.39999,66.400002 a 11,11 0 0 1 -11,11 11,11 0 0 1 -11,-11 11,11 0 0 1 11,-11 11,11 0 0 1 11,11 z" />
  <path
     id="circle56"
     style="fill:#a0a09a;stroke:#777777;stroke-width:1.2"
     d="m 290.29999,66.400002 a 11,11 0 0 1 -11,11 11,11 0 0 1 -11,-11 11,11 0 0 1 11,-11 11,11 0 0 1 11,11 z" />
  <!-- LED recesses  y=91.5 -->
  <path
     id="circle58"
     style="fill:#5a1010"
     d="m 25.200001,91.5 a 4.5,4.5 0 0 1 -4.5,4.5 4.5,4.5 0 0 1 -4.5,-4.5 4.5,4.5 0 0 1 4.5,-4.5 4.5,4.5 0 0 1 4.5,4.5 z" />
  <path
     id="circle60"
     style="fill:#5a1010"
     d="m 62.099998,91.5 a 4.5,4.5 0 0 1 -4.5,4.5 4.5,4.5 0 0 1 -4.5,-4.5 4.5,4.5 0 0 1 4.5,-4.5 4.5,4.5 0 0 1 4.5,4.5 z" />
  <path
     id="circle62"
     style="fill:#5a1010"
     d="m 99.099998,91.5 a 4.5,4.5 0 0 1 -4.5,4.5 4.5,4.5 0 0 1 -4.5,-4.5 4.5,4.5 0 0 1 4.5,-4.5 4.5,4.5 0 0 1 4.5,4.5 z" />
  <path
     id="circle64"
     style="fill:#5a1010"
     d="M 136,91.5 A 4.5,4.5 0 0 1 131.5,96 4.5,4.5 0 0 1 127,91.5 4.5,4.5 0 0 1 131.5,87 4.5,4.5 0 0 1 136,91.5 Z" />
  <path
     id="circle66"
     style="fill:#5a1010"
     d="M 173,91.5 A 4.5,4.5 0 0 1 168.5,96 4.5,4.5 0 0 1 164,91.5 4.5,4.5 0 0 1 168.5,87 4.5,4.5 0 0 1 173,91.5 Z" />
  <path
     id="circle68"
     style="fill:#5a1010"
     d="m 209.89999,91.5 a 4.5,4.5 0 0 1 -4.5,4.5 4.5,4.5 0 0 1 -4.5,-4.5 4.5,4.5 0 0 1 4.5,-4.5 4.5,4.5 0 0 1 4.5,4.5 z" />
  <path
     id="circle70"
     style="fill:#5a1010"
     d="m 246.89999,91.5 a 4.5,4.5 0 0 1 -4.5,4.5 4.5,4.5 0 0 1 -4.5,-4.5 4.5,4.5 0 0 1 4.5,-4.5 4.5,4.5 0 0 1 4.5,4.5 z" />
  <path
     id="circle72"
     style="fill:#5a1010"
     d="m 283.79999,91.5 a 4.5,4.5 0 0 1 -4.5,4.5 4.5,4.5 0 0 1 -4.5,-4.5 4.5,4.5 0 0 1 4.5,-4.5 4.5,4.5 0 0 1 4.5,4.5 z" />
  <!-- ═══════════════════════════════════════════
       CONTROLS SECTION  y=115-205
  ═══════════════════════════════════════════ -->
  <!-- Label row  y=113.7 -->
  <!-- CLK/CV label above jack at xJack=20.7 -->
  <g
     aria-label="CLK/CV"
     id="text74"
     style="font-size:7px;text-anchor:middle;fill:#555555">
    <path
       d="m 12.502003,117.29004 v 0.72803 q -0.348633,-0.32471 -0.745117,-0.48536 -0.393067,-0.16064 -0.837403,-0.16064 -0.875,0 -1.3398436,0.53662 -0.4648437,0.5332 -0.4648437,1.54492 0,1.0083 0.4648437,1.54493 0.4648436,0.5332 1.3398436,0.5332 0.444336,0 0.837403,-0.16065 0.396484,-0.16064 0.745117,-0.48535 v 0.72119 q -0.362305,0.2461 -0.769043,0.36914 -0.403321,0.12305 -0.854492,0.12305 -1.1586918,0 -1.8251958,-0.70752 -0.6665039,-0.71094 -0.6665039,-1.93799 0,-1.23047 0.6665039,-1.93798 0.666504,-0.71094 1.8251958,-0.71094 0.458007,0 0.861328,0.12304 0.406738,0.11963 0.762207,0.36231 z"
       id="path296" />
    <path
       d="m 13.568409,116.89697 h 0.69043 v 4.52198 h 2.484863 V 122 h -3.175293 z"
       id="path298" />
    <path
       d="m 17.468311,116.89697 h 0.69043 v 2.15674 l 2.290039,-2.15674 h 0.888672 L 18.804737,119.27588 21.518604,122 h -0.909179 l -2.450684,-2.45752 V 122 h -0.69043 z"
       id="path300" />
    <path
       d="m 23.148975,116.89697 h 0.581055 l -1.777344,5.75244 h -0.581054 z"
       id="path302" />
    <path
       d="m 28.238331,117.29004 v 0.72803 q -0.348633,-0.32471 -0.745117,-0.48536 -0.393067,-0.16064 -0.837403,-0.16064 -0.875,0 -1.339843,0.53662 -0.464844,0.5332 -0.464844,1.54492 0,1.0083 0.464844,1.54493 0.464843,0.5332 1.339843,0.5332 0.444336,0 0.837403,-0.16065 0.396484,-0.16064 0.745117,-0.48535 v 0.72119 q -0.362305,0.2461 -0.769043,0.36914 -0.40332,0.12305 -0.854492,0.12305 -1.158692,0 -1.825196,-0.70752 -0.666504,-0.71094 -0.666504,-1.93799 0,-1.23047 0.666504,-1.93798 0.666504,-0.71094 1.825196,-0.71094 0.458007,0 0.861328,0.12304 0.406738,0.11963 0.762207,0.36231 z"
       id="path304" />
    <path
       d="m 30.620655,122 -1.948242,-5.10303 h 0.721191 l 1.616699,4.29639 1.620118,-4.29639 h 0.717773 L 31.40337,122 Z"
       id="path306" />
  </g>
  <!-- OFFSET/ATTEN/DIVIDE above knobs -->
  <g
     aria-label="OFFSET"
     id="text76"
     style="font-size:7px;text-anchor:middle;fill:#555555">
    <path
       d="m 83.967529,117.36523 q -0.751953,0 -1.196289,0.56055 -0.440918,0.56055 -0.440918,1.52783 0,0.96387 0.440918,1.52442 0.444336,0.56054 1.196289,0.56054 0.751953,0 1.189453,-0.56054 0.440918,-0.56055 0.440918,-1.52442 0,-0.96728 -0.440918,-1.52783 -0.4375,-0.56055 -1.189453,-0.56055 z m 0,-0.56054 q 1.073242,0 1.715821,0.72119 0.642578,0.71777 0.642578,1.92773 0,1.20655 -0.642578,1.92774 -0.642579,0.71777 -1.715821,0.71777 -1.07666,0 -1.722656,-0.71777 -0.642578,-0.71778 -0.642578,-1.92774 0,-1.20996 0.642578,-1.92773 0.645996,-0.72119 1.722656,-0.72119 z"
       id="path309" />
    <path
       d="m 87.406006,116.89697 h 2.932617 v 0.58106 h -2.242187 v 1.5039 h 2.023437 v 0.58106 H 88.096436 V 122 h -0.69043 z"
       id="path311" />
    <path
       d="m 91.432373,116.89697 h 2.932617 v 0.58106 h -2.242187 v 1.5039 h 2.023437 v 0.58106 H 92.122803 V 122 h -0.69043 z"
       id="path313" />
    <path
       d="m 98.394775,117.06445 v 0.67334 q -0.393066,-0.18799 -0.741699,-0.28027 -0.348633,-0.0923 -0.67334,-0.0923 -0.563965,0 -0.871582,0.21875 -0.304199,0.21875 -0.304199,0.62207 0,0.33838 0.20166,0.5127 0.205078,0.1709 0.772461,0.27686 l 0.416992,0.0854 q 0.772461,0.14698 1.138184,0.51954 0.369141,0.36914 0.369141,0.99121 0,0.7417 -0.499024,1.12451 -0.495605,0.38281 -1.456055,0.38281 -0.362304,0 -0.77246,-0.082 -0.406739,-0.082 -0.844239,-0.24268 v -0.71093 q 0.42041,0.23584 0.823731,0.35547 0.40332,0.11962 0.792968,0.11962 0.591309,0 0.912598,-0.23242 0.321289,-0.23242 0.321289,-0.66308 0,-0.37598 -0.232422,-0.58789 -0.229004,-0.21192 -0.755371,-0.31788 l -0.42041,-0.082 q -0.772461,-0.15381 -1.117676,-0.48193 -0.345215,-0.32813 -0.345215,-0.9126 0,-0.67676 0.475098,-1.0664 0.478516,-0.38965 1.315918,-0.38965 0.358887,0 0.731445,0.0649 0.372559,0.0649 0.762207,0.19482 z"
       id="path315" />
    <path
       d="m 99.779053,116.89697 h 3.226567 v 0.58106 h -2.53614 v 1.51074 h 2.43018 v 0.58105 h -2.43018 v 1.84913 h 2.59766 V 122 h -3.288087 z"
       id="path317" />
    <path
       d="m 103.49438,116.89697 h 4.3169 v 0.58106 h -1.81152 V 122 h -0.69385 v -4.52197 h -1.81153 z"
       id="path319" />
  </g>
  <g
     aria-label="ATTEN"
     id="text78"
     style="font-size:7px;text-anchor:middle;fill:#555555">
    <path
       d="m 134.42607,117.57715 -0.93652,2.53955 h 1.87646 z m -0.38965,-0.68018 h 0.78272 L 136.76396,122 h -0.71777 l -0.46485,-1.30908 h -2.30029 L 132.81621,122 h -0.72803 z"
       id="path322" />
    <path
       d="m 136.2581,116.89697 h 4.3169 v 0.58106 h -1.81153 V 122 h -0.69384 v -4.52197 h -1.81153 z"
       id="path324" />
    <path
       d="m 140.41093,116.89697 h 4.3169 v 0.58106 h -1.81152 V 122 h -0.69385 v -4.52197 h -1.81153 z"
       id="path326" />
    <path
       d="m 145.39433,116.89697 h 3.22657 v 0.58106 h -2.53614 v 1.51074 h 2.43018 v 0.58105 h -2.43018 v 1.84913 h 2.59766 V 122 h -3.28809 z"
       id="path328" />
    <path
       d="m 149.81718,116.89697 h 0.92969 l 2.2627,4.26905 v -4.26905 h 0.66992 V 122 h -0.92969 l -2.26269,-4.26904 V 122 h -0.66993 z"
       id="path330" />
  </g>
  <g
     aria-label="DIVIDE"
     id="text80"
     style="font-size:7px;text-anchor:middle;fill:#555555">
    <path
       d="m 181.21713,117.46436 v 3.96826 h 0.83399 q 1.05615,0 1.54492,-0.47852 0.49219,-0.47851 0.49219,-1.51074 0,-1.02539 -0.49219,-1.50049 -0.48877,-0.47851 -1.54492,-0.47851 z m -0.69043,-0.56739 h 1.41846 q 1.4834,0 2.17725,0.61866 0.69384,0.61523 0.69384,1.92773 0,1.31934 -0.69726,1.93799 Q 183.42172,122 181.94516,122 h -1.41846 z"
       id="path333" />
    <path
       d="m 185.91684,116.89697 h 0.69043 V 122 h -0.69043 z"
       id="path335" />
    <path
       d="m 189.29721,122 -1.94824,-5.10303 h 0.72119 l 1.6167,4.29639 1.62012,-4.29639 h 0.71777 L 190.07993,122 Z"
       id="path337" />
    <path
       d="m 192.76987,116.89697 h 0.69043 V 122 h -0.69043 z"
       id="path339" />
    <path
       d="m 195.52475,117.46436 v 3.96826 h 0.83398 q 1.05616,0 1.54493,-0.47852 0.49218,-0.47851 0.49218,-1.51074 0,-1.02539 -0.49218,-1.50049 -0.48877,-0.47851 -1.54493,-0.47851 z m -0.69043,-0.56739 h 1.41846 q 1.4834,0 2.17724,0.61866 0.69385,0.61523 0.69385,1.92773 0,1.31934 -0.69726,1.93799 Q 197.72934,122 196.25278,122 h -1.41846 z"
       id="path341" />
    <path
       d="m 200.22446,116.89697 h 3.22656 v 0.58106 h -2.53613 v 1.51074 h 2.43017 v 0.58105 h -2.43017 v 1.84913 h 2.59765 V 122 h -3.28808 z"
       id="path343" />
  </g>
  <!-- Mode button labels row 1: MUTE LEN SHIFT -->
  <g
     aria-label="MUTE"
     id="text82"
     style="font-size:7px;text-anchor:middle;fill:#555555">
    <path
       d="m 222.55611,116.89697 h 1.02881 l 1.30224,3.47266 1.30908,-3.47266 h 1.02881 V 122 h -0.67334 v -4.48096 l -1.31592,3.5 h -0.69384 l -1.31592,-3.5 V 122 h -0.66992 z"
       id="path346" />
    <path
       d="m 228.51704,116.89697 h 0.69385 v 3.1001 q 0,0.82031 0.29737,1.18262 0.29736,0.35888 0.96386,0.35888 0.66309,0 0.96045,-0.35888 0.29736,-0.36231 0.29736,-1.18262 v -3.1001 h 0.69385 v 3.18555 q 0,0.99805 -0.4956,1.50732 -0.49219,0.50928 -1.45606,0.50928 -0.96728,0 -1.46289,-0.50928 -0.49219,-0.50927 -0.49219,-1.50732 z"
       id="path348" />
    <path
       d="m 233.01167,116.89697 h 4.3169 v 0.58106 h -1.81153 V 122 h -0.69384 v -4.52197 h -1.81153 z"
       id="path350" />
    <path
       d="m 237.99507,116.89697 h 3.22656 v 0.58106 h -2.53613 v 1.51074 h 2.43018 v 0.58105 h -2.43018 v 1.84913 h 2.59766 V 122 h -3.28809 z"
       id="path352" />
  </g>
  <g
     aria-label="LEN"
     id="text84"
     style="font-size:7px;text-anchor:middle;fill:#555555">
    <path
       d="m 250.80746,116.89697 h 0.69043 v 4.52198 h 2.48487 V 122 h -3.1753 z"
       id="path355" />
    <path
       d="m 254.70737,116.89697 h 3.22656 v 0.58106 h -2.53613 v 1.51074 h 2.43017 v 0.58105 h -2.43017 v 1.84913 h 2.59765 V 122 h -3.28808 z"
       id="path357" />
    <path
       d="m 259.13022,116.89697 h 0.92969 l 2.26269,4.26905 v -4.26905 h 0.66992 V 122 h -0.92968 l -2.2627,-4.26904 V 122 h -0.66992 z"
       id="path359" />
  </g>
  <g
     aria-label="SHIFT"
     id="text86"
     style="font-size:7px;text-anchor:middle;fill:#555555">
    <path
       d="m 275.77075,117.06445 v 0.67334 q -0.39306,-0.18799 -0.7417,-0.28027 -0.34863,-0.0923 -0.67334,-0.0923 -0.56396,0 -0.87158,0.21875 -0.3042,0.21875 -0.3042,0.62207 0,0.33838 0.20166,0.5127 0.20508,0.1709 0.77246,0.27686 l 0.41699,0.0854 q 0.77247,0.14698 1.13819,0.51954 0.36914,0.36914 0.36914,0.99121 0,0.7417 -0.49902,1.12451 -0.49561,0.38281 -1.45606,0.38281 -0.3623,0 -0.77246,-0.082 -0.40674,-0.082 -0.84424,-0.24268 v -0.71093 q 0.42041,0.23584 0.82373,0.35547 0.40332,0.11962 0.79297,0.11962 0.59131,0 0.9126,-0.23242 0.32129,-0.23242 0.32129,-0.66308 0,-0.37598 -0.23242,-0.58789 -0.22901,-0.21192 -0.75538,-0.31788 l -0.42041,-0.082 q -0.77246,-0.15381 -1.11767,-0.48193 -0.34522,-0.32813 -0.34522,-0.9126 0,-0.67676 0.4751,-1.0664 0.47852,-0.38965 1.31592,-0.38965 0.35889,0 0.73144,0.0649 0.37256,0.0649 0.76221,0.19482 z"
       id="path362" />
    <path
       d="m 277.15503,116.89697 h 0.69043 v 2.0918 h 2.50879 v -2.0918 h 0.69043 V 122 h -0.69043 v -2.43018 h -2.50879 V 122 h -0.69043 z"
       id="path364" />
    <path
       d="m 282.4187,116.89697 h 0.69043 V 122 h -0.69043 z"
       id="path366" />
    <path
       d="m 284.48315,116.89697 h 2.93262 v 0.58106 h -2.24219 v 1.5039 h 2.02344 v 0.58106 h -2.02344 V 122 h -0.69043 z"
       id="path368" />
    <path
       d="m 287.67896,116.89697 h 4.31689 v 0.58106 h -1.81152 V 122 h -0.69385 v -4.52197 h -1.81152 z"
       id="path370" />
  </g>
  <!-- CLK/CV jack recess  y=135.8 -->
  <path
     id="circle88"
     style="fill:#a0a09a;stroke:#777777;stroke-width:1.2"
     d="m 31.700001,135.8 a 11,11 0 0 1 -11,11 11,11 0 0 1 -11.0000002,-11 11,11 0 0 1 11.0000002,-11 11,11 0 0 1 11,11 z" />
  <!-- 3-way switch recess  x=59.1  y=158.0 (CKSSThree ≈16px tall) -->
  <path
     id="rect90"
     style="fill:#c5c2bb;stroke:#999999;stroke-width:0.8"
     d="m 57.099998,143 h 4 c 1.662,0 3,1.338 3,3 v 24 c 0,1.662 -1.338,3 -3,3 h -4 c -1.662,0 -3,-1.338 -3,-3 v -24 c 0,-1.662 1.338,-3 3,-3 z" />
  <!-- switch knob (upper = CLK default) -->
  <path
     id="rect92"
     style="fill:#222222"
     d="m 57.099998,145 h 4 c 0.831,0 1.5,0.669 1.5,1.5 v 6 c 0,0.831 -0.669,1.5 -1.5,1.5 h -4 c -0.831,0 -1.5,-0.669 -1.5,-1.5 v -6 c 0,-0.831 0.669,-1.5 1.5,-1.5 z" />
  <!-- RST/HLD label + jack recess  y=180.1 -->
  <g
     aria-label="RST/HLD"
     id="text94"
     style="font-size:7px;text-anchor:middle;fill:#555555">
    <path
       d="m 8.5593758,167.60742 q 0.2221679,0.0752 0.430664,0.32129 0.2119141,0.24609 0.4238282,0.67676 L 10.114552,170 H 9.3728523 l -0.652832,-1.30908 Q 8.4670906,168.17822 8.2278328,168.01074 7.991993,167.84326 7.5818367,167.84326 H 6.8298836 V 170 H 6.1394539 v -5.10303 h 1.5585937 q 0.875,0 1.3056641,0.36573 0.4306641,0.36572 0.4306641,1.104 0,0.48193 -0.225586,0.7998 -0.2221679,0.31787 -0.649414,0.44092 z m -1.7294922,-2.14306 v 1.81152 h 0.868164 q 0.4990235,0 0.7519532,-0.22901 0.2563476,-0.23242 0.2563476,-0.68017 0,-0.44775 -0.2563476,-0.67334 -0.2529297,-0.229 -0.7519532,-0.229 z"
       id="path376" />
    <path
       d="m 14.062305,165.06445 v 0.67334 q -0.393066,-0.18799 -0.741699,-0.28027 -0.348633,-0.0923 -0.67334,-0.0923 -0.563964,0 -0.871582,0.21875 -0.304199,0.21875 -0.304199,0.62207 0,0.33838 0.20166,0.5127 0.205078,0.1709 0.772461,0.27686 l 0.416992,0.0854 q 0.772461,0.14698 1.138184,0.51954 0.369141,0.36914 0.369141,0.99121 0,0.7417 -0.499024,1.12451 -0.495605,0.38281 -1.456054,0.38281 -0.362305,0 -0.772461,-0.082 -0.406739,-0.082 -0.844239,-0.24268 v -0.71093 q 0.42041,0.23584 0.823731,0.35547 0.40332,0.11962 0.792969,0.11962 0.591308,0 0.912597,-0.23242 0.321289,-0.23242 0.321289,-0.66308 0,-0.37598 -0.232422,-0.58789 -0.229004,-0.21192 -0.755371,-0.31788 l -0.42041,-0.082 q -0.772461,-0.15381 -1.117676,-0.48193 -0.345215,-0.32813 -0.345215,-0.9126 0,-0.67676 0.475098,-1.0664 0.478516,-0.38965 1.315918,-0.38965 0.358887,0 0.731445,0.0649 0.372559,0.0649 0.762207,0.19482 z"
       id="path378" />
    <path
       d="m 14.739063,164.89697 h 4.316895 v 0.58106 H 17.244434 V 170 h -0.693847 v -4.52197 h -1.811524 z"
       id="path380" />
    <path
       d="m 20.812794,164.89697 h 0.581054 l -1.777343,5.75244 H 19.03545 Z"
       id="path382" />
    <path
       d="m 22.08086,164.89697 h 0.69043 v 2.0918 h 2.508789 v -2.0918 h 0.69043 V 170 h -0.69043 v -2.43018 H 22.77129 V 170 h -0.69043 z"
       id="path384" />
    <path
       d="m 27.344532,164.89697 h 0.69043 v 4.52198 h 2.484863 V 170 h -3.175293 z"
       id="path386" />
    <path
       d="m 31.934864,165.46436 v 3.96826 h 0.833984 q 1.056153,0 1.544922,-0.47852 0.492188,-0.47851 0.492188,-1.51074 0,-1.02539 -0.492188,-1.50049 -0.488769,-0.47851 -1.544922,-0.47851 z m -0.69043,-0.56739 h 1.418457 q 1.483399,0 2.177246,0.61865 0.693848,0.61524 0.693848,1.92774 0,1.31934 -0.697265,1.93799 Q 34.139454,170 32.662891,170 h -1.418457 z"
       id="path388" />
  </g>
  <path
     id="circle96"
     style="fill:#a0a09a;stroke:#777777;stroke-width:1.2"
     d="m 31.700001,180.10001 a 11,11 0 0 1 -11,11 11,11 0 0 1 -11.0000002,-11 11,11 0 0 1 11.0000002,-11 11,11 0 0 1 11,11 z" />
  <!-- Knob recesses  y=158.0  r=14 -->
  <path
     id="circle98"
     style="fill:#c8c5be;stroke:#999999;stroke-width:0.8"
     d="m 108.5,158 a 14,14 0 0 1 -14,14 14,14 0 0 1 -14,-14 14,14 0 0 1 14,-14 14,14 0 0 1 14,14 z" />
  <path
     id="circle100"
     style="fill:#c8c5be;stroke:#999999;stroke-width:0.8"
     d="m 157.2,158 a 14,14 0 0 1 -14,14 14,14 0 0 1 -14,-14 14,14 0 0 1 14,-14 14,14 0 0 1 14,14 z" />
  <path
     id="circle102"
     style="fill:#c8c5be;stroke:#999999;stroke-width:0.8"
     d="m 205.89999,158 a 14,14 0 0 1 -14,14 14,14 0 0 1 -14,-14 14,14 0 0 1 14,-14 14,14 0 0 1 14,14 z" />
  <!-- Mode button recesses row 1  y=135.8  r=11 -->
  <path
     id="circle104"
     style="fill:#cccccc;stroke:#aaaaaa;stroke-width:0.8"
     d="m 242.8,135.8 a 11,11 0 0 1 -11,11 11,11 0 0 1 -11,-11 11,11 0 0 1 11,-11 11,11 0 0 1 11,11 z" />
  <path
     id="circle106"
     style="fill:#cccccc;stroke:#aaaaaa;stroke-width:0.8"
     d="m 267.89999,135.8 a 11,11 0 0 1 -11,11 11,11 0 0 1 -11,-11 11,11 0 0 1 11,-11 11,11 0 0 1 11,11 z" />
  <path
     id="circle108"
     style="fill:#cccccc;stroke:#aaaaaa;stroke-width:0.8"
     d="m 293,135.8 a 11,11 0 0 1 -11,11 11,11 0 0 1 -11,-11 11,11 0 0 1 11,-11 11,11 0 0 1 11,11 z" />
  <!-- Mode button labels row 2 (between rows): SCALE SAVE RECALL  y=160.9 -->
  <g
     aria-label="SCALE"
     id="text110"
     style="font-size:7px;text-anchor:middle;fill:#555555">
    <path
       d="m 224.32491,155.96445 v 0.67334 q -0.39307,-0.18799 -0.7417,-0.28028 -0.34864,-0.0923 -0.67334,-0.0923 -0.56397,0 -0.87159,0.21875 -0.30419,0.21875 -0.30419,0.62207 0,0.33838 0.20166,0.51269 0.20507,0.1709 0.77246,0.27686 l 0.41699,0.0855 q 0.77246,0.14697 1.13818,0.51953 0.36914,0.36914 0.36914,0.99121 0,0.7417 -0.49902,1.12451 -0.49561,0.38281 -1.45606,0.38281 -0.3623,0 -0.77246,-0.082 -0.40673,-0.082 -0.84423,-0.24267 v -0.71094 q 0.42041,0.23584 0.82373,0.35547 0.40332,0.11963 0.79296,0.11963 0.59131,0 0.9126,-0.23242 0.32129,-0.23243 0.32129,-0.66309 0,-0.37598 -0.23242,-0.58789 -0.229,-0.21191 -0.75537,-0.31787 l -0.42041,-0.082 q -0.77246,-0.15381 -1.11768,-0.48194 -0.34521,-0.32812 -0.34521,-0.91259 0,-0.67676 0.4751,-1.06641 0.47851,-0.38965 1.31591,-0.38965 0.35889,0 0.73145,0.0649 0.37256,0.0649 0.76221,0.19483 z"
       id="path398" />
    <path
       d="m 229.53047,156.19003 v 0.72803 q -0.34863,-0.32471 -0.74512,-0.48535 -0.39306,-0.16065 -0.8374,-0.16065 -0.875,0 -1.33984,0.53663 -0.46485,0.5332 -0.46485,1.54492 0,1.0083 0.46485,1.54492 0.46484,0.5332 1.33984,0.5332 0.44434,0 0.8374,-0.16064 0.39649,-0.16065 0.74512,-0.48535 v 0.72119 q -0.3623,0.24609 -0.76904,0.36914 -0.40332,0.12304 -0.85449,0.12304 -1.15869,0 -1.8252,-0.70751 -0.6665,-0.71094 -0.6665,-1.93799 0,-1.23047 0.6665,-1.93799 0.66651,-0.71094 1.8252,-0.71094 0.458,0 0.86132,0.12305 0.40674,0.11963 0.76221,0.3623 z"
       id="path400" />
    <path
       d="m 232.30244,156.47714 -0.93652,2.53955 h 1.87647 z m -0.38964,-0.68017 h 0.78271 l 1.94483,5.10302 h -0.71778 l -0.46484,-1.30908 h -2.3003 l -0.46484,1.30908 h -0.72803 z"
       id="path402" />
    <path
       d="m 235.38545,155.79697 h 0.69043 v 4.52197 h 2.48487 v 0.58105 h -3.1753 z"
       id="path404" />
    <path
       d="m 239.28535,155.79697 h 3.22657 v 0.58105 h -2.53614 v 1.51074 h 2.43018 v 0.58106 h -2.43018 v 1.84912 h 2.59766 v 0.58105 h -3.28809 z"
       id="path406" />
  </g>
  <g
     aria-label="SAVE"
     id="text112"
     style="font-size:7px;text-anchor:middle;fill:#555555">
    <path
       d="m 251.58334,155.96445 v 0.67334 q -0.39306,-0.18799 -0.7417,-0.28028 -0.34863,-0.0923 -0.67334,-0.0923 -0.56396,0 -0.87158,0.21875 -0.3042,0.21875 -0.3042,0.62207 0,0.33838 0.20166,0.51269 0.20508,0.1709 0.77246,0.27686 l 0.417,0.0855 q 0.77246,0.14697 1.13818,0.51953 0.36914,0.36914 0.36914,0.99121 0,0.7417 -0.49902,1.12451 -0.49561,0.38281 -1.45606,0.38281 -0.3623,0 -0.77246,-0.082 -0.40674,-0.082 -0.84424,-0.24267 v -0.71094 q 0.42041,0.23584 0.82373,0.35547 0.40332,0.11963 0.79297,0.11963 0.59131,0 0.9126,-0.23242 0.32129,-0.23243 0.32129,-0.66309 0,-0.37598 -0.23242,-0.58789 -0.22901,-0.21191 -0.75537,-0.31787 l -0.42041,-0.082 q -0.77246,-0.15381 -1.11768,-0.48194 -0.34521,-0.32812 -0.34521,-0.91259 0,-0.67676 0.47509,-1.06641 0.47852,-0.38965 1.31592,-0.38965 0.35889,0 0.73145,0.0649 0.37256,0.0649 0.7622,0.19483 z"
       id="path409" />
    <path
       d="m 254.80307,156.47714 -0.93652,2.53955 h 1.87646 z m -0.38965,-0.68017 h 0.78272 l 1.94482,5.10302 h -0.71777 l -0.46485,-1.30908 h -2.30029 l -0.46484,1.30908 h -0.72803 z"
       id="path411" />
    <path
       d="m 258.75424,160.89999 -1.94824,-5.10302 h 0.72119 l 1.6167,4.29638 1.62012,-4.29638 h 0.71777 l -1.94482,5.10302 z"
       id="path413" />
    <path
       d="m 262.2269,155.79697 h 3.22656 v 0.58105 h -2.53613 v 1.51074 h 2.43017 v 0.58106 h -2.43017 v 1.84912 h 2.59765 v 0.58105 h -3.28808 z"
       id="path415" />
  </g>
  <g
     aria-label="RECALL"
     id="text114"
     style="font-size:7px;text-anchor:middle;fill:#555555">
    <path
       d="m 271.72559,158.50742 q 0.22216,0.0752 0.43066,0.32128 0.21191,0.2461 0.42383,0.67676 l 0.70068,1.39453 h -0.7417 l -0.65283,-1.30908 q -0.25293,-0.51269 -0.49219,-0.68017 -0.23584,-0.16748 -0.64599,-0.16748 h -0.75196 v 2.15673 h -0.69043 v -5.10302 h 1.5586 q 0.875,0 1.30566,0.36572 0.43067,0.36572 0.43067,1.104 0,0.48194 -0.22559,0.79981 -0.22217,0.31787 -0.64941,0.44092 z m -1.7295,-2.14307 v 1.81152 h 0.86817 q 0.49902,0 0.75195,-0.229 0.25635,-0.23242 0.25635,-0.68018 0,-0.44775 -0.25635,-0.67334 -0.25293,-0.229 -0.75195,-0.229 z"
       id="path418" />
    <path
       d="m 274.16943,155.79697 h 3.22657 v 0.58105 h -2.53614 v 1.51074 h 2.43018 v 0.58106 h -2.43018 v 1.84912 h 2.59766 v 0.58105 h -3.28809 z"
       id="path420" />
    <path
       d="m 282.41357,156.19003 v 0.72803 q -0.34863,-0.32471 -0.74511,-0.48535 -0.39307,-0.16065 -0.83741,-0.16065 -0.875,0 -1.33984,0.53663 -0.46484,0.5332 -0.46484,1.54492 0,1.0083 0.46484,1.54492 0.46484,0.5332 1.33984,0.5332 0.44434,0 0.83741,-0.16064 0.39648,-0.16065 0.74511,-0.48535 v 0.72119 q -0.3623,0.24609 -0.76904,0.36914 -0.40332,0.12304 -0.85449,0.12304 -1.15869,0 -1.8252,-0.70751 -0.6665,-0.71094 -0.6665,-1.93799 0,-1.23047 0.6665,-1.93799 0.66651,-0.71094 1.8252,-0.71094 0.45801,0 0.86133,0.12305 0.40674,0.11963 0.7622,0.3623 z"
       id="path422" />
    <path
       d="m 285.18555,156.47714 -0.93653,2.53955 h 1.87647 z m -0.38965,-0.68017 h 0.78271 l 1.94483,5.10302 h -0.71778 l -0.46484,-1.30908 h -2.30029 l -0.46485,1.30908 h -0.72802 z"
       id="path424" />
    <path
       d="m 288.26855,155.79697 h 0.69043 v 4.52197 h 2.48487 v 0.58105 h -3.1753 z"
       id="path426" />
    <path
       d="m 292.16846,155.79697 h 0.69043 v 4.52197 h 2.48486 v 0.58105 h -3.17529 z"
       id="path428" />
  </g>
  <!-- Mode button recesses row 2  y=180.1  r=11 -->
  <path
     id="circle116"
     style="fill:#cccccc;stroke:#aaaaaa;stroke-width:0.8"
     d="m 242.8,180.10001 a 11,11 0 0 1 -11,11 11,11 0 0 1 -11,-11 11,11 0 0 1 11,-11 11,11 0 0 1 11,11 z" />
  <path
     id="circle118"
     style="fill:#cccccc;stroke:#aaaaaa;stroke-width:0.8"
     d="m 267.89999,180.10001 a 11,11 0 0 1 -11,11 11,11 0 0 1 -11,-11 11,11 0 0 1 11,-11 11,11 0 0 1 11,11 z" />
  <path
     id="circle120"
     style="fill:#cccccc;stroke:#aaaaaa;stroke-width:0.8"
     d="m 293,180.10001 a 11,11 0 0 1 -11,11 11,11 0 0 1 -11,-11 11,11 0 0 1 11,-11 11,11 0 0 1 11,11 z" />
  <!-- ═══════════════════════════════════════════
       SLIDER TRACKS  top=206.7, height=65px (matches SlimFader TH=60 + HH=8)
       x centres = cX, track width = 6px, offset -3
  ═══════════════════════════════════════════ -->
  <path
     id="rect122"
     style="fill:#b5b2ab;stroke:#9a9790;stroke-width:0.5"
     d="m 20.700001,206.7 c 1.662,0 3,1.338 3,3 v 62 c 0,1.662 -1.338,3 -3,3 -1.662,0 -3,-1.338 -3,-3 v -62 c 0,-1.662 1.338,-3 3,-3 z" />
  <path
     id="rect124"
     style="fill:#b5b2ab;stroke:#9a9790;stroke-width:0.5"
     d="m 57.599998,206.7 c 1.662,0 3,1.338 3,3 v 62 c 0,1.662 -1.338,3 -3,3 -1.662,0 -3,-1.338 -3,-3 v -62 c 0,-1.662 1.338,-3 3,-3 z" />
  <path
     id="rect126"
     style="fill:#b5b2ab;stroke:#9a9790;stroke-width:0.5"
     d="m 94.599998,206.7 c 1.662,0 3,1.338 3,3 v 62 c 0,1.662 -1.338,3 -3,3 -1.662,0 -3,-1.338 -3,-3 v -62 c 0,-1.662 1.338,-3 3,-3 z" />
  <path
     id="rect128"
     style="fill:#b5b2ab;stroke:#9a9790;stroke-width:0.5"
     d="m 131.5,206.7 c 1.662,0 3,1.338 3,3 v 62 c 0,1.662 -1.338,3 -3,3 -1.662,0 -3,-1.338 -3,-3 v -62 c 0,-1.662 1.338,-3 3,-3 z" />
  <path
     id="rect130"
     style="fill:#b5b2ab;stroke:#9a9790;stroke-width:0.5"
     d="m 168.5,206.7 c 1.662,0 3,1.338 3,3 v 62 c 0,1.662 -1.338,3 -3,3 -1.662,0 -3,-1.338 -3,-3 v -62 c 0,-1.662 1.338,-3 3,-3 z" />
  <path
     id="rect132"
     style="fill:#b5b2ab;stroke:#9a9790;stroke-width:0.5"
     d="m 205.39999,206.7 c 1.662,0 3,1.338 3,3 v 62 c 0,1.662 -1.338,3 -3,3 -1.662,0 -3,-1.338 -3,-3 v -62 c 0,-1.662 1.338,-3 3,-3 z" />
  <path
     id="rect134"
     style="fill:#b5b2ab;stroke:#9a9790;stroke-width:0.5"
     d="m 242.39999,206.7 c 1.662,0 3,1.338 3,3 v 62 c 0,1.662 -1.338,3 -3,3 -1.662,0 -3,-1.338 -3,-3 v -62 c 0,-1.662 1.338,-3 3,-3 z" />
  <path
     id="rect136"
     style="fill:#b5b2ab;stroke:#9a9790;stroke-width:0.5"
     d="m 279.29999,206.7 c 1.662,0 3,1.338 3,3 v 62 c 0,1.662 -1.338,3 -3,3 -1.662,0 -3,-1.338 -3,-3 v -62 c 0,-1.662 1.338,-3 3,-3 z" />
  <!-- ═══════════════════════════════════════════
       STEP BUTTONS  — 2 rows × 8
       Row 1: LED y=295  btn y=307.1  r=11
       Row 2: LED y=340  btn y=351.4  r=11
       Labels: y=373.5
  ═══════════════════════════════════════════ -->
  <!-- Step button recesses row 1  y=307.1  r=11 -->
  <path
     id="circle138"
     style="fill:#363636;stroke:#222222;stroke-width:0.8"
     d="m 31.700001,307.10001 a 11,11 0 0 1 -11,11 11,11 0 0 1 -11.0000002,-11 11,11 0 0 1 11.0000002,-11 11,11 0 0 1 11,11 z" />
  <path
     id="circle140"
     style="fill:#363636;stroke:#222222;stroke-width:0.8"
     d="m 68.599998,307.10001 a 11,11 0 0 1 -11,11 11,11 0 0 1 -11,-11 11,11 0 0 1 11,-11 11,11 0 0 1 11,11 z" />
  <path
     id="circle142"
     style="fill:#363636;stroke:#222222;stroke-width:0.8"
     d="m 105.6,307.10001 a 11,11 0 0 1 -11.000002,11 11,11 0 0 1 -11,-11 11,11 0 0 1 11,-11 11,11 0 0 1 11.000002,11 z" />
  <path
     id="circle144"
     style="fill:#363636;stroke:#222222;stroke-width:0.8"
     d="m 142.5,307.10001 a 11,11 0 0 1 -11,11 11,11 0 0 1 -11,-11 11,11 0 0 1 11,-11 11,11 0 0 1 11,11 z" />
  <path
     id="circle146"
     style="fill:#363636;stroke:#222222;stroke-width:0.8"
     d="m 179.5,307.10001 a 11,11 0 0 1 -11,11 11,11 0 0 1 -11,-11 11,11 0 0 1 11,-11 11,11 0 0 1 11,11 z" />
  <path
     id="circle148"
     style="fill:#363636;stroke:#222222;stroke-width:0.8"
     d="m 216.39999,307.10001 a 11,11 0 0 1 -11,11 11,11 0 0 1 -11,-11 11,11 0 0 1 11,-11 11,11 0 0 1 11,11 z" />
  <path
     id="circle150"
     style="fill:#363636;stroke:#222222;stroke-width:0.8"
     d="m 253.39999,307.10001 a 11,11 0 0 1 -11,11 11,11 0 0 1 -11,-11 11,11 0 0 1 11,-11 11,11 0 0 1 11,11 z" />
  <path
     id="circle152"
     style="fill:#363636;stroke:#222222;stroke-width:0.8"
     d="m 290.29999,307.10001 a 11,11 0 0 1 -11,11 11,11 0 0 1 -11,-11 11,11 0 0 1 11,-11 11,11 0 0 1 11,11 z" />
  <!-- Step button recesses row 2  y=351.4  r=11 -->
  <path
     id="circle154"
     style="fill:#363636;stroke:#222222;stroke-width:0.8"
     d="m 31.700001,351.39999 a 11,11 0 0 1 -11,11 11,11 0 0 1 -11.0000002,-11 11,11 0 0 1 11.0000002,-11 11,11 0 0 1 11,11 z" />
  <path
     id="circle156"
     style="fill:#363636;stroke:#222222;stroke-width:0.8"
     d="m 68.599998,351.39999 a 11,11 0 0 1 -11,11 11,11 0 0 1 -11,-11 11,11 0 0 1 11,-11 11,11 0 0 1 11,11 z" />
  <path
     id="circle158"
     style="fill:#363636;stroke:#222222;stroke-width:0.8"
     d="m 105.6,351.39999 a 11,11 0 0 1 -11.000002,11 11,11 0 0 1 -11,-11 11,11 0 0 1 11,-11 11,11 0 0 1 11.000002,11 z" />
  <path
     id="circle160"
     style="fill:#363636;stroke:#222222;stroke-width:0.8"
     d="m 142.5,351.39999 a 11,11 0 0 1 -11,11 11,11 0 0 1 -11,-11 11,11 0 0 1 11,-11 11,11 0 0 1 11,11 z" />
  <path
     id="circle162"
     style="fill:#363636;stroke:#222222;stroke-width:0.8"
     d="m 179.5,351.39999 a 11,11 0 0 1 -11,11 11,11 0 0 1 -11,-11 11,11 0 0 1 11,-11 11,11 0 0 1 11,11 z" />
  <path
     id="circle164"
     style="fill:#363636;stroke:#222222;stroke-width:0.8"
     d="m 216.39999,351.39999 a 11,11 0 0 1 -11,11 11,11 0 0 1 -11,-11 11,11 0 0 1 11,-11 11,11 0 0 1 11,11 z" />
  <path
     id="circle166"
     style="fill:#363636;stroke:#222222;stroke-width:0.8"
     d="m 253.39999,351.39999 a 11,11 0 0 1 -11,11 11,11 0 0 1 -11,-11 11,11 0 0 1 11,-11 11,11 0 0 1 11,11 z" />
  <path
     id="circle168"
     style="fill:#363636;stroke:#222222;stroke-width:0.8"
     d="m 290.29999,351.39999 a 11,11 0 0 1 -11,11 11,11 0 0 1 -11,-11 11,11 0 0 1 11,-11 11,11 0 0 1 11,11 z" />
  <!-- Step function labels  y=373.5 (bottom edge of panel safe at 378) -->
  <g
     aria-label="CLEAR"
     id="text170"
     style="font-size:6.5px;text-anchor:middle;fill:#444444">
    <path
       d="m 14.271412,369.12646 v 0.67603 q -0.323731,-0.30151 -0.691895,-0.45068 -0.36499,-0.14917 -0.777588,-0.14917 -0.8125,0 -1.24414,0.49829 -0.431641,0.49511 -0.431641,1.43457 0,0.93628 0.431641,1.43457 0.43164,0.49512 1.24414,0.49512 0.412598,0 0.777588,-0.14917 0.368164,-0.14917 0.691895,-0.45069 v 0.66968 q -0.336426,0.22852 -0.714111,0.34277 -0.374512,0.11426 -0.793457,0.11426 -1.075928,0 -1.694825,-0.65698 -0.618896,-0.66016 -0.618896,-1.79956 0,-1.14258 0.618896,-1.79956 0.618897,-0.66016 1.694825,-0.66016 0.425293,0 0.799804,0.11426 0.377686,0.11108 0.707764,0.33642 z"
       id="path458" />
    <path
       d="m 15.261646,368.76147 h 0.641114 v 4.19898 h 2.307373 V 373.5 h -2.948487 z"
       id="path460" />
    <path
       d="m 18.882984,368.76147 h 2.996094 v 0.53956 h -2.354981 v 1.40283 h 2.256592 v 0.53955 h -2.256592 v 1.71704 h 2.41211 V 373.5 h -3.053223 z"
       id="path462" />
    <path
       d="m 24.573658,369.39307 -0.869629,2.35815 h 1.742432 z m -0.361816,-0.6316 h 0.726806 L 26.744556,373.5 h -0.666503 l -0.431641,-1.21558 H 23.510426 L 23.078785,373.5 H 22.40276 Z"
       id="path464" />
    <path
       d="m 29.683521,371.27832 q 0.206299,0.0698 0.399903,0.29834 0.196777,0.22852 0.393554,0.62842 L 31.127613,373.5 h -0.688721 l -0.606201,-1.21558 q -0.234863,-0.47607 -0.457031,-0.63159 -0.218994,-0.15552 -0.599854,-0.15552 H 28.077564 V 373.5 h -0.641113 v -4.73853 h 1.447266 q 0.8125,0 1.212402,0.3396 0.399902,0.3396 0.399902,1.02515 0,0.44751 -0.209472,0.74268 -0.206299,0.29516 -0.603028,0.40942 z m -1.605957,-1.98999 v 1.68213 h 0.806153 q 0.463378,0 0.698242,-0.21265 0.238037,-0.21582 0.238037,-0.63159 0,-0.41577 -0.238037,-0.62524 -0.234864,-0.21265 -0.698242,-0.21265 z"
       id="path466" />
  </g>
  <g
     aria-label="SMOOTH"
     id="text172"
     style="font-size:6.5px;text-anchor:middle;fill:#444444">
    <path
       d="m 46.666161,368.91699 v 0.62525 q -0.364991,-0.17456 -0.688721,-0.26026 -0.323731,-0.0857 -0.625244,-0.0857 -0.523682,0 -0.809326,0.20312 -0.282471,0.20313 -0.282471,0.57764 0,0.31421 0.187256,0.47607 0.190429,0.1587 0.717285,0.25709 l 0.387207,0.0793 q 0.717285,0.13648 1.056885,0.48242 0.342773,0.34278 0.342773,0.92041 0,0.68872 -0.463379,1.04419 -0.460205,0.35547 -1.352051,0.35547 -0.336425,0 -0.717285,-0.0762 -0.377685,-0.0762 -0.783935,-0.22534 v -0.66016 q 0.390381,0.219 0.764892,0.33008 0.374512,0.11108 0.736328,0.11108 0.549073,0 0.847413,-0.21582 0.298339,-0.21582 0.298339,-0.61572 0,-0.34912 -0.21582,-0.5459 -0.212646,-0.19678 -0.701416,-0.29516 l -0.390381,-0.0762 q -0.717285,-0.14282 -1.037842,-0.44751 -0.320556,-0.30468 -0.320556,-0.84741 0,-0.62842 0.441162,-0.99023 0.444336,-0.36182 1.221924,-0.36182 0.333252,0 0.679199,0.0603 0.345947,0.0603 0.707764,0.18091 z"
       id="path469" />
    <path
       d="m 47.951561,368.76147 h 0.955322 l 1.209229,3.22461 1.215576,-3.22461 H 52.28701 V 373.5 h -0.625244 v -4.16089 l -1.221924,3.25 h -0.644287 l -1.221924,-3.25 V 373.5 h -0.62207 z"
       id="path471" />
    <path
       d="m 55.483055,369.19629 q -0.698242,0 -1.11084,0.52051 -0.409424,0.5205 -0.409424,1.4187 0,0.89502 0.409424,1.41553 0.412598,0.5205 1.11084,0.5205 0.698242,0 1.104492,-0.5205 0.409424,-0.52051 0.409424,-1.41553 0,-0.8982 -0.409424,-1.4187 -0.40625,-0.52051 -1.104492,-0.52051 z m 0,-0.52051 q 0.996582,0 1.593262,0.66968 0.59668,0.6665 0.59668,1.79004 0,1.12036 -0.59668,1.79004 -0.59668,0.6665 -1.593262,0.6665 -0.999756,0 -1.599609,-0.6665 -0.59668,-0.66651 -0.59668,-1.79004 0,-1.12354 0.59668,-1.79004 0.599853,-0.66968 1.599609,-0.66968 z"
       id="path473" />
    <path
       d="m 60.599266,369.19629 q -0.698242,0 -1.11084,0.52051 -0.409424,0.5205 -0.409424,1.4187 0,0.89502 0.409424,1.41553 0.412598,0.5205 1.11084,0.5205 0.698242,0 1.104492,-0.5205 0.409424,-0.52051 0.409424,-1.41553 0,-0.8982 -0.409424,-1.4187 -0.40625,-0.52051 -1.104492,-0.52051 z m 0,-0.52051 q 0.996582,0 1.593262,0.66968 0.596679,0.6665 0.596679,1.79004 0,1.12036 -0.596679,1.79004 -0.59668,0.6665 -1.593262,0.6665 -0.999756,0 -1.599609,-0.6665 -0.59668,-0.66651 -0.59668,-1.79004 0,-1.12354 0.59668,-1.79004 0.599853,-0.66968 1.599609,-0.66968 z"
       id="path475" />
    <path
       d="M 63.135155,368.76147 H 67.1437 v 0.53956 H 65.461571 V 373.5 h -0.644287 v -4.19897 h -1.682129 z"
       id="path477" />
    <path
       d="m 67.762596,368.76147 h 0.641113 v 1.94239 h 2.32959 v -1.94239 h 0.641114 V 373.5 h -0.641114 v -2.25659 h -2.32959 V 373.5 h -0.641113 z"
       id="path479" />
  </g>
  <g
     aria-label="RND"
     id="text174"
     style="font-size:6.5px;text-anchor:middle;fill:#444444">
    <path
       d="m 90.293114,371.27832 q 0.206299,0.0698 0.399902,0.29834 0.196777,0.22852 0.393555,0.62842 L 91.737206,373.5 h -0.688721 l -0.606201,-1.21558 q -0.234864,-0.47607 -0.457032,-0.63159 -0.218994,-0.15552 -0.599853,-0.15552 H 88.687157 V 373.5 h -0.641114 v -4.73853 h 1.447266 q 0.8125,0 1.212402,0.3396 0.399903,0.3396 0.399903,1.02515 0,0.44751 -0.209473,0.74268 -0.206299,0.29516 -0.603027,0.40942 z m -1.605957,-1.98999 v 1.68213 h 0.806152 q 0.463379,0 0.698242,-0.21265 0.238037,-0.21582 0.238037,-0.63159 0,-0.41577 -0.238037,-0.62524 -0.234863,-0.21265 -0.698242,-0.21265 z"
       id="path482" />
    <path
       d="m 92.562401,368.76147 h 0.863281 l 2.101074,3.96412 v -3.96412 h 0.622071 V 373.5 h -0.863282 l -2.101074,-3.96411 V 373.5 h -0.62207 z"
       id="path484" />
    <path
       d="m 98.065819,369.28833 v 3.68481 h 0.774414 q 0.980713,0 1.434567,-0.44433 0.45703,-0.44434 0.45703,-1.40283 0,-0.95215 -0.45703,-1.39331 -0.453854,-0.44434 -1.434567,-0.44434 z m -0.641113,-0.52686 h 1.317138 q 1.377446,0 2.021726,0.57447 0.64429,0.57129 0.64429,1.79004 0,1.22509 -0.64746,1.79956 Q 100.11294,373.5 98.741844,373.5 h -1.317138 z"
       id="path486" />
  </g>
  <g
     aria-label="FREEZE"
     id="text176"
     style="font-size:6.5px;text-anchor:middle;fill:#444444">
    <path
       d="m 119.62354,368.76147 h 2.72314 v 0.53956 h -2.08203 v 1.39648 h 1.8789 v 0.53955 h -1.8789 V 373.5 h -0.64111 z"
       id="path489" />
    <path
       d="m 125.60938,371.27832 q 0.20629,0.0698 0.3999,0.29834 0.19677,0.22852 0.39355,0.62842 l 0.65064,1.29492 h -0.68872 l -0.60621,-1.21558 q -0.23486,-0.47607 -0.45703,-0.63159 -0.21899,-0.15552 -0.59985,-0.15552 h -0.69824 V 373.5 h -0.64112 v -4.73853 h 1.44727 q 0.8125,0 1.2124,0.3396 0.39991,0.3396 0.39991,1.02515 0,0.44751 -0.20948,0.74268 -0.2063,0.29516 -0.60302,0.40942 z m -1.60596,-1.98999 v 1.68213 h 0.80615 q 0.46338,0 0.69824,-0.21265 0.23804,-0.21582 0.23804,-0.63159 0,-0.41577 -0.23804,-0.62524 -0.23486,-0.21265 -0.69824,-0.21265 z"
       id="path491" />
    <path
       d="m 127.87866,368.76147 h 2.9961 v 0.53956 h -2.35498 v 1.40283 h 2.25659 v 0.53955 h -2.25659 v 1.71704 h 2.4121 V 373.5 h -3.05322 z"
       id="path493" />
    <path
       d="m 131.9856,368.76147 h 2.99609 v 0.53956 h -2.35498 v 1.40283 h 2.25659 v 0.53955 h -2.25659 v 1.71704 h 2.41211 V 373.5 h -3.05322 z"
       id="path495" />
    <path
       d="m 135.81958,368.76147 h 3.7229 v 0.48877 l -2.99609,3.71021 h 3.06909 V 373.5 h -3.8689 v -0.48877 l 2.9961,-3.7102 h -2.9231 z"
       id="path497" />
    <path
       d="m 140.54541,368.76147 h 2.99609 v 0.53956 h -2.35498 v 1.40283 h 2.2566 v 0.53955 h -2.2566 v 1.71704 h 2.41211 V 373.5 h -3.05322 z"
       id="path499" />
  </g>
  <g
     aria-label="FWD"
     id="text178"
     style="font-size:6.5px;text-anchor:middle;fill:#444444">
    <path
       d="m 161.55249,368.76147 h 2.72314 v 0.53956 h -2.08203 v 1.39648 h 1.87891 v 0.53955 H 162.1936 V 373.5 h -0.64111 z"
       id="path502" />
    <path
       d="m 164.86914,368.76147 h 0.64746 l 0.99658,4.00538 0.99341,-4.00538 h 0.72046 l 0.99658,4.00538 0.99341,-4.00538 h 0.65064 L 169.67749,373.5 h -0.80615 l -0.99976,-4.11328 -1.00928,4.11328 h -0.80615 z"
       id="path504" />
    <path
       d="m 172.35937,369.28833 v 3.68481 h 0.77442 q 0.98071,0 1.43457,-0.44433 0.45703,-0.44434 0.45703,-1.40283 0,-0.95215 -0.45703,-1.39331 -0.45386,-0.44434 -1.43457,-0.44434 z m -0.64111,-0.52686 h 1.31714 q 1.37744,0 2.02173,0.57447 0.64429,0.57129 0.64429,1.79004 0,1.22509 -0.64746,1.79956 Q 174.40649,373.5 173.0354,373.5 h -1.31714 z"
       id="path506" />
  </g>
  <g
     aria-label="REV"
     id="text180"
     style="font-size:6.5px;text-anchor:middle;fill:#444444">
    <path
       d="m 201.75009,371.27832 q 0.2063,0.0698 0.3999,0.29834 0.19678,0.22852 0.39356,0.62842 l 0.65063,1.29492 h -0.68872 l -0.6062,-1.21558 q -0.23486,-0.47607 -0.45703,-0.63159 -0.21899,-0.15552 -0.59985,-0.15552 h -0.69825 V 373.5 h -0.64111 v -4.73853 h 1.44727 q 0.8125,0 1.2124,0.3396 0.3999,0.3396 0.3999,1.02515 0,0.44751 -0.20947,0.74268 -0.2063,0.29516 -0.60303,0.40942 z m -1.60596,-1.98999 v 1.68213 h 0.80616 q 0.46338,0 0.69824,-0.21265 0.23804,-0.21582 0.23804,-0.63159 0,-0.41577 -0.23804,-0.62524 -0.23486,-0.21265 -0.69824,-0.21265 z"
       id="path509" />
    <path
       d="m 204.01938,368.76147 h 2.99609 v 0.53956 h -2.35498 v 1.40283 h 2.25659 v 0.53955 h -2.25659 v 1.71704 h 2.41211 V 373.5 h -3.05322 z"
       id="path511" />
    <path
       d="m 209.34824,373.5 -1.80909,-4.73853 h 0.66968 l 1.50122,3.98951 1.5044,-3.98951 h 0.6665 L 210.07504,373.5 Z"
       id="path513" />
  </g>
  <g
     aria-label="PEND"
     id="text182"
     style="font-size:6.5px;text-anchor:middle;fill:#444444">
    <path
       d="m 234.73203,369.28833 v 1.78052 h 0.80615 q 0.44751,0 0.69189,-0.23169 0.24439,-0.23169 0.24439,-0.66016 0,-0.42529 -0.24439,-0.65698 -0.24438,-0.23169 -0.69189,-0.23169 z m -0.64112,-0.52686 h 1.44727 q 0.79663,0 1.20288,0.36182 0.40942,0.35864 0.40942,1.05371 0,0.70142 -0.40942,1.06006 -0.40625,0.35864 -1.20288,0.35864 h -0.80615 V 373.5 h -0.64112 z"
       id="path516" />
    <path
       d="m 238.01059,368.76147 h 2.99609 v 0.53956 h -2.35498 v 1.40283 h 2.25659 v 0.53955 h -2.25659 v 1.71704 h 2.41211 V 373.5 h -3.05322 z"
       id="path518" />
    <path
       d="m 242.11752,368.76147 h 0.86328 l 2.10108,3.96412 v -3.96412 h 0.62207 V 373.5 h -0.86328 l -2.10108,-3.96411 V 373.5 h -0.62207 z"
       id="path520" />
    <path
       d="m 247.62094,369.28833 v 3.68481 h 0.77442 q 0.98071,0 1.43457,-0.44433 0.45703,-0.44434 0.45703,-1.40283 0,-0.95215 -0.45703,-1.39331 -0.45386,-0.44434 -1.43457,-0.44434 z m -0.64111,-0.52686 h 1.31714 q 1.37744,0 2.02173,0.57447 0.64428,0.57129 0.64428,1.79004 0,1.22509 -0.64746,1.79956 -0.64746,0.57446 -2.01855,0.57446 h -1.31714 z"
       id="path522" />
  </g>
  <g
     aria-label="RNDSEQ"
     id="text184"
     style="font-size:6.5px;text-anchor:middle;fill:#444444">
    <path
       d="m 268.31854,371.27832 q 0.2063,0.0698 0.3999,0.29834 0.19678,0.22852 0.39356,0.62842 l 0.65063,1.29492 h -0.68872 l -0.6062,-1.21558 q -0.23486,-0.47607 -0.45703,-0.63159 -0.21899,-0.15552 -0.59985,-0.15552 h -0.69824 V 373.5 h -0.64112 v -4.73853 h 1.44727 q 0.8125,0 1.2124,0.3396 0.3999,0.3396 0.3999,1.02515 0,0.44751 -0.20947,0.74268 -0.2063,0.29516 -0.60303,0.40942 z m -1.60595,-1.98999 v 1.68213 h 0.80615 q 0.46338,0 0.69824,-0.21265 0.23804,-0.21582 0.23804,-0.63159 0,-0.41577 -0.23804,-0.62524 -0.23486,-0.21265 -0.69824,-0.21265 z"
       id="path525" />
    <path
       d="m 270.58783,368.76147 h 0.86328 l 2.10108,3.96412 v -3.96412 h 0.62207 V 373.5 h -0.86329 l -2.10107,-3.96411 V 373.5 h -0.62207 z"
       id="path527" />
    <path
       d="m 276.09125,369.28833 v 3.68481 h 0.77441 q 0.98071,0 1.43457,-0.44433 0.45703,-0.44434 0.45703,-1.40283 0,-0.95215 -0.45703,-1.39331 -0.45386,-0.44434 -1.43457,-0.44434 z m -0.64112,-0.52686 h 1.31714 q 1.37744,0 2.02173,0.57447 0.64429,0.57129 0.64429,1.79004 0,1.22509 -0.64746,1.79956 -0.64746,0.57446 -2.01856,0.57446 h -1.31714 z"
       id="path529" />
    <path
       d="m 283.29584,368.91699 v 0.62525 q -0.36499,-0.17456 -0.68872,-0.26026 -0.32373,-0.0857 -0.62525,-0.0857 -0.52368,0 -0.80932,0.20312 -0.28247,0.20313 -0.28247,0.57764 0,0.31421 0.18725,0.47607 0.19043,0.1587 0.71729,0.25709 l 0.3872,0.0793 q 0.71729,0.13648 1.05689,0.48242 0.34277,0.34278 0.34277,0.92041 0,0.68872 -0.46338,1.04419 -0.4602,0.35547 -1.35205,0.35547 -0.33642,0 -0.71728,-0.0762 -0.37769,-0.0762 -0.78394,-0.22534 v -0.66016 q 0.39038,0.219 0.76489,0.33008 0.37452,0.11108 0.73633,0.11108 0.54907,0 0.84741,-0.21582 0.29834,-0.21582 0.29834,-0.61572 0,-0.34912 -0.21582,-0.5459 -0.21264,-0.19678 -0.70141,-0.29516 l -0.39038,-0.0762 q -0.71729,-0.14282 -1.03784,-0.44751 -0.32056,-0.30468 -0.32056,-0.84741 0,-0.62842 0.44116,-0.99023 0.44434,-0.36182 1.22192,-0.36182 0.33326,0 0.6792,0.0603 0.34595,0.0603 0.70777,0.18091 z"
       id="path531" />
    <path
       d="m 284.58124,368.76147 h 2.99609 v 0.53956 h -2.35498 v 1.40283 h 2.25659 v 0.53955 h -2.25659 v 1.71704 h 2.41211 V 373.5 h -3.05322 z"
       id="path533" />
    <path
       d="m 290.61151,369.19629 q -0.69824,0 -1.11084,0.52051 -0.40942,0.5205 -0.40942,1.4187 0,0.89502 0.40942,1.41553 0.4126,0.5205 1.11084,0.5205 0.69824,0 1.10449,-0.5205 0.40943,-0.52051 0.40943,-1.41553 0,-0.8982 -0.40943,-1.4187 -0.40625,-0.52051 -1.10449,-0.52051 z m 0.89819,4.21802 0.84424,0.92358 h -0.77441 l -0.70142,-0.75854 q -0.10473,0.006 -0.16186,0.01 -0.054,0.003 -0.10474,0.003 -0.99975,0 -1.59961,-0.6665 -0.59668,-0.66968 -0.59668,-1.79004 0,-1.12354 0.59668,-1.79004 0.59986,-0.66968 1.59961,-0.66968 0.99658,0 1.59326,0.66968 0.59668,0.6665 0.59668,1.79004 0,0.82519 -0.33325,1.41235 -0.33008,0.58716 -0.9585,0.86646 z"
       id="path535" />
  </g>
</svg>
