<svg xmlns="http://www.w3.org/2000/svg" width="420" height="390" viewBox="0 0 420 390">
<rect x="0" y="0" width="420" height="390" fill="#1a0808"/>
<rect x="4.4" y="4.4" width="411.1" height="380.9" fill="#220b0b"/>
<rect x="5.9" y="47.2" width="408.2" height="70.9" fill="#270d0d"/>
<rect x="5.9" y="118.1" width="408.2" height="206.7" fill="#1f0a0a"/>
<rect x="5.9" y="324.8" width="408.2" height="65.0" fill="#270d0d"/>
<line x1="8.9" y1="47.2" x2="411.1" y2="47.2" stroke="#5a2424" stroke-width="0.8"/>
<line x1="8.9" y1="118.1" x2="411.1" y2="118.1" stroke="#5a2424" stroke-width="0.8"/>
<line x1="8.9" y1="324.8" x2="411.1" y2="324.8" stroke="#5a2424" stroke-width="0.8"/>
<g transform="translate(162.75,26.57) scale(1,-1)"><path d="M 7.43,8.76 L 7.43,6.84 Q 6.69,7.18 5.98,7.34 Q 5.27,7.51 4.64,7.51 Q 3.80,7.51 3.40,7.28 Q 3.00,7.06 3.00,6.57 Q 3.00,6.21 3.27,6.00 Q 3.54,5.80 4.25,5.66 L 5.24,5.46 Q 6.75,5.15 7.39,4.53 Q 8.02,3.92 8.02,2.78 Q 8.02,1.28 7.14,0.55 Q 6.25,-0.18 4.43,-0.18 Q 3.57,-0.18 2.70,-0.01 Q 1.84,0.15 0.97,0.47 L 0.97,2.44 Q 1.84,1.98 2.64,1.75 Q 3.45,1.51 4.20,1.51 Q 4.97,1.51 5.37,1.77 Q 5.78,2.02 5.78,2.50 Q 5.78,2.92 5.50,3.15 Q 5.23,3.38 4.40,3.56 L 3.50,3.76 Q 2.14,4.05 1.52,4.69 Q 0.89,5.32 0.89,6.40 Q 0.89,7.75 1.76,8.48 Q 2.63,9.20 4.27,9.20 Q 5.01,9.20 5.80,9.09 Q 6.59,8.98 7.43,8.76 Z M 14.20,7.51 Q 13.13,7.51 12.55,6.73 Q 11.96,5.94 11.96,4.51 Q 11.96,3.09 12.55,2.30 Q 13.13,1.51 14.20,1.51 Q 15.27,1.51 15.86,2.30 Q 16.45,3.09 16.45,4.51 Q 16.45,5.94 15.86,6.73 Q 15.27,7.51 14.20,7.51 Z M 14.20,9.20 Q 16.38,9.20 17.61,7.96 Q 18.85,6.71 18.85,4.51 Q 18.85,2.32 17.61,1.07 Q 16.38,-0.18 14.20,-0.18 Q 12.03,-0.18 10.79,1.07 Q 9.55,2.32 9.55,4.51 Q 9.55,6.71 10.79,7.96 Q 12.03,9.20 14.20,9.20 Z M 20.61,9.04 L 22.94,9.04 L 22.94,3.62 Q 22.94,2.50 23.31,2.02 Q 23.68,1.54 24.51,1.54 Q 25.34,1.54 25.71,2.02 Q 26.07,2.50 26.07,3.62 L 26.07,9.04 L 28.41,9.04 L 28.41,3.62 Q 28.41,1.70 27.44,0.76 Q 26.48,-0.18 24.51,-0.18 Q 22.54,-0.18 21.57,0.76 Q 20.61,1.70 20.61,3.62 L 20.61,9.04 Z M 30.68,9.04 L 33.29,9.04 L 36.57,2.84 L 36.57,9.04 L 38.79,9.04 L 38.79,0.00 L 36.18,0.00 L 32.89,6.20 L 32.89,0.00 L 30.68,0.00 L 30.68,9.04 Z M 43.39,7.28 L 43.39,1.76 L 44.23,1.76 Q 45.66,1.76 46.41,2.47 Q 47.17,3.18 47.17,4.53 Q 47.17,5.87 46.42,6.57 Q 45.67,7.28 44.23,7.28 L 43.39,7.28 Z M 41.06,9.04 L 43.52,9.04 Q 45.58,9.04 46.59,8.75 Q 47.60,8.45 48.32,7.75 Q 48.95,7.14 49.26,6.34 Q 49.57,5.54 49.57,4.53 Q 49.57,3.51 49.26,2.70 Q 48.95,1.90 48.32,1.29 Q 47.59,0.59 46.57,0.29 Q 45.55,0.00 43.52,0.00 L 41.06,0.00 L 41.06,9.04 Z M 57.65,8.76 L 57.65,6.84 Q 56.90,7.18 56.19,7.34 Q 55.49,7.51 54.86,7.51 Q 54.02,7.51 53.62,7.28 Q 53.22,7.06 53.22,6.57 Q 53.22,6.21 53.49,6.00 Q 53.76,5.80 54.47,5.66 L 55.46,5.46 Q 56.97,5.15 57.60,4.53 Q 58.24,3.92 58.24,2.78 Q 58.24,1.28 57.35,0.55 Q 56.47,-0.18 54.64,-0.18 Q 53.79,-0.18 52.92,-0.01 Q 52.05,0.15 51.19,0.47 L 51.19,2.44 Q 52.05,1.98 52.86,1.75 Q 53.67,1.51 54.42,1.51 Q 55.18,1.51 55.59,1.77 Q 55.99,2.02 55.99,2.50 Q 55.99,2.92 55.72,3.15 Q 55.44,3.38 54.62,3.56 L 53.72,3.76 Q 52.36,4.05 51.73,4.69 Q 51.11,5.32 51.11,6.40 Q 51.11,7.75 51.98,8.48 Q 52.85,9.20 54.49,9.20 Q 55.23,9.20 56.02,9.09 Q 56.81,8.98 57.65,8.76 Z M 67.46,0.50 Q 66.82,0.16 66.12,-0.01 Q 65.42,-0.18 64.67,-0.18 Q 62.41,-0.18 61.09,1.09 Q 59.77,2.35 59.77,4.51 Q 59.77,6.68 61.09,7.94 Q 62.41,9.20 64.67,9.20 Q 65.42,9.20 66.12,9.03 Q 66.82,8.87 67.46,8.53 L 67.46,6.66 Q 66.81,7.10 66.18,7.31 Q 65.55,7.51 64.85,7.51 Q 63.61,7.51 62.89,6.71 Q 62.18,5.92 62.18,4.51 Q 62.18,3.11 62.89,2.31 Q 63.61,1.51 64.85,1.51 Q 65.55,1.51 66.18,1.72 Q 66.81,1.93 67.46,2.37 L 67.46,0.50 Z M 74.88,1.65 L 71.23,1.65 L 70.66,0.00 L 68.31,0.00 L 71.66,9.04 L 74.44,9.04 L 77.79,0.00 L 75.45,0.00 L 74.88,1.65 Z M 71.81,3.33 L 74.29,3.33 L 73.05,6.92 L 71.81,3.33 Z M 78.99,9.04 L 82.86,9.04 Q 84.58,9.04 85.50,8.27 Q 86.43,7.51 86.43,6.09 Q 86.43,4.67 85.50,3.90 Q 84.58,3.14 82.86,3.14 L 81.32,3.14 L 81.32,0.00 L 78.99,0.00 L 78.99,9.04 Z M 81.32,7.35 L 81.32,4.83 L 82.61,4.83 Q 83.29,4.83 83.66,5.16 Q 84.03,5.49 84.03,6.09 Q 84.03,6.70 83.66,7.02 Q 83.29,7.35 82.61,7.35 L 81.32,7.35 Z M 88.08,9.04 L 94.37,9.04 L 94.37,7.28 L 90.41,7.28 L 90.41,5.60 L 94.13,5.60 L 94.13,3.83 L 90.41,3.83 L 90.41,1.76 L 94.50,1.76 L 94.50,0.00 L 88.08,0.00 L 88.08,9.04 Z" fill="#f3e2da"/></g>
<g transform="translate(162.62,39.86) scale(1,-1)"><path d="M 2.16,2.35 Q 1.68,2.35 1.41,2.10 Q 1.13,1.84 1.13,1.39 Q 1.13,0.95 1.41,0.69 Q 1.68,0.43 2.16,0.43 Q 2.64,0.43 2.91,0.69 Q 3.19,0.95 3.19,1.39 Q 3.19,1.84 2.91,2.10 Q 2.64,2.35 2.16,2.35 Z M 1.49,2.64 Q 1.06,2.74 0.82,3.04 Q 0.58,3.33 0.58,3.76 Q 0.58,4.35 1.00,4.70 Q 1.42,5.04 2.16,5.04 Q 2.90,5.04 3.32,4.70 Q 3.74,4.35 3.74,3.76 Q 3.74,3.33 3.50,3.04 Q 3.26,2.74 2.83,2.64 Q 3.32,2.52 3.59,2.19 Q 3.86,1.87 3.86,1.39 Q 3.86,0.67 3.42,0.29 Q 2.98,-0.10 2.16,-0.10 Q 1.34,-0.10 0.90,0.29 Q 0.46,0.67 0.46,1.39 Q 0.46,1.87 0.73,2.19 Q 1.00,2.52 1.49,2.64 Z M 1.24,3.69 Q 1.24,3.31 1.48,3.09 Q 1.72,2.88 2.16,2.88 Q 2.59,2.88 2.83,3.09 Q 3.08,3.31 3.08,3.69 Q 3.08,4.08 2.83,4.29 Q 2.59,4.51 2.16,4.51 Q 1.72,4.51 1.48,4.29 Q 1.24,4.08 1.24,3.69 Z M 10.85,4.57 L 10.85,3.86 Q 10.52,4.18 10.13,4.33 Q 9.75,4.49 9.32,4.49 Q 8.47,4.49 8.02,3.97 Q 7.57,3.45 7.57,2.47 Q 7.57,1.49 8.02,0.97 Q 8.47,0.45 9.32,0.45 Q 9.75,0.45 10.13,0.61 Q 10.52,0.77 10.85,1.08 L 10.85,0.38 Q 10.50,0.14 10.11,0.02 Q 9.72,-0.10 9.28,-0.10 Q 8.15,-0.10 7.51,0.59 Q 6.86,1.28 6.86,2.47 Q 6.86,3.66 7.51,4.35 Q 8.15,5.04 9.28,5.04 Q 9.72,5.04 10.12,4.92 Q 10.51,4.80 10.85,4.57 Z M 11.89,4.95 L 12.56,4.95 L 12.56,2.92 L 14.99,2.92 L 14.99,4.95 L 15.66,4.95 L 15.66,0.00 L 14.99,0.00 L 14.99,2.36 L 12.56,2.36 L 12.56,0.00 L 11.89,0.00 L 11.89,4.95 Z M 18.65,4.29 L 17.74,1.83 L 19.56,1.83 L 18.65,4.29 Z M 18.27,4.95 L 19.03,4.95 L 20.92,0.00 L 20.22,0.00 L 19.77,1.27 L 17.54,1.27 L 17.09,0.00 L 16.38,0.00 L 18.27,4.95 Z M 21.64,4.95 L 22.54,4.95 L 24.74,0.81 L 24.74,4.95 L 25.39,4.95 L 25.39,0.00 L 24.49,0.00 L 22.29,4.14 L 22.29,0.00 L 21.64,0.00 L 21.64,4.95 Z M 26.72,4.95 L 27.62,4.95 L 29.82,0.81 L 29.82,4.95 L 30.47,4.95 L 30.47,0.00 L 29.57,0.00 L 27.37,4.14 L 27.37,0.00 L 26.72,0.00 L 26.72,4.95 Z M 31.80,4.95 L 34.93,4.95 L 34.93,4.39 L 32.47,4.39 L 32.47,2.92 L 34.83,2.92 L 34.83,2.36 L 32.47,2.36 L 32.47,0.56 L 34.99,0.56 L 34.99,0.00 L 31.80,0.00 L 31.80,4.95 Z M 36.09,4.95 L 36.76,4.95 L 36.76,0.56 L 39.17,0.56 L 39.17,0.00 L 36.09,0.00 L 36.09,4.95 Z M 45.74,4.57 L 45.74,3.86 Q 45.40,4.18 45.02,4.33 Q 44.64,4.49 44.21,4.49 Q 43.36,4.49 42.91,3.97 Q 42.46,3.45 42.46,2.47 Q 42.46,1.49 42.91,0.97 Q 43.36,0.45 44.21,0.45 Q 44.64,0.45 45.02,0.61 Q 45.40,0.77 45.74,1.08 L 45.74,0.38 Q 45.39,0.14 45.00,0.02 Q 44.60,-0.10 44.17,-0.10 Q 43.04,-0.10 42.40,0.59 Q 41.75,1.28 41.75,2.47 Q 41.75,3.66 42.40,4.35 Q 43.04,5.04 44.17,5.04 Q 44.61,5.04 45.00,4.92 Q 45.40,4.80 45.74,4.57 Z M 48.05,0.00 L 46.16,4.95 L 46.86,4.95 L 48.43,0.78 L 50.00,4.95 L 50.70,4.95 L 48.81,0.00 L 48.05,0.00 Z M 56.55,4.79 L 56.55,4.14 Q 56.17,4.32 55.83,4.41 Q 55.49,4.50 55.18,4.50 Q 54.63,4.50 54.33,4.28 Q 54.04,4.07 54.04,3.68 Q 54.04,3.35 54.23,3.18 Q 54.43,3.02 54.98,2.91 L 55.39,2.83 Q 56.13,2.69 56.49,2.33 Q 56.85,1.97 56.85,1.37 Q 56.85,0.65 56.36,0.27 Q 55.88,-0.10 54.95,-0.10 Q 54.60,-0.10 54.20,-0.02 Q 53.81,0.06 53.38,0.22 L 53.38,0.91 Q 53.79,0.68 54.18,0.56 Q 54.57,0.45 54.95,0.45 Q 55.52,0.45 55.84,0.67 Q 56.15,0.90 56.15,1.32 Q 56.15,1.68 55.92,1.89 Q 55.70,2.09 55.19,2.20 L 54.78,2.28 Q 54.03,2.42 53.70,2.74 Q 53.36,3.06 53.36,3.63 Q 53.36,4.28 53.83,4.66 Q 54.29,5.04 55.10,5.04 Q 55.45,5.04 55.81,4.98 Q 56.17,4.91 56.55,4.79 Z M 57.89,4.95 L 61.02,4.95 L 61.02,4.39 L 58.56,4.39 L 58.56,2.92 L 60.92,2.92 L 60.92,2.36 L 58.56,2.36 L 58.56,0.56 L 61.08,0.56 L 61.08,0.00 L 57.89,0.00 L 57.89,4.95 Z M 64.19,4.50 Q 63.46,4.50 63.03,3.95 Q 62.60,3.41 62.60,2.47 Q 62.60,1.54 63.03,0.99 Q 63.46,0.45 64.19,0.45 Q 64.92,0.45 65.35,0.99 Q 65.78,1.54 65.78,2.47 Q 65.78,3.41 65.35,3.95 Q 64.92,4.50 64.19,4.50 Z M 65.13,0.09 L 66.01,-0.88 L 65.20,-0.88 L 64.47,-0.08 Q 64.36,-0.09 64.30,-0.09 Q 64.25,-0.10 64.19,-0.10 Q 63.15,-0.10 62.52,0.60 Q 61.90,1.30 61.90,2.47 Q 61.90,3.64 62.52,4.34 Q 63.15,5.04 64.19,5.04 Q 65.23,5.04 65.86,4.34 Q 66.48,3.64 66.48,2.47 Q 66.48,1.61 66.13,0.99 Q 65.79,0.38 65.13,0.09 Z M 67.45,4.95 L 68.13,4.95 L 68.13,1.94 Q 68.13,1.15 68.41,0.80 Q 68.70,0.45 69.35,0.45 Q 69.99,0.45 70.28,0.80 Q 70.57,1.15 70.57,1.94 L 70.57,4.95 L 71.24,4.95 L 71.24,1.86 Q 71.24,0.89 70.76,0.40 Q 70.28,-0.10 69.35,-0.10 Q 68.41,-0.10 67.93,0.40 Q 67.45,0.89 67.45,1.86 L 67.45,4.95 Z M 72.50,4.95 L 75.63,4.95 L 75.63,4.39 L 73.17,4.39 L 73.17,2.92 L 75.53,2.92 L 75.53,2.36 L 73.17,2.36 L 73.17,0.56 L 75.69,0.56 L 75.69,0.00 L 72.50,0.00 L 72.50,4.95 Z M 76.79,4.95 L 77.69,4.95 L 79.89,0.81 L 79.89,4.95 L 80.54,4.95 L 80.54,0.00 L 79.64,0.00 L 77.44,4.14 L 77.44,0.00 L 76.79,0.00 L 76.79,4.95 Z M 85.58,4.57 L 85.58,3.86 Q 85.24,4.18 84.86,4.33 Q 84.47,4.49 84.04,4.49 Q 83.19,4.49 82.74,3.97 Q 82.29,3.45 82.29,2.47 Q 82.29,1.49 82.74,0.97 Q 83.19,0.45 84.04,0.45 Q 84.47,0.45 84.86,0.61 Q 85.24,0.77 85.58,1.08 L 85.58,0.38 Q 85.23,0.14 84.83,0.02 Q 84.44,-0.10 84.00,-0.10 Q 82.88,-0.10 82.23,0.59 Q 81.59,1.28 81.59,2.47 Q 81.59,3.66 82.23,4.35 Q 82.88,5.04 84.00,5.04 Q 84.45,5.04 84.84,4.92 Q 85.23,4.80 85.58,4.57 Z M 86.61,4.95 L 89.74,4.95 L 89.74,4.39 L 87.28,4.39 L 87.28,2.92 L 89.64,2.92 L 89.64,2.36 L 87.28,2.36 L 87.28,0.56 L 89.80,0.56 L 89.80,0.00 L 86.61,0.00 L 86.61,4.95 Z M 93.25,2.32 Q 93.47,2.25 93.67,2.01 Q 93.87,1.77 94.08,1.35 L 94.76,0.00 L 94.04,0.00 L 93.41,1.27 Q 93.16,1.77 92.93,1.93 Q 92.70,2.09 92.30,2.09 L 91.57,2.09 L 91.57,0.00 L 90.90,0.00 L 90.90,4.95 L 92.42,4.95 Q 93.26,4.95 93.68,4.60 Q 94.10,4.24 94.10,3.53 Q 94.10,3.06 93.88,2.75 Q 93.67,2.44 93.25,2.32 Z M 91.57,4.40 L 91.57,2.64 L 92.42,2.64 Q 92.90,2.64 93.15,2.87 Q 93.39,3.09 93.39,3.53 Q 93.39,3.96 93.15,4.18 Q 92.90,4.40 92.42,4.40 L 91.57,4.40 Z" fill="#8a5a52"/></g>
<g transform="translate(18.30,62.01) scale(1,-1)"><path d="M 3.99,4.17 L 3.99,3.53 Q 3.68,3.82 3.33,3.96 Q 2.99,4.10 2.59,4.10 Q 1.82,4.10 1.40,3.63 Q 0.99,3.15 0.99,2.26 Q 0.99,1.36 1.40,0.89 Q 1.82,0.41 2.59,0.41 Q 2.99,0.41 3.33,0.56 Q 3.68,0.70 3.99,0.99 L 3.99,0.35 Q 3.67,0.13 3.31,0.02 Q 2.96,-0.09 2.56,-0.09 Q 1.53,-0.09 0.94,0.54 Q 0.35,1.17 0.35,2.26 Q 0.35,3.35 0.94,3.97 Q 1.53,4.60 2.56,4.60 Q 2.96,4.60 3.32,4.49 Q 3.68,4.39 3.99,4.17 Z M 4.94,4.52 L 5.55,4.52 L 5.55,0.51 L 7.75,0.51 L 7.75,0.00 L 4.94,0.00 L 4.94,4.52 Z M 8.39,4.52 L 9.00,4.52 L 9.00,2.61 L 11.03,4.52 L 11.82,4.52 L 9.58,2.41 L 11.98,0.00 L 11.18,0.00 L 9.00,2.18 L 9.00,0.00 L 8.39,0.00 L 8.39,4.52 Z M 13.42,4.52 L 13.94,4.52 L 12.36,-0.58 L 11.85,-0.58 L 13.42,4.52 Z M 17.93,4.17 L 17.93,3.53 Q 17.62,3.82 17.27,3.96 Q 16.92,4.10 16.53,4.10 Q 15.76,4.10 15.34,3.63 Q 14.93,3.15 14.93,2.26 Q 14.93,1.36 15.34,0.89 Q 15.76,0.41 16.53,0.41 Q 16.92,0.41 17.27,0.56 Q 17.62,0.70 17.93,0.99 L 17.93,0.35 Q 17.61,0.13 17.25,0.02 Q 16.89,-0.09 16.50,-0.09 Q 15.47,-0.09 14.88,0.54 Q 14.29,1.17 14.29,2.26 Q 14.29,3.35 14.88,3.97 Q 15.47,4.60 16.50,4.60 Q 16.90,4.60 17.26,4.49 Q 17.62,4.39 17.93,4.17 Z M 20.04,0.00 L 18.32,4.52 L 18.96,4.52 L 20.39,0.72 L 21.82,4.52 L 22.46,4.52 L 20.74,0.00 L 20.04,0.00 Z" fill="#c98c80"/></g>
<g transform="translate(57.54,62.01) scale(1,-1)"><path d="M 2.75,2.12 Q 2.95,2.05 3.14,1.84 Q 3.32,1.62 3.51,1.24 L 4.13,0.00 L 3.47,0.00 L 2.89,1.16 Q 2.67,1.61 2.46,1.76 Q 2.25,1.91 1.89,1.91 L 1.22,1.91 L 1.22,0.00 L 0.61,0.00 L 0.61,4.52 L 1.99,4.52 Q 2.76,4.52 3.15,4.20 Q 3.53,3.87 3.53,3.22 Q 3.53,2.79 3.33,2.51 Q 3.13,2.23 2.75,2.12 Z M 1.22,4.02 L 1.22,2.41 L 1.99,2.41 Q 2.43,2.41 2.66,2.62 Q 2.88,2.82 2.88,3.22 Q 2.88,3.61 2.66,3.82 Q 2.43,4.02 1.99,4.02 L 1.22,4.02 Z M 7.63,4.37 L 7.63,3.78 Q 7.28,3.94 6.97,4.02 Q 6.66,4.11 6.37,4.11 Q 5.87,4.11 5.60,3.91 Q 5.33,3.72 5.33,3.36 Q 5.33,3.06 5.51,2.91 Q 5.69,2.76 6.19,2.66 L 6.56,2.59 Q 7.25,2.46 7.57,2.13 Q 7.90,1.80 7.90,1.25 Q 7.90,0.59 7.46,0.25 Q 7.02,-0.09 6.17,-0.09 Q 5.85,-0.09 5.48,-0.02 Q 5.12,0.06 4.74,0.20 L 4.74,0.83 Q 5.11,0.62 5.47,0.51 Q 5.82,0.41 6.17,0.41 Q 6.69,0.41 6.98,0.61 Q 7.26,0.82 7.26,1.20 Q 7.26,1.53 7.06,1.72 Q 6.85,1.91 6.39,2.00 L 6.01,2.08 Q 5.33,2.21 5.02,2.50 Q 4.72,2.79 4.72,3.31 Q 4.72,3.91 5.14,4.26 Q 5.56,4.60 6.30,4.60 Q 6.62,4.60 6.95,4.54 Q 7.28,4.49 7.63,4.37 Z M 8.23,4.52 L 12.05,4.52 L 12.05,4.01 L 10.45,4.01 L 10.45,0.00 L 9.83,0.00 L 9.83,4.01 L 8.23,4.01 L 8.23,4.52 Z M 13.61,4.52 L 14.12,4.52 L 12.55,-0.58 L 12.03,-0.58 L 13.61,4.52 Z M 14.73,4.52 L 15.34,4.52 L 15.34,2.67 L 17.56,2.67 L 17.56,4.52 L 18.18,4.52 L 18.18,0.00 L 17.56,0.00 L 17.56,2.15 L 15.34,2.15 L 15.34,0.00 L 14.73,0.00 L 14.73,4.52 Z M 19.39,4.52 L 20.00,4.52 L 20.00,0.51 L 22.21,0.51 L 22.21,0.00 L 19.39,0.00 L 19.39,4.52 Z M 23.46,4.02 L 23.46,0.50 L 24.20,0.50 Q 25.13,0.50 25.57,0.93 Q 26.00,1.35 26.00,2.27 Q 26.00,3.17 25.57,3.60 Q 25.13,4.02 24.20,4.02 L 23.46,4.02 Z M 22.85,4.52 L 24.10,4.52 Q 25.42,4.52 26.03,3.97 Q 26.65,3.43 26.65,2.27 Q 26.65,1.10 26.03,0.55 Q 25.41,0.00 24.10,0.00 L 22.85,0.00 L 22.85,4.52 Z" fill="#c98c80"/></g>
<g transform="translate(108.85,62.01) scale(1,-1)"><path d="M 0.61,4.52 L 1.52,4.52 L 2.67,1.44 L 3.83,4.52 L 4.74,4.52 L 4.74,0.00 L 4.15,0.00 L 4.15,3.97 L 2.98,0.87 L 2.37,0.87 L 1.20,3.97 L 1.20,0.00 L 0.61,0.00 L 0.61,4.52 Z M 7.79,4.11 Q 7.13,4.11 6.73,3.61 Q 6.34,3.11 6.34,2.26 Q 6.34,1.40 6.73,0.90 Q 7.13,0.41 7.79,0.41 Q 8.46,0.41 8.85,0.90 Q 9.24,1.40 9.24,2.26 Q 9.24,3.11 8.85,3.61 Q 8.46,4.11 7.79,4.11 Z M 7.79,4.60 Q 8.74,4.60 9.31,3.96 Q 9.88,3.33 9.88,2.26 Q 9.88,1.19 9.31,0.55 Q 8.74,-0.09 7.79,-0.09 Q 6.84,-0.09 6.27,0.55 Q 5.70,1.18 5.70,2.26 Q 5.70,3.33 6.27,3.96 Q 6.84,4.60 7.79,4.60 Z M 11.45,4.02 L 11.45,0.50 L 12.19,0.50 Q 13.13,0.50 13.56,0.93 Q 13.99,1.35 13.99,2.27 Q 13.99,3.17 13.56,3.60 Q 13.13,4.02 12.19,4.02 L 11.45,4.02 Z M 10.84,4.52 L 12.10,4.52 Q 13.41,4.52 14.02,3.97 Q 14.64,3.43 14.64,2.27 Q 14.64,1.10 14.02,0.55 Q 13.40,0.00 12.10,0.00 L 10.84,0.00 L 10.84,4.52 Z M 15.61,4.52 L 18.47,4.52 L 18.47,4.01 L 16.23,4.01 L 16.23,2.67 L 18.38,2.67 L 18.38,2.15 L 16.23,2.15 L 16.23,0.51 L 18.53,0.51 L 18.53,0.00 L 15.61,0.00 L 15.61,4.52 Z" fill="#c98c80"/></g>
<g transform="translate(99.52,73.23) scale(1,-1)"><path d="M 0.46,3.44 L 0.93,3.44 L 0.93,0.00 L 0.46,0.00 L 0.46,3.44 Z M 1.86,3.44 L 2.48,3.44 L 4.01,0.56 L 4.01,3.44 L 4.46,3.44 L 4.46,0.00 L 3.84,0.00 L 2.31,2.88 L 2.31,0.00 L 1.86,0.00 L 1.86,3.44 Z M 4.91,3.44 L 7.83,3.44 L 7.83,3.05 L 6.60,3.05 L 6.60,0.00 L 6.14,0.00 L 6.14,3.05 L 4.91,3.05 L 4.91,3.44 Z M 10.51,3.44 L 10.91,3.44 L 9.71,-0.44 L 9.32,-0.44 L 10.51,3.44 Z M 12.87,3.44 L 15.05,3.44 L 15.05,3.05 L 13.34,3.05 L 13.34,2.03 L 14.98,2.03 L 14.98,1.64 L 13.34,1.64 L 13.34,0.39 L 15.09,0.39 L 15.09,0.00 L 12.87,0.00 L 12.87,3.44 Z M 15.69,3.44 L 16.19,3.44 L 17.05,2.16 L 17.91,3.44 L 18.41,3.44 L 17.30,1.79 L 18.48,0.00 L 17.98,0.00 L 17.01,1.46 L 16.04,0.00 L 15.53,0.00 L 16.76,1.84 L 15.69,3.44 Z M 18.53,3.44 L 21.45,3.44 L 21.45,3.05 L 20.22,3.05 L 20.22,0.00 L 19.76,0.00 L 19.76,3.05 L 18.53,3.05 L 18.53,3.44 Z M 24.13,3.44 L 24.53,3.44 L 23.33,-0.44 L 22.93,-0.44 L 24.13,3.44 Z M 26.49,3.44 L 27.19,3.44 L 28.07,1.10 L 28.95,3.44 L 29.64,3.44 L 29.64,0.00 L 29.19,0.00 L 29.19,3.02 L 28.30,0.66 L 27.83,0.66 L 26.94,3.02 L 26.94,0.00 L 26.49,0.00 L 26.49,3.44 Z M 31.97,3.13 Q 31.46,3.13 31.16,2.75 Q 30.86,2.37 30.86,1.72 Q 30.86,1.07 31.16,0.69 Q 31.46,0.31 31.97,0.31 Q 32.47,0.31 32.77,0.69 Q 33.07,1.07 33.07,1.72 Q 33.07,2.37 32.77,2.75 Q 32.47,3.13 31.97,3.13 Z M 31.97,3.51 Q 32.69,3.51 33.12,3.02 Q 33.56,2.53 33.56,1.72 Q 33.56,0.90 33.12,0.42 Q 32.69,-0.07 31.97,-0.07 Q 31.24,-0.07 30.80,0.42 Q 30.37,0.90 30.37,1.72 Q 30.37,2.53 30.80,3.02 Q 31.24,3.51 31.97,3.51 Z M 34.75,3.06 L 34.75,0.38 L 35.32,0.38 Q 36.03,0.38 36.36,0.71 Q 36.69,1.03 36.69,1.73 Q 36.69,2.42 36.36,2.74 Q 36.03,3.06 35.32,3.06 L 34.75,3.06 Z M 34.29,3.44 L 35.24,3.44 Q 36.25,3.44 36.71,3.03 Q 37.18,2.61 37.18,1.73 Q 37.18,0.83 36.71,0.42 Q 36.24,0.00 35.24,0.00 L 34.29,0.00 L 34.29,3.44 Z" fill="#7a4a42"/></g>
<g transform="translate(168.99,62.01) scale(1,-1)"><path d="M 3.32,4.37 L 3.32,3.78 Q 2.97,3.94 2.66,4.02 Q 2.35,4.11 2.06,4.11 Q 1.57,4.11 1.29,3.91 Q 1.02,3.72 1.02,3.36 Q 1.02,3.06 1.20,2.91 Q 1.38,2.76 1.89,2.66 L 2.26,2.59 Q 2.94,2.46 3.27,2.13 Q 3.59,1.80 3.59,1.25 Q 3.59,0.59 3.15,0.25 Q 2.71,-0.09 1.86,-0.09 Q 1.54,-0.09 1.18,-0.02 Q 0.81,0.06 0.43,0.20 L 0.43,0.83 Q 0.80,0.62 1.16,0.51 Q 1.51,0.41 1.86,0.41 Q 2.38,0.41 2.67,0.61 Q 2.95,0.82 2.95,1.20 Q 2.95,1.53 2.75,1.72 Q 2.54,1.91 2.08,2.00 L 1.70,2.08 Q 1.02,2.21 0.71,2.50 Q 0.41,2.79 0.41,3.31 Q 0.41,3.91 0.83,4.26 Q 1.25,4.60 1.99,4.60 Q 2.31,4.60 2.64,4.54 Q 2.97,4.49 3.32,4.37 Z M 3.92,4.52 L 4.58,4.52 L 5.83,2.66 L 7.08,4.52 L 7.74,4.52 L 6.14,2.15 L 6.14,0.00 L 5.52,0.00 L 5.52,2.15 L 3.92,4.52 Z M 8.33,4.52 L 9.16,4.52 L 11.16,0.74 L 11.16,4.52 L 11.75,4.52 L 11.75,0.00 L 10.93,0.00 L 8.93,3.78 L 8.93,0.00 L 8.33,0.00 L 8.33,4.52 Z M 16.36,4.17 L 16.36,3.53 Q 16.05,3.82 15.70,3.96 Q 15.35,4.10 14.95,4.10 Q 14.18,4.10 13.77,3.63 Q 13.36,3.15 13.36,2.26 Q 13.36,1.36 13.77,0.89 Q 14.18,0.41 14.95,0.41 Q 15.35,0.41 15.70,0.56 Q 16.05,0.70 16.36,0.99 L 16.36,0.35 Q 16.04,0.13 15.68,0.02 Q 15.32,-0.09 14.92,-0.09 Q 13.89,-0.09 13.30,0.54 Q 12.71,1.17 12.71,2.26 Q 12.71,3.35 13.30,3.97 Q 13.89,4.60 14.92,4.60 Q 15.32,4.60 15.68,4.49 Q 16.04,4.39 16.36,4.17 Z" fill="#c98c80"/></g>
<g transform="translate(160.45,73.23) scale(1,-1)"><path d="M 0.81,1.44 L 0.81,0.34 L 1.47,0.34 Q 1.80,0.34 1.95,0.47 Q 2.11,0.61 2.11,0.89 Q 2.11,1.17 1.95,1.30 Q 1.80,1.44 1.47,1.44 L 0.81,1.44 Z M 0.81,2.68 L 0.81,1.77 L 1.42,1.77 Q 1.72,1.77 1.86,1.88 Q 2.01,1.99 2.01,2.22 Q 2.01,2.45 1.86,2.57 Q 1.72,2.68 1.42,2.68 L 0.81,2.68 Z M 0.41,3.01 L 1.45,3.01 Q 1.91,3.01 2.17,2.82 Q 2.42,2.63 2.42,2.27 Q 2.42,1.99 2.29,1.83 Q 2.16,1.67 1.91,1.63 Q 2.21,1.56 2.38,1.36 Q 2.54,1.15 2.54,0.84 Q 2.54,0.44 2.27,0.22 Q 1.99,0.00 1.49,0.00 L 0.41,0.00 L 0.41,3.01 Z M 3.65,2.68 L 3.65,1.55 L 4.16,1.55 Q 4.45,1.55 4.60,1.69 Q 4.76,1.84 4.76,2.11 Q 4.76,2.38 4.60,2.53 Q 4.45,2.68 4.16,2.68 L 3.65,2.68 Z M 3.24,3.01 L 4.16,3.01 Q 4.67,3.01 4.93,2.78 Q 5.19,2.56 5.19,2.11 Q 5.19,1.67 4.93,1.44 Q 4.67,1.21 4.16,1.21 L 3.65,1.21 L 3.65,0.00 L 3.24,0.00 L 3.24,3.01 Z M 5.73,3.01 L 6.34,3.01 L 7.11,0.96 L 7.88,3.01 L 8.49,3.01 L 8.49,0.00 L 8.09,0.00 L 8.09,2.65 L 7.32,0.58 L 6.91,0.58 L 6.13,2.65 L 6.13,0.00 L 5.73,0.00 L 5.73,3.01 Z M 9.95,3.01 L 10.29,3.01 L 9.24,-0.38 L 8.90,-0.38 L 9.95,3.01 Z M 12.75,0.43 L 12.75,1.24 L 12.08,1.24 L 12.08,1.57 L 13.15,1.57 L 13.15,0.28 Q 12.92,0.11 12.63,0.03 Q 12.35,-0.06 12.02,-0.06 Q 11.32,-0.06 10.92,0.35 Q 10.52,0.77 10.52,1.50 Q 10.52,2.24 10.92,2.66 Q 11.32,3.07 12.02,3.07 Q 12.32,3.07 12.58,3.00 Q 12.85,2.92 13.07,2.78 L 13.07,2.35 Q 12.85,2.54 12.59,2.64 Q 12.34,2.73 12.06,2.73 Q 11.51,2.73 11.23,2.42 Q 10.95,2.12 10.95,1.50 Q 10.95,0.89 11.23,0.59 Q 11.51,0.28 12.06,0.28 Q 12.27,0.28 12.44,0.31 Q 12.61,0.35 12.75,0.43 Z M 13.90,3.01 L 15.80,3.01 L 15.80,2.67 L 14.30,2.67 L 14.30,1.78 L 15.74,1.78 L 15.74,1.44 L 14.30,1.44 L 14.30,0.34 L 15.84,0.34 L 15.84,0.00 L 13.90,0.00 L 13.90,3.01 Z M 17.52,2.61 L 16.96,1.11 L 18.07,1.11 L 17.52,2.61 Z M 17.29,3.01 L 17.75,3.01 L 18.90,0.00 L 18.47,0.00 L 18.20,0.77 L 16.84,0.77 L 16.57,0.00 L 16.14,0.00 L 17.29,3.01 Z M 20.77,1.41 Q 20.90,1.37 21.02,1.22 Q 21.15,1.08 21.27,0.82 L 21.68,0.00 L 21.25,0.00 L 20.86,0.77 Q 20.71,1.08 20.57,1.17 Q 20.43,1.27 20.19,1.27 L 19.74,1.27 L 19.74,0.00 L 19.34,0.00 L 19.34,3.01 L 20.26,3.01 Q 20.77,3.01 21.03,2.80 Q 21.28,2.58 21.28,2.15 Q 21.28,1.86 21.15,1.67 Q 21.02,1.49 20.77,1.41 Z M 19.74,2.68 L 19.74,1.61 L 20.26,1.61 Q 20.55,1.61 20.70,1.75 Q 20.85,1.88 20.85,2.15 Q 20.85,2.41 20.70,2.54 Q 20.55,2.68 20.26,2.68 L 19.74,2.68 Z M 22.85,3.01 L 23.20,3.01 L 22.15,-0.38 L 21.80,-0.38 L 22.85,3.01 Z M 25.66,0.43 L 25.66,1.24 L 24.99,1.24 L 24.99,1.57 L 26.06,1.57 L 26.06,0.28 Q 25.82,0.11 25.54,0.03 Q 25.26,-0.06 24.93,-0.06 Q 24.23,-0.06 23.83,0.35 Q 23.43,0.77 23.43,1.50 Q 23.43,2.24 23.83,2.66 Q 24.23,3.07 24.93,3.07 Q 25.23,3.07 25.49,3.00 Q 25.76,2.92 25.98,2.78 L 25.98,2.35 Q 25.76,2.54 25.50,2.64 Q 25.25,2.73 24.97,2.73 Q 24.41,2.73 24.14,2.42 Q 23.86,2.12 23.86,1.50 Q 23.86,0.89 24.14,0.59 Q 24.41,0.28 24.97,0.28 Q 25.18,0.28 25.35,0.31 Q 25.52,0.35 25.66,0.43 Z M 28.23,1.41 Q 28.37,1.37 28.49,1.22 Q 28.61,1.08 28.74,0.82 L 29.15,0.00 L 28.71,0.00 L 28.33,0.77 Q 28.18,1.08 28.04,1.17 Q 27.90,1.27 27.66,1.27 L 27.21,1.27 L 27.21,0.00 L 26.81,0.00 L 26.81,3.01 L 27.73,3.01 Q 28.24,3.01 28.50,2.80 Q 28.75,2.58 28.75,2.15 Q 28.75,1.86 28.62,1.67 Q 28.49,1.49 28.23,1.41 Z M 27.21,2.68 L 27.21,1.61 L 27.73,1.61 Q 28.02,1.61 28.17,1.75 Q 28.32,1.88 28.32,2.15 Q 28.32,2.41 28.17,2.54 Q 28.02,2.68 27.73,2.68 L 27.21,2.68 Z M 29.68,3.01 L 30.09,3.01 L 30.09,0.00 L 29.68,0.00 L 29.68,3.01 Z M 31.30,2.68 L 31.30,0.34 L 31.80,0.34 Q 32.42,0.34 32.71,0.62 Q 33.00,0.90 33.00,1.51 Q 33.00,2.12 32.71,2.40 Q 32.42,2.68 31.80,2.68 L 31.30,2.68 Z M 30.90,3.01 L 31.73,3.01 Q 32.61,3.01 33.02,2.65 Q 33.43,2.29 33.43,1.51 Q 33.43,0.73 33.02,0.36 Q 32.61,0.00 31.73,0.00 L 30.90,0.00 L 30.90,3.01 Z" fill="#7a4a42"/></g>
<g transform="translate(230.34,62.01) scale(1,-1)"><path d="M 2.44,4.11 Q 1.78,4.11 1.38,3.61 Q 0.99,3.11 0.99,2.26 Q 0.99,1.40 1.38,0.90 Q 1.78,0.41 2.44,0.41 Q 3.11,0.41 3.50,0.90 Q 3.89,1.40 3.89,2.26 Q 3.89,3.11 3.50,3.61 Q 3.11,4.11 2.44,4.11 Z M 2.44,4.60 Q 3.39,4.60 3.96,3.96 Q 4.53,3.33 4.53,2.26 Q 4.53,1.19 3.96,0.55 Q 3.39,-0.09 2.44,-0.09 Q 1.49,-0.09 0.92,0.55 Q 0.35,1.18 0.35,2.26 Q 0.35,3.33 0.92,3.96 Q 1.49,4.60 2.44,4.60 Z M 5.49,4.52 L 8.09,4.52 L 8.09,4.01 L 6.10,4.01 L 6.10,2.67 L 7.89,2.67 L 7.89,2.16 L 6.10,2.16 L 6.10,0.00 L 5.49,0.00 L 5.49,4.52 Z M 9.06,4.52 L 11.65,4.52 L 11.65,4.01 L 9.67,4.01 L 9.67,2.67 L 11.46,2.67 L 11.46,2.16 L 9.67,2.16 L 9.67,0.00 L 9.06,0.00 L 9.06,4.52 Z M 15.22,4.37 L 15.22,3.78 Q 14.88,3.94 14.57,4.02 Q 14.26,4.11 13.97,4.11 Q 13.47,4.11 13.20,3.91 Q 12.93,3.72 12.93,3.36 Q 12.93,3.06 13.11,2.91 Q 13.29,2.76 13.79,2.66 L 14.16,2.59 Q 14.85,2.46 15.17,2.13 Q 15.50,1.80 15.50,1.25 Q 15.50,0.59 15.06,0.25 Q 14.62,-0.09 13.76,-0.09 Q 13.44,-0.09 13.08,-0.02 Q 12.72,0.06 12.33,0.20 L 12.33,0.83 Q 12.70,0.62 13.06,0.51 Q 13.42,0.41 13.76,0.41 Q 14.29,0.41 14.57,0.61 Q 14.86,0.82 14.86,1.20 Q 14.86,1.53 14.65,1.72 Q 14.45,1.91 13.98,2.00 L 13.61,2.08 Q 12.93,2.21 12.62,2.50 Q 12.31,2.79 12.31,3.31 Q 12.31,3.91 12.74,4.26 Q 13.16,4.60 13.90,4.60 Q 14.22,4.60 14.55,4.54 Q 14.88,4.49 15.22,4.37 Z M 16.45,4.52 L 19.31,4.52 L 19.31,4.01 L 17.06,4.01 L 17.06,2.67 L 19.21,2.67 L 19.21,2.15 L 17.06,2.15 L 17.06,0.51 L 19.36,0.51 L 19.36,0.00 L 16.45,0.00 L 16.45,4.52 Z M 19.74,4.52 L 23.57,4.52 L 23.57,4.01 L 21.96,4.01 L 21.96,0.00 L 21.35,0.00 L 21.35,4.01 L 19.74,4.01 L 19.74,4.52 Z" fill="#c98c80"/></g>
<g transform="translate(223.30,73.23) scale(1,-1)"><path d="M 2.21,2.92 L 2.21,2.52 Q 1.98,2.63 1.77,2.68 Q 1.57,2.74 1.38,2.74 Q 1.04,2.74 0.86,2.61 Q 0.68,2.48 0.68,2.24 Q 0.68,2.04 0.80,1.94 Q 0.92,1.84 1.26,1.77 L 1.50,1.72 Q 1.96,1.64 2.18,1.42 Q 2.39,1.20 2.39,0.83 Q 2.39,0.39 2.10,0.17 Q 1.81,-0.06 1.24,-0.06 Q 1.03,-0.06 0.78,-0.01 Q 0.54,0.04 0.28,0.13 L 0.28,0.55 Q 0.53,0.41 0.77,0.34 Q 1.01,0.27 1.24,0.27 Q 1.59,0.27 1.78,0.41 Q 1.97,0.55 1.97,0.80 Q 1.97,1.02 1.83,1.15 Q 1.70,1.27 1.38,1.34 L 1.14,1.38 Q 0.68,1.48 0.48,1.67 Q 0.27,1.86 0.27,2.21 Q 0.27,2.61 0.55,2.84 Q 0.84,3.07 1.33,3.07 Q 1.54,3.07 1.76,3.03 Q 1.98,2.99 2.21,2.92 Z M 3.03,3.01 L 3.44,3.01 L 3.44,1.78 L 4.92,1.78 L 4.92,3.01 L 5.33,3.01 L 5.33,0.00 L 4.92,0.00 L 4.92,1.44 L 3.44,1.44 L 3.44,0.00 L 3.03,0.00 L 3.03,3.01 Z M 6.14,3.01 L 6.55,3.01 L 6.55,0.00 L 6.14,0.00 L 6.14,3.01 Z M 7.36,3.01 L 9.09,3.01 L 9.09,2.67 L 7.76,2.67 L 7.76,1.78 L 8.96,1.78 L 8.96,1.44 L 7.76,1.44 L 7.76,0.00 L 7.36,0.00 L 7.36,3.01 Z M 9.24,3.01 L 11.79,3.01 L 11.79,2.67 L 10.72,2.67 L 10.72,0.00 L 10.32,0.00 L 10.32,2.67 L 9.24,2.67 L 9.24,3.01 Z M 12.83,3.01 L 13.17,3.01 L 12.13,-0.38 L 11.78,-0.38 L 12.83,3.01 Z M 13.44,3.01 L 13.87,3.01 L 14.62,1.89 L 15.37,3.01 L 15.81,3.01 L 14.84,1.57 L 15.88,0.00 L 15.44,0.00 L 14.59,1.28 L 13.74,0.00 L 13.30,0.00 L 14.37,1.61 L 13.44,3.01 Z M 16.82,2.68 L 16.82,1.55 L 17.33,1.55 Q 17.62,1.55 17.77,1.69 Q 17.93,1.84 17.93,2.11 Q 17.93,2.38 17.77,2.53 Q 17.62,2.68 17.33,2.68 L 16.82,2.68 Z M 16.41,3.01 L 17.33,3.01 Q 17.84,3.01 18.10,2.78 Q 18.36,2.56 18.36,2.11 Q 18.36,1.67 18.10,1.44 Q 17.84,1.21 17.33,1.21 L 16.82,1.21 L 16.82,0.00 L 16.41,0.00 L 16.41,3.01 Z M 20.13,2.74 Q 19.68,2.74 19.42,2.41 Q 19.16,2.08 19.16,1.50 Q 19.16,0.93 19.42,0.60 Q 19.68,0.27 20.13,0.27 Q 20.57,0.27 20.83,0.60 Q 21.09,0.93 21.09,1.50 Q 21.09,2.08 20.83,2.41 Q 20.57,2.74 20.13,2.74 Z M 20.13,3.07 Q 20.76,3.07 21.14,2.64 Q 21.52,2.22 21.52,1.50 Q 21.52,0.79 21.14,0.37 Q 20.76,-0.06 20.13,-0.06 Q 19.49,-0.06 19.11,0.36 Q 18.73,0.79 18.73,1.50 Q 18.73,2.22 19.11,2.64 Q 19.49,3.07 20.13,3.07 Z M 23.97,2.92 L 23.97,2.52 Q 23.73,2.63 23.53,2.68 Q 23.32,2.74 23.13,2.74 Q 22.80,2.74 22.62,2.61 Q 22.44,2.48 22.44,2.24 Q 22.44,2.04 22.56,1.94 Q 22.68,1.84 23.01,1.77 L 23.26,1.72 Q 23.71,1.64 23.93,1.42 Q 24.15,1.20 24.15,0.83 Q 24.15,0.39 23.85,0.17 Q 23.56,-0.06 22.99,-0.06 Q 22.78,-0.06 22.54,-0.01 Q 22.30,0.04 22.04,0.13 L 22.04,0.55 Q 22.29,0.41 22.52,0.34 Q 22.76,0.27 22.99,0.27 Q 23.34,0.27 23.53,0.41 Q 23.72,0.55 23.72,0.80 Q 23.72,1.02 23.59,1.15 Q 23.45,1.27 23.14,1.34 L 22.89,1.38 Q 22.43,1.48 22.23,1.67 Q 22.03,1.86 22.03,2.21 Q 22.03,2.61 22.31,2.84 Q 22.59,3.07 23.08,3.07 Q 23.30,3.07 23.52,3.03 Q 23.74,2.99 23.97,2.92 Z M 24.78,3.01 L 26.69,3.01 L 26.69,2.67 L 25.19,2.67 L 25.19,1.78 L 26.63,1.78 L 26.63,1.44 L 25.19,1.44 L 25.19,0.34 L 26.72,0.34 L 26.72,0.00 L 24.78,0.00 L 24.78,3.01 Z M 28.04,3.01 L 28.38,3.01 L 27.33,-0.38 L 26.99,-0.38 L 28.04,3.01 Z M 29.20,1.44 L 29.20,0.34 L 29.85,0.34 Q 30.18,0.34 30.34,0.47 Q 30.50,0.61 30.50,0.89 Q 30.50,1.17 30.34,1.30 Q 30.18,1.44 29.85,1.44 L 29.20,1.44 Z M 29.20,2.68 L 29.20,1.77 L 29.80,1.77 Q 30.10,1.77 30.24,1.88 Q 30.39,1.99 30.39,2.22 Q 30.39,2.45 30.24,2.57 Q 30.10,2.68 29.80,2.68 L 29.20,2.68 Z M 28.79,3.01 L 29.83,3.01 Q 30.30,3.01 30.55,2.82 Q 30.80,2.63 30.80,2.27 Q 30.80,1.99 30.67,1.83 Q 30.54,1.67 30.29,1.63 Q 30.59,1.56 30.76,1.36 Q 30.93,1.15 30.93,0.84 Q 30.93,0.44 30.65,0.22 Q 30.38,0.00 29.87,0.00 L 28.79,0.00 L 28.79,3.01 Z M 31.62,3.01 L 32.03,3.01 L 32.03,0.00 L 31.62,0.00 L 31.62,3.01 Z M 33.85,2.61 L 33.30,1.11 L 34.41,1.11 L 33.85,2.61 Z M 33.62,3.01 L 34.08,3.01 L 35.23,0.00 L 34.81,0.00 L 34.53,0.77 L 33.17,0.77 L 32.90,0.00 L 32.47,0.00 L 33.62,3.01 Z M 37.48,2.92 L 37.48,2.52 Q 37.25,2.63 37.04,2.68 Q 36.83,2.74 36.64,2.74 Q 36.31,2.74 36.13,2.61 Q 35.95,2.48 35.95,2.24 Q 35.95,2.04 36.07,1.94 Q 36.19,1.84 36.52,1.77 L 36.77,1.72 Q 37.22,1.64 37.44,1.42 Q 37.66,1.20 37.66,0.83 Q 37.66,0.39 37.37,0.17 Q 37.07,-0.06 36.50,-0.06 Q 36.29,-0.06 36.05,-0.01 Q 35.81,0.04 35.55,0.13 L 35.55,0.55 Q 35.80,0.41 36.04,0.34 Q 36.27,0.27 36.50,0.27 Q 36.85,0.27 37.04,0.41 Q 37.23,0.55 37.23,0.80 Q 37.23,1.02 37.10,1.15 Q 36.96,1.27 36.65,1.34 L 36.40,1.38 Q 35.95,1.48 35.74,1.67 Q 35.54,1.86 35.54,2.21 Q 35.54,2.61 35.82,2.84 Q 36.10,3.07 36.60,3.07 Q 36.81,3.07 37.03,3.03 Q 37.25,2.99 37.48,2.92 Z" fill="#7a4a42"/></g>
<g transform="translate(294.11,62.01) scale(1,-1)"><path d="M 2.75,2.12 Q 2.95,2.05 3.14,1.84 Q 3.32,1.62 3.51,1.24 L 4.13,0.00 L 3.47,0.00 L 2.89,1.16 Q 2.67,1.61 2.46,1.76 Q 2.25,1.91 1.89,1.91 L 1.22,1.91 L 1.22,0.00 L 0.61,0.00 L 0.61,4.52 L 1.99,4.52 Q 2.76,4.52 3.15,4.20 Q 3.53,3.87 3.53,3.22 Q 3.53,2.79 3.33,2.51 Q 3.13,2.23 2.75,2.12 Z M 1.22,4.02 L 1.22,2.41 L 1.99,2.41 Q 2.43,2.41 2.66,2.62 Q 2.88,2.82 2.88,3.22 Q 2.88,3.61 2.66,3.82 Q 2.43,4.02 1.99,4.02 L 1.22,4.02 Z M 4.92,4.52 L 5.53,4.52 L 5.53,2.67 L 7.75,2.67 L 7.75,4.52 L 8.36,4.52 L 8.36,0.00 L 7.75,0.00 L 7.75,2.15 L 5.53,2.15 L 5.53,0.00 L 4.92,0.00 L 4.92,4.52 Z M 8.96,4.52 L 9.62,4.52 L 10.87,2.66 L 12.11,4.52 L 12.77,4.52 L 11.17,2.15 L 11.17,0.00 L 10.56,0.00 L 10.56,2.15 L 8.96,4.52 Z M 12.74,4.52 L 16.56,4.52 L 16.56,4.01 L 14.96,4.01 L 14.96,0.00 L 14.35,0.00 L 14.35,4.01 L 12.74,4.01 L 12.74,4.52 Z M 17.15,4.52 L 17.77,4.52 L 17.77,2.67 L 19.99,2.67 L 19.99,4.52 L 20.60,4.52 L 20.60,0.00 L 19.99,0.00 L 19.99,2.15 L 17.77,2.15 L 17.77,0.00 L 17.15,0.00 L 17.15,4.52 Z M 21.82,4.52 L 22.73,4.52 L 23.88,1.44 L 25.04,4.52 L 25.95,4.52 L 25.95,0.00 L 25.36,0.00 L 25.36,3.97 L 24.19,0.87 L 23.58,0.87 L 22.41,3.97 L 22.41,0.00 L 21.82,0.00 L 21.82,4.52 Z" fill="#c98c80"/></g>
<g transform="translate(290.68,73.23) scale(1,-1)"><path d="M 0.81,2.68 L 0.81,1.55 L 1.33,1.55 Q 1.61,1.55 1.77,1.69 Q 1.92,1.84 1.92,2.11 Q 1.92,2.38 1.77,2.53 Q 1.61,2.68 1.33,2.68 L 0.81,2.68 Z M 0.41,3.01 L 1.33,3.01 Q 1.83,3.01 2.09,2.78 Q 2.35,2.56 2.35,2.11 Q 2.35,1.67 2.09,1.44 Q 1.83,1.21 1.33,1.21 L 0.81,1.21 L 0.81,0.00 L 0.41,0.00 L 0.41,3.01 Z M 4.12,2.74 Q 3.68,2.74 3.42,2.41 Q 3.15,2.08 3.15,1.50 Q 3.15,0.93 3.42,0.60 Q 3.68,0.27 4.12,0.27 Q 4.57,0.27 4.83,0.60 Q 5.08,0.93 5.08,1.50 Q 5.08,2.08 4.83,2.41 Q 4.57,2.74 4.12,2.74 Z M 4.12,3.07 Q 4.76,3.07 5.13,2.64 Q 5.51,2.22 5.51,1.50 Q 5.51,0.79 5.13,0.37 Q 4.76,-0.06 4.12,-0.06 Q 3.49,-0.06 3.11,0.36 Q 2.72,0.79 2.72,1.50 Q 2.72,2.22 3.11,2.64 Q 3.49,3.07 4.12,3.07 Z M 6.15,3.01 L 6.56,3.01 L 6.56,0.34 L 8.03,0.34 L 8.03,0.00 L 6.15,0.00 L 6.15,3.01 Z M 7.49,3.01 L 7.93,3.01 L 8.77,1.77 L 9.60,3.01 L 10.04,3.01 L 8.97,1.44 L 8.97,0.00 L 8.56,0.00 L 8.56,1.44 L 7.49,3.01 Z M 11.08,3.01 L 11.42,3.01 L 10.37,-0.38 L 10.03,-0.38 L 11.08,3.01 Z M 12.23,2.68 L 12.23,1.55 L 12.75,1.55 Q 13.03,1.55 13.19,1.69 Q 13.34,1.84 13.34,2.11 Q 13.34,2.38 13.19,2.53 Q 13.03,2.68 12.75,2.68 L 12.23,2.68 Z M 11.83,3.01 L 12.75,3.01 Q 13.25,3.01 13.51,2.78 Q 13.77,2.56 13.77,2.11 Q 13.77,1.67 13.51,1.44 Q 13.25,1.21 12.75,1.21 L 12.23,1.21 L 12.23,0.00 L 11.83,0.00 L 11.83,3.01 Z M 15.75,1.41 Q 15.88,1.37 16.00,1.22 Q 16.13,1.08 16.25,0.82 L 16.67,0.00 L 16.23,0.00 L 15.84,0.77 Q 15.69,1.08 15.55,1.17 Q 15.41,1.27 15.17,1.27 L 14.73,1.27 L 14.73,0.00 L 14.32,0.00 L 14.32,3.01 L 15.24,3.01 Q 15.76,3.01 16.01,2.80 Q 16.26,2.58 16.26,2.15 Q 16.26,1.86 16.13,1.67 Q 16.00,1.49 15.75,1.41 Z M 14.73,2.68 L 14.73,1.61 L 15.24,1.61 Q 15.53,1.61 15.68,1.75 Q 15.83,1.88 15.83,2.15 Q 15.83,2.41 15.68,2.54 Q 15.53,2.68 15.24,2.68 L 14.73,2.68 Z M 18.41,2.74 Q 17.97,2.74 17.71,2.41 Q 17.45,2.08 17.45,1.50 Q 17.45,0.93 17.71,0.60 Q 17.97,0.27 18.41,0.27 Q 18.86,0.27 19.12,0.60 Q 19.38,0.93 19.38,1.50 Q 19.38,2.08 19.12,2.41 Q 18.86,2.74 18.41,2.74 Z M 18.41,3.07 Q 19.05,3.07 19.43,2.64 Q 19.81,2.22 19.81,1.50 Q 19.81,0.79 19.43,0.37 Q 19.05,-0.06 18.41,-0.06 Q 17.78,-0.06 17.40,0.36 Q 17.02,0.79 17.02,1.50 Q 17.02,2.22 17.40,2.64 Q 17.78,3.07 18.41,3.07 Z M 20.85,1.44 L 20.85,0.34 L 21.51,0.34 Q 21.84,0.34 21.99,0.47 Q 22.15,0.61 22.15,0.89 Q 22.15,1.17 21.99,1.30 Q 21.84,1.44 21.51,1.44 L 20.85,1.44 Z M 20.85,2.68 L 20.85,1.77 L 21.46,1.77 Q 21.75,1.77 21.90,1.88 Q 22.05,1.99 22.05,2.22 Q 22.05,2.45 21.90,2.57 Q 21.75,2.68 21.46,2.68 L 20.85,2.68 Z M 20.44,3.01 L 21.49,3.01 Q 21.95,3.01 22.20,2.82 Q 22.46,2.63 22.46,2.27 Q 22.46,1.99 22.33,1.83 Q 22.20,1.67 21.95,1.63 Q 22.25,1.56 22.42,1.36 Q 22.58,1.15 22.58,0.84 Q 22.58,0.44 22.31,0.22 Q 22.03,0.00 21.53,0.00 L 20.44,0.00 L 20.44,3.01 Z M 23.92,3.01 L 24.27,3.01 L 23.22,-0.38 L 22.87,-0.38 L 23.92,3.01 Z M 26.48,2.92 L 26.48,2.52 Q 26.25,2.63 26.04,2.68 Q 25.84,2.74 25.64,2.74 Q 25.31,2.74 25.13,2.61 Q 24.95,2.48 24.95,2.24 Q 24.95,2.04 25.07,1.94 Q 25.19,1.84 25.53,1.77 L 25.77,1.72 Q 26.23,1.64 26.44,1.42 Q 26.66,1.20 26.66,0.83 Q 26.66,0.39 26.37,0.17 Q 26.07,-0.06 25.51,-0.06 Q 25.29,-0.06 25.05,-0.01 Q 24.81,0.04 24.55,0.13 L 24.55,0.55 Q 24.80,0.41 25.04,0.34 Q 25.28,0.27 25.51,0.27 Q 25.86,0.27 26.05,0.41 Q 26.24,0.55 26.24,0.80 Q 26.24,1.02 26.10,1.15 Q 25.96,1.27 25.65,1.34 L 25.40,1.38 Q 24.95,1.48 24.74,1.67 Q 24.54,1.86 24.54,2.21 Q 24.54,2.61 24.82,2.84 Q 25.10,3.07 25.60,3.07 Q 25.81,3.07 26.03,3.03 Q 26.25,2.99 26.48,2.92 Z M 27.90,1.62 Q 27.71,1.46 27.63,1.29 Q 27.54,1.13 27.54,0.95 Q 27.54,0.66 27.76,0.46 Q 27.97,0.27 28.29,0.27 Q 28.48,0.27 28.65,0.33 Q 28.82,0.40 28.97,0.53 L 27.90,1.62 Z M 28.18,1.85 L 29.21,0.80 Q 29.33,0.98 29.39,1.18 Q 29.46,1.39 29.47,1.62 L 29.85,1.62 Q 29.82,1.35 29.72,1.09 Q 29.61,0.83 29.42,0.58 L 29.99,0.00 L 29.48,0.00 L 29.19,0.30 Q 28.98,0.12 28.75,0.03 Q 28.52,-0.06 28.26,-0.06 Q 27.77,-0.06 27.46,0.22 Q 27.15,0.50 27.15,0.93 Q 27.15,1.19 27.29,1.42 Q 27.42,1.64 27.69,1.84 Q 27.60,1.97 27.55,2.10 Q 27.49,2.22 27.49,2.34 Q 27.49,2.67 27.72,2.87 Q 27.94,3.07 28.31,3.07 Q 28.48,3.07 28.65,3.03 Q 28.82,3.00 28.99,2.92 L 28.99,2.56 Q 28.81,2.65 28.65,2.70 Q 28.49,2.75 28.36,2.75 Q 28.14,2.75 28.01,2.64 Q 27.88,2.52 27.88,2.35 Q 27.88,2.24 27.94,2.14 Q 28.00,2.04 28.18,1.85 Z M 30.52,3.01 L 30.93,3.01 L 30.93,1.78 L 32.41,1.78 L 32.41,3.01 L 32.82,3.01 L 32.82,0.00 L 32.41,0.00 L 32.41,1.44 L 30.93,1.44 L 30.93,0.00 L 30.52,0.00 L 30.52,3.01 Z" fill="#7a4a42"/></g>
<line x1="147.6" y1="53.1" x2="147.6" y2="112.2" stroke="#5a2424" stroke-width="0.6"/>
<g transform="translate(38.75,129.92) scale(1,-1)"><path d="M 0.97,1.07 L 2.34,1.07 L 2.34,4.97 L 0.93,4.68 L 0.93,5.74 L 2.33,6.03 L 3.81,6.03 L 3.81,1.07 L 5.18,1.07 L 5.18,0.00 L 0.97,0.00 L 0.97,1.07 Z" fill="#7a4a42"/></g>
<g transform="translate(86.07,129.92) scale(1,-1)"><path d="M 2.38,1.14 L 5.03,1.14 L 5.03,0.00 L 0.65,0.00 L 0.65,1.14 L 2.85,3.08 Q 3.15,3.35 3.29,3.61 Q 3.43,3.86 3.43,4.13 Q 3.43,4.56 3.15,4.82 Q 2.86,5.07 2.39,5.07 Q 2.03,5.07 1.59,4.92 Q 1.16,4.76 0.67,4.46 L 0.67,5.78 Q 1.19,5.95 1.71,6.04 Q 2.22,6.14 2.71,6.14 Q 3.80,6.14 4.39,5.66 Q 4.99,5.18 4.99,4.33 Q 4.99,3.84 4.74,3.41 Q 4.49,2.99 3.67,2.27 L 2.38,1.14 Z" fill="#7a4a42"/></g>
<g transform="translate(133.28,129.92) scale(1,-1)"><path d="M 3.85,3.25 Q 4.46,3.09 4.78,2.70 Q 5.09,2.31 5.09,1.71 Q 5.09,0.82 4.41,0.35 Q 3.72,-0.12 2.41,-0.12 Q 1.94,-0.12 1.48,-0.04 Q 1.01,0.03 0.55,0.18 L 0.55,1.38 Q 0.99,1.16 1.42,1.05 Q 1.85,0.94 2.26,0.94 Q 2.88,0.94 3.21,1.15 Q 3.54,1.37 3.54,1.77 Q 3.54,2.18 3.20,2.39 Q 2.87,2.60 2.21,2.60 L 1.59,2.60 L 1.59,3.61 L 2.24,3.61 Q 2.83,3.61 3.11,3.79 Q 3.40,3.97 3.40,4.35 Q 3.40,4.69 3.12,4.88 Q 2.84,5.07 2.33,5.07 Q 1.96,5.07 1.57,4.99 Q 1.19,4.91 0.81,4.74 L 0.81,5.88 Q 1.27,6.01 1.72,6.07 Q 2.18,6.14 2.61,6.14 Q 3.79,6.14 4.37,5.75 Q 4.95,5.36 4.95,4.59 Q 4.95,4.06 4.67,3.72 Q 4.40,3.39 3.85,3.25 Z" fill="#7a4a42"/></g>
<g transform="translate(180.38,129.92) scale(1,-1)"><path d="M 3.04,4.75 L 1.34,2.22 L 3.04,2.22 L 3.04,4.75 Z M 2.79,6.03 L 4.51,6.03 L 4.51,2.22 L 5.37,2.22 L 5.37,1.10 L 4.51,1.10 L 4.51,0.00 L 3.04,0.00 L 3.04,1.10 L 0.37,1.10 L 0.37,2.43 L 2.79,6.03 Z" fill="#7a4a42"/></g>
<g transform="translate(227.73,129.92) scale(1,-1)"><path d="M 0.88,6.03 L 4.74,6.03 L 4.74,4.88 L 2.12,4.88 L 2.12,3.95 Q 2.29,4.00 2.47,4.03 Q 2.65,4.05 2.85,4.05 Q 3.95,4.05 4.56,3.50 Q 5.18,2.95 5.18,1.97 Q 5.18,0.99 4.51,0.44 Q 3.84,-0.12 2.65,-0.12 Q 2.14,-0.12 1.64,-0.02 Q 1.13,0.08 0.64,0.28 L 0.64,1.51 Q 1.13,1.22 1.57,1.08 Q 2.01,0.94 2.41,0.94 Q 2.97,0.94 3.30,1.22 Q 3.62,1.49 3.62,1.97 Q 3.62,2.44 3.30,2.72 Q 2.97,2.99 2.41,2.99 Q 2.07,2.99 1.69,2.90 Q 1.31,2.82 0.88,2.64 L 0.88,6.03 Z" fill="#7a4a42"/></g>
<g transform="translate(274.90,129.92) scale(1,-1)"><path d="M 2.99,2.98 Q 2.58,2.98 2.38,2.71 Q 2.18,2.45 2.18,1.92 Q 2.18,1.39 2.38,1.12 Q 2.58,0.86 2.99,0.86 Q 3.40,0.86 3.61,1.12 Q 3.81,1.39 3.81,1.92 Q 3.81,2.45 3.61,2.71 Q 3.40,2.98 2.99,2.98 Z M 4.91,5.87 L 4.91,4.76 Q 4.53,4.94 4.19,5.02 Q 3.85,5.11 3.53,5.11 Q 2.83,5.11 2.45,4.72 Q 2.06,4.34 1.99,3.58 Q 2.26,3.78 2.57,3.88 Q 2.88,3.98 3.25,3.98 Q 4.17,3.98 4.74,3.43 Q 5.31,2.89 5.31,2.02 Q 5.31,1.05 4.67,0.47 Q 4.04,-0.12 2.98,-0.12 Q 1.80,-0.12 1.16,0.68 Q 0.51,1.47 0.51,2.93 Q 0.51,4.42 1.27,5.27 Q 2.02,6.13 3.33,6.13 Q 3.75,6.13 4.14,6.06 Q 4.53,6.00 4.91,5.87 Z" fill="#7a4a42"/></g>
<g transform="translate(322.26,129.92) scale(1,-1)"><path d="M 0.55,6.03 L 5.09,6.03 L 5.09,5.15 L 2.75,0.00 L 1.23,0.00 L 3.46,4.88 L 0.55,4.88 L 0.55,6.03 Z" fill="#7a4a42"/></g>
<g transform="translate(369.43,129.92) scale(1,-1)"><path d="M 2.88,2.70 Q 2.44,2.70 2.21,2.46 Q 1.97,2.22 1.97,1.78 Q 1.97,1.33 2.21,1.10 Q 2.44,0.86 2.88,0.86 Q 3.31,0.86 3.54,1.10 Q 3.77,1.33 3.77,1.78 Q 3.77,2.22 3.54,2.46 Q 3.31,2.70 2.88,2.70 Z M 1.74,3.21 Q 1.19,3.38 0.92,3.72 Q 0.64,4.06 0.64,4.57 Q 0.64,5.34 1.21,5.74 Q 1.78,6.14 2.88,6.14 Q 3.97,6.14 4.54,5.74 Q 5.11,5.34 5.11,4.57 Q 5.11,4.06 4.83,3.72 Q 4.55,3.38 4.00,3.21 Q 4.61,3.04 4.93,2.66 Q 5.24,2.28 5.24,1.70 Q 5.24,0.80 4.64,0.34 Q 4.05,-0.12 2.88,-0.12 Q 1.70,-0.12 1.10,0.34 Q 0.51,0.80 0.51,1.70 Q 0.51,2.28 0.82,2.66 Q 1.13,3.04 1.74,3.21 Z M 2.11,4.42 Q 2.11,4.06 2.31,3.86 Q 2.51,3.67 2.88,3.67 Q 3.24,3.67 3.44,3.86 Q 3.64,4.06 3.64,4.42 Q 3.64,4.78 3.44,4.97 Q 3.24,5.16 2.88,5.16 Q 2.51,5.16 2.31,4.97 Q 2.11,4.77 2.11,4.42 Z" fill="#7a4a42"/></g>
<g transform="translate(32.26,366.14) scale(1,-1)"><path d="M 3.61,3.77 L 3.61,3.19 Q 3.33,3.45 3.02,3.58 Q 2.70,3.71 2.34,3.71 Q 1.64,3.71 1.27,3.28 Q 0.90,2.85 0.90,2.04 Q 0.90,1.23 1.27,0.80 Q 1.64,0.38 2.34,0.38 Q 2.70,0.38 3.02,0.50 Q 3.33,0.63 3.61,0.89 L 3.61,0.31 Q 3.32,0.12 3.00,0.02 Q 2.67,-0.08 2.31,-0.08 Q 1.38,-0.08 0.85,0.49 Q 0.31,1.06 0.31,2.04 Q 0.31,3.03 0.85,3.59 Q 1.38,4.16 2.31,4.16 Q 2.68,4.16 3.00,4.07 Q 3.33,3.97 3.61,3.77 Z M 4.47,4.09 L 5.02,4.09 L 5.02,0.47 L 7.01,0.47 L 7.01,0.00 L 4.47,0.00 L 4.47,4.09 Z M 7.59,4.09 L 10.18,4.09 L 10.18,3.62 L 8.15,3.62 L 8.15,2.41 L 10.09,2.41 L 10.09,1.95 L 8.15,1.95 L 8.15,0.47 L 10.23,0.47 L 10.23,0.00 L 7.59,0.00 L 7.59,4.09 Z M 12.51,3.54 L 11.75,1.51 L 13.26,1.51 L 12.51,3.54 Z M 12.19,4.09 L 12.82,4.09 L 14.38,0.00 L 13.80,0.00 L 13.43,1.05 L 11.59,1.05 L 11.22,0.00 L 10.63,0.00 L 12.19,4.09 Z M 16.92,1.92 Q 17.09,1.86 17.26,1.66 Q 17.43,1.46 17.60,1.12 L 18.16,0.00 L 17.57,0.00 L 17.04,1.05 Q 16.84,1.46 16.65,1.59 Q 16.46,1.73 16.13,1.73 L 15.53,1.73 L 15.53,0.00 L 14.98,0.00 L 14.98,4.09 L 16.23,4.09 Q 16.93,4.09 17.27,3.80 Q 17.62,3.50 17.62,2.91 Q 17.62,2.53 17.44,2.27 Q 17.26,2.02 16.92,1.92 Z M 15.53,3.64 L 15.53,2.18 L 16.23,2.18 Q 16.62,2.18 16.83,2.37 Q 17.03,2.55 17.03,2.91 Q 17.03,3.27 16.83,3.45 Q 16.62,3.64 16.23,3.64 L 15.53,3.64 Z" fill="#9a6258"/></g>
<g transform="translate(76.42,366.14) scale(1,-1)"><path d="M 3.00,3.96 L 3.00,3.42 Q 2.69,3.57 2.41,3.64 Q 2.13,3.72 1.87,3.72 Q 1.42,3.72 1.17,3.54 Q 0.93,3.36 0.93,3.04 Q 0.93,2.77 1.09,2.63 Q 1.25,2.49 1.71,2.41 L 2.04,2.34 Q 2.66,2.22 2.95,1.92 Q 3.25,1.63 3.25,1.13 Q 3.25,0.53 2.85,0.23 Q 2.45,-0.08 1.68,-0.08 Q 1.39,-0.08 1.06,-0.01 Q 0.74,0.05 0.39,0.18 L 0.39,0.75 Q 0.72,0.56 1.05,0.47 Q 1.37,0.37 1.68,0.37 Q 2.16,0.37 2.41,0.56 Q 2.67,0.74 2.67,1.09 Q 2.67,1.39 2.49,1.56 Q 2.30,1.73 1.88,1.81 L 1.54,1.88 Q 0.92,2.00 0.65,2.27 Q 0.37,2.53 0.37,3.00 Q 0.37,3.54 0.75,3.85 Q 1.13,4.16 1.80,4.16 Q 2.09,4.16 2.39,4.11 Q 2.69,4.06 3.00,3.96 Z M 4.11,4.09 L 4.94,4.09 L 5.98,1.31 L 7.03,4.09 L 7.85,4.09 L 7.85,0.00 L 7.31,0.00 L 7.31,3.59 L 6.26,0.79 L 5.70,0.79 L 4.65,3.59 L 4.65,0.00 L 4.11,0.00 L 4.11,4.09 Z M 10.61,3.72 Q 10.01,3.72 9.65,3.27 Q 9.30,2.82 9.30,2.04 Q 9.30,1.27 9.65,0.82 Q 10.01,0.37 10.61,0.37 Q 11.21,0.37 11.57,0.82 Q 11.92,1.27 11.92,2.04 Q 11.92,2.82 11.57,3.27 Q 11.21,3.72 10.61,3.72 Z M 10.61,4.16 Q 11.47,4.16 11.99,3.59 Q 12.50,3.01 12.50,2.04 Q 12.50,1.07 11.99,0.50 Q 11.47,-0.08 10.61,-0.08 Q 9.75,-0.08 9.23,0.50 Q 8.72,1.07 8.72,2.04 Q 8.72,3.01 9.23,3.59 Q 9.75,4.16 10.61,4.16 Z M 15.03,3.72 Q 14.43,3.72 14.07,3.27 Q 13.72,2.82 13.72,2.04 Q 13.72,1.27 14.07,0.82 Q 14.43,0.37 15.03,0.37 Q 15.63,0.37 15.98,0.82 Q 16.34,1.27 16.34,2.04 Q 16.34,2.82 15.98,3.27 Q 15.63,3.72 15.03,3.72 Z M 15.03,4.16 Q 15.89,4.16 16.40,3.59 Q 16.92,3.01 16.92,2.04 Q 16.92,1.07 16.40,0.50 Q 15.89,-0.08 15.03,-0.08 Q 14.17,-0.08 13.65,0.50 Q 13.13,1.07 13.13,2.04 Q 13.13,3.01 13.65,3.59 Q 14.17,4.16 15.03,4.16 Z M 17.22,4.09 L 20.68,4.09 L 20.68,3.62 L 19.23,3.62 L 19.23,0.00 L 18.67,0.00 L 18.67,3.62 L 17.22,3.62 L 17.22,4.09 Z M 21.21,4.09 L 21.76,4.09 L 21.76,2.41 L 23.77,2.41 L 23.77,4.09 L 24.33,4.09 L 24.33,0.00 L 23.77,0.00 L 23.77,1.95 L 21.76,1.95 L 21.76,0.00 L 21.21,0.00 L 21.21,4.09 Z" fill="#9a6258"/></g>
<g transform="translate(129.79,366.14) scale(1,-1)"><path d="M 2.49,1.92 Q 2.67,1.86 2.84,1.66 Q 3.00,1.46 3.18,1.12 L 3.74,0.00 L 3.14,0.00 L 2.62,1.05 Q 2.42,1.46 2.23,1.59 Q 2.04,1.73 1.71,1.73 L 1.10,1.73 L 1.10,0.00 L 0.55,0.00 L 0.55,4.09 L 1.80,4.09 Q 2.50,4.09 2.85,3.80 Q 3.19,3.50 3.19,2.91 Q 3.19,2.53 3.01,2.27 Q 2.83,2.02 2.49,1.92 Z M 1.10,3.64 L 1.10,2.18 L 1.80,2.18 Q 2.20,2.18 2.40,2.37 Q 2.61,2.55 2.61,2.91 Q 2.61,3.27 2.40,3.45 Q 2.20,3.64 1.80,3.64 L 1.10,3.64 Z M 4.45,4.09 L 5.19,4.09 L 7.01,0.67 L 7.01,4.09 L 7.54,4.09 L 7.54,0.00 L 6.80,0.00 L 4.99,3.42 L 4.99,0.00 L 4.45,0.00 L 4.45,4.09 Z M 9.20,3.64 L 9.20,0.45 L 9.87,0.45 Q 10.71,0.45 11.11,0.84 Q 11.50,1.22 11.50,2.05 Q 11.50,2.87 11.11,3.25 Q 10.71,3.64 9.87,3.64 L 9.20,3.64 Z M 8.65,4.09 L 9.78,4.09 Q 10.97,4.09 11.53,3.60 Q 12.08,3.10 12.08,2.05 Q 12.08,0.99 11.52,0.50 Q 10.97,0.00 9.78,0.00 L 8.65,0.00 L 8.65,4.09 Z" fill="#9a6258"/></g>
<g transform="translate(172.45,366.14) scale(1,-1)"><path d="M 0.55,4.09 L 2.90,4.09 L 2.90,3.62 L 1.10,3.62 L 1.10,2.42 L 2.73,2.42 L 2.73,1.95 L 1.10,1.95 L 1.10,0.00 L 0.55,0.00 L 0.55,4.09 Z M 5.72,1.92 Q 5.90,1.86 6.06,1.66 Q 6.23,1.46 6.40,1.12 L 6.96,0.00 L 6.37,0.00 L 5.85,1.05 Q 5.64,1.46 5.45,1.59 Q 5.26,1.73 4.93,1.73 L 4.33,1.73 L 4.33,0.00 L 3.78,0.00 L 3.78,4.09 L 5.03,4.09 Q 5.73,4.09 6.07,3.80 Q 6.42,3.50 6.42,2.91 Q 6.42,2.53 6.24,2.27 Q 6.06,2.02 5.72,1.92 Z M 4.33,3.64 L 4.33,2.18 L 5.03,2.18 Q 5.43,2.18 5.63,2.37 Q 5.83,2.55 5.83,2.91 Q 5.83,3.27 5.63,3.45 Q 5.43,3.64 5.03,3.64 L 4.33,3.64 Z M 7.68,4.09 L 10.26,4.09 L 10.26,3.62 L 8.23,3.62 L 8.23,2.41 L 10.18,2.41 L 10.18,1.95 L 8.23,1.95 L 8.23,0.47 L 10.31,0.47 L 10.31,0.00 L 7.68,0.00 L 7.68,4.09 Z M 11.22,4.09 L 13.81,4.09 L 13.81,3.62 L 11.77,3.62 L 11.77,2.41 L 13.72,2.41 L 13.72,1.95 L 11.77,1.95 L 11.77,0.47 L 13.86,0.47 L 13.86,0.00 L 11.22,0.00 L 11.22,4.09 Z M 14.53,4.09 L 17.74,4.09 L 17.74,3.67 L 15.16,0.47 L 17.81,0.47 L 17.81,0.00 L 14.47,0.00 L 14.47,0.42 L 17.05,3.62 L 14.53,3.62 L 14.53,4.09 Z M 18.61,4.09 L 21.19,4.09 L 21.19,3.62 L 19.16,3.62 L 19.16,2.41 L 21.11,2.41 L 21.11,1.95 L 19.16,1.95 L 19.16,0.47 L 21.24,0.47 L 21.24,0.00 L 18.61,0.00 L 18.61,4.09 Z" fill="#9a6258"/></g>
<g transform="translate(223.93,366.14) scale(1,-1)"><path d="M 0.55,4.09 L 2.90,4.09 L 2.90,3.62 L 1.10,3.62 L 1.10,2.42 L 2.73,2.42 L 2.73,1.95 L 1.10,1.95 L 1.10,0.00 L 0.55,0.00 L 0.55,4.09 Z M 3.41,4.09 L 3.97,4.09 L 4.83,0.63 L 5.69,4.09 L 6.31,4.09 L 7.17,0.63 L 8.03,4.09 L 8.59,4.09 L 7.56,0.00 L 6.87,0.00 L 6.00,3.55 L 5.13,0.00 L 4.44,0.00 L 3.41,4.09 Z M 9.88,3.64 L 9.88,0.45 L 10.55,0.45 Q 11.39,0.45 11.79,0.84 Q 12.18,1.22 12.18,2.05 Q 12.18,2.87 11.79,3.25 Q 11.39,3.64 10.55,3.64 L 9.88,3.64 Z M 9.32,4.09 L 10.46,4.09 Q 11.65,4.09 12.21,3.60 Q 12.76,3.10 12.76,2.05 Q 12.76,0.99 12.20,0.50 Q 11.65,0.00 10.46,0.00 L 9.32,0.00 L 9.32,4.09 Z" fill="#9a6258"/></g>
<g transform="translate(271.94,366.14) scale(1,-1)"><path d="M 2.49,1.92 Q 2.67,1.86 2.84,1.66 Q 3.00,1.46 3.18,1.12 L 3.74,0.00 L 3.14,0.00 L 2.62,1.05 Q 2.42,1.46 2.23,1.59 Q 2.04,1.73 1.71,1.73 L 1.10,1.73 L 1.10,0.00 L 0.55,0.00 L 0.55,4.09 L 1.80,4.09 Q 2.50,4.09 2.85,3.80 Q 3.19,3.50 3.19,2.91 Q 3.19,2.53 3.01,2.27 Q 2.83,2.02 2.49,1.92 Z M 1.10,3.64 L 1.10,2.18 L 1.80,2.18 Q 2.20,2.18 2.40,2.37 Q 2.61,2.55 2.61,2.91 Q 2.61,3.27 2.40,3.45 Q 2.20,3.64 1.80,3.64 L 1.10,3.64 Z M 4.45,4.09 L 7.03,4.09 L 7.03,3.62 L 5.00,3.62 L 5.00,2.41 L 6.95,2.41 L 6.95,1.95 L 5.00,1.95 L 5.00,0.47 L 7.08,0.47 L 7.08,0.00 L 4.45,0.00 L 4.45,4.09 Z M 9.05,0.00 L 7.49,4.09 L 8.06,4.09 L 9.36,0.65 L 10.66,4.09 L 11.23,4.09 L 9.68,0.00 L 9.05,0.00 Z" fill="#9a6258"/></g>
<g transform="translate(317.25,366.14) scale(1,-1)"><path d="M 1.10,3.64 L 1.10,2.10 L 1.80,2.10 Q 2.19,2.10 2.40,2.30 Q 2.61,2.50 2.61,2.87 Q 2.61,3.24 2.40,3.44 Q 2.19,3.64 1.80,3.64 L 1.10,3.64 Z M 0.55,4.09 L 1.80,4.09 Q 2.49,4.09 2.84,3.78 Q 3.19,3.47 3.19,2.87 Q 3.19,2.26 2.84,1.95 Q 2.49,1.64 1.80,1.64 L 1.10,1.64 L 1.10,0.00 L 0.55,0.00 L 0.55,4.09 Z M 3.93,4.09 L 6.52,4.09 L 6.52,3.62 L 4.49,3.62 L 4.49,2.41 L 6.43,2.41 L 6.43,1.95 L 4.49,1.95 L 4.49,0.47 L 6.57,0.47 L 6.57,0.00 L 3.93,0.00 L 3.93,4.09 Z M 7.48,4.09 L 8.22,4.09 L 10.04,0.67 L 10.04,4.09 L 10.57,4.09 L 10.57,0.00 L 9.83,0.00 L 8.02,3.42 L 8.02,0.00 L 7.48,0.00 L 7.48,4.09 Z M 12.23,3.64 L 12.23,0.45 L 12.90,0.45 Q 13.74,0.45 14.14,0.84 Q 14.53,1.22 14.53,2.05 Q 14.53,2.87 14.14,3.25 Q 13.74,3.64 12.90,3.64 L 12.23,3.64 Z M 11.68,4.09 L 12.81,4.09 Q 14.00,4.09 14.56,3.60 Q 15.11,3.10 15.11,2.05 Q 15.11,0.99 14.55,0.50 Q 14.00,0.00 12.81,0.00 L 11.68,0.00 L 11.68,4.09 Z" fill="#9a6258"/></g>
<g transform="translate(360.24,366.14) scale(1,-1)"><path d="M 2.49,1.92 Q 2.67,1.86 2.84,1.66 Q 3.00,1.46 3.18,1.12 L 3.74,0.00 L 3.14,0.00 L 2.62,1.05 Q 2.42,1.46 2.23,1.59 Q 2.04,1.73 1.71,1.73 L 1.10,1.73 L 1.10,0.00 L 0.55,0.00 L 0.55,4.09 L 1.80,4.09 Q 2.50,4.09 2.85,3.80 Q 3.19,3.50 3.19,2.91 Q 3.19,2.53 3.01,2.27 Q 2.83,2.02 2.49,1.92 Z M 1.10,3.64 L 1.10,2.18 L 1.80,2.18 Q 2.20,2.18 2.40,2.37 Q 2.61,2.55 2.61,2.91 Q 2.61,3.27 2.40,3.45 Q 2.20,3.64 1.80,3.64 L 1.10,3.64 Z M 4.45,4.09 L 5.19,4.09 L 7.01,0.67 L 7.01,4.09 L 7.54,4.09 L 7.54,0.00 L 6.80,0.00 L 4.99,3.42 L 4.99,0.00 L 4.45,0.00 L 4.45,4.09 Z M 9.20,3.64 L 9.20,0.45 L 9.87,0.45 Q 10.71,0.45 11.11,0.84 Q 11.50,1.22 11.50,2.05 Q 11.50,2.87 11.11,3.25 Q 10.71,3.64 9.87,3.64 L 9.20,3.64 Z M 8.65,4.09 L 9.78,4.09 Q 10.97,4.09 11.53,3.60 Q 12.08,3.10 12.08,2.05 Q 12.08,0.99 11.52,0.50 Q 10.97,0.00 9.78,0.00 L 8.65,0.00 L 8.65,4.09 Z M 15.42,3.96 L 15.42,3.42 Q 15.10,3.57 14.82,3.64 Q 14.54,3.72 14.28,3.72 Q 13.83,3.72 13.59,3.54 Q 13.34,3.36 13.34,3.04 Q 13.34,2.77 13.50,2.63 Q 13.67,2.49 14.12,2.41 L 14.46,2.34 Q 15.07,2.22 15.37,1.92 Q 15.66,1.63 15.66,1.13 Q 15.66,0.53 15.26,0.23 Q 14.87,-0.08 14.10,-0.08 Q 13.81,-0.08 13.48,-0.01 Q 13.15,0.05 12.80,0.18 L 12.80,0.75 Q 13.14,0.56 13.46,0.47 Q 13.78,0.37 14.10,0.37 Q 14.57,0.37 14.83,0.56 Q 15.09,0.74 15.09,1.09 Q 15.09,1.39 14.90,1.56 Q 14.72,1.73 14.29,1.81 L 13.96,1.88 Q 13.34,2.00 13.06,2.27 Q 12.78,2.53 12.78,3.00 Q 12.78,3.54 13.17,3.85 Q 13.55,4.16 14.22,4.16 Q 14.51,4.16 14.81,4.11 Q 15.11,4.06 15.42,3.96 Z M 16.53,4.09 L 19.11,4.09 L 19.11,3.62 L 17.08,3.62 L 17.08,2.41 L 19.03,2.41 L 19.03,1.95 L 17.08,1.95 L 17.08,0.47 L 19.16,0.47 L 19.16,0.00 L 16.53,0.00 L 16.53,4.09 Z M 21.73,3.72 Q 21.13,3.72 20.77,3.27 Q 20.42,2.82 20.42,2.04 Q 20.42,1.27 20.77,0.82 Q 21.13,0.37 21.73,0.37 Q 22.33,0.37 22.69,0.82 Q 23.04,1.27 23.04,2.04 Q 23.04,2.82 22.69,3.27 Q 22.33,3.72 21.73,3.72 Z M 22.51,0.07 L 23.24,-0.72 L 22.57,-0.72 L 21.96,-0.07 Q 21.87,-0.07 21.82,-0.08 Q 21.78,-0.08 21.73,-0.08 Q 20.87,-0.08 20.35,0.50 Q 19.84,1.07 19.84,2.04 Q 19.84,3.01 20.35,3.59 Q 20.87,4.16 21.73,4.16 Q 22.59,4.16 23.11,3.59 Q 23.62,3.01 23.62,2.04 Q 23.62,1.33 23.33,0.82 Q 23.05,0.31 22.51,0.07 Z" fill="#9a6258"/></g>
<g transform="translate(197.37,383.86) scale(1,-1)"><path d="M 1.05,3.44 L 1.05,1.99 L 1.70,1.99 Q 2.07,1.99 2.27,2.18 Q 2.47,2.37 2.47,2.72 Q 2.47,3.07 2.27,3.25 Q 2.07,3.44 1.70,3.44 L 1.05,3.44 Z M 0.52,3.87 L 1.70,3.87 Q 2.36,3.87 2.69,3.58 Q 3.02,3.29 3.02,2.72 Q 3.02,2.14 2.69,1.85 Q 2.36,1.56 1.70,1.56 L 1.05,1.56 L 1.05,0.00 L 0.52,0.00 L 0.52,3.87 Z M 3.73,3.87 L 6.18,3.87 L 6.18,3.43 L 4.25,3.43 L 4.25,2.29 L 6.10,2.29 L 6.10,1.85 L 4.25,1.85 L 4.25,0.44 L 6.22,0.44 L 6.22,0.00 L 3.73,0.00 L 3.73,3.87 Z M 8.92,1.82 Q 9.09,1.76 9.25,1.57 Q 9.41,1.39 9.57,1.06 L 10.10,0.00 L 9.54,0.00 L 9.04,0.99 Q 8.85,1.38 8.67,1.51 Q 8.49,1.64 8.18,1.64 L 7.61,1.64 L 7.61,0.00 L 7.08,0.00 L 7.08,3.87 L 8.27,3.87 Q 8.93,3.87 9.26,3.60 Q 9.59,3.32 9.59,2.76 Q 9.59,2.39 9.42,2.15 Q 9.25,1.91 8.92,1.82 Z M 7.61,3.44 L 7.61,2.07 L 8.27,2.07 Q 8.65,2.07 8.84,2.24 Q 9.03,2.42 9.03,2.76 Q 9.03,3.10 8.84,3.27 Q 8.65,3.44 8.27,3.44 L 7.61,3.44 Z M 10.78,3.87 L 13.00,3.87 L 13.00,3.43 L 11.30,3.43 L 11.30,2.29 L 12.84,2.29 L 12.84,1.85 L 11.30,1.85 L 11.30,0.00 L 10.78,0.00 L 10.78,3.87 Z M 15.41,3.52 Q 14.84,3.52 14.50,3.09 Q 14.16,2.67 14.16,1.93 Q 14.16,1.20 14.50,0.78 Q 14.84,0.35 15.41,0.35 Q 15.98,0.35 16.31,0.78 Q 16.65,1.20 16.65,1.93 Q 16.65,2.67 16.31,3.09 Q 15.98,3.52 15.41,3.52 Z M 15.41,3.94 Q 16.22,3.94 16.71,3.40 Q 17.20,2.85 17.20,1.93 Q 17.20,1.02 16.71,0.47 Q 16.22,-0.08 15.41,-0.08 Q 14.59,-0.08 14.10,0.47 Q 13.61,1.01 13.61,1.93 Q 13.61,2.85 14.10,3.40 Q 14.59,3.94 15.41,3.94 Z M 19.86,1.82 Q 20.02,1.76 20.18,1.57 Q 20.34,1.39 20.50,1.06 L 21.04,0.00 L 20.47,0.00 L 19.98,0.99 Q 19.79,1.38 19.61,1.51 Q 19.43,1.64 19.11,1.64 L 18.54,1.64 L 18.54,0.00 L 18.02,0.00 L 18.02,3.87 L 19.20,3.87 Q 19.87,3.87 20.19,3.60 Q 20.52,3.32 20.52,2.76 Q 20.52,2.39 20.35,2.15 Q 20.18,1.91 19.86,1.82 Z M 18.54,3.44 L 18.54,2.07 L 19.20,2.07 Q 19.58,2.07 19.77,2.24 Q 19.97,2.42 19.97,2.76 Q 19.97,3.10 19.77,3.27 Q 19.58,3.44 19.20,3.44 L 18.54,3.44 Z M 21.71,3.87 L 22.49,3.87 L 23.48,1.24 L 24.48,3.87 L 25.26,3.87 L 25.26,0.00 L 24.74,0.00 L 24.74,3.40 L 23.75,0.74 L 23.22,0.74 L 22.22,3.40 L 22.22,0.00 L 21.71,0.00 L 21.71,3.87 Z" fill="#7a4a42"/></g>
</svg>