<svg xmlns="http://www.w3.org/2000/svg" width="300" height="380" viewBox="0 0 300 380">
<rect x="0" y="0" width="300" height="380" fill="#1a0808"/>
<rect x="3.5" y="3.5" width="292.9" height="372.8" fill="#220b0b"/>
<line x1="7.4" y1="36.9" x2="292.6" y2="36.9" stroke="#5a2424" stroke-width="0.7"/>
<line x1="7.4" y1="121.1" x2="292.6" y2="121.1" stroke="#5a2424" stroke-width="0.7"/>
<line x1="7.4" y1="197.8" x2="292.6" y2="197.8" stroke="#5a2424" stroke-width="0.7"/>
<line x1="7.4" y1="295.3" x2="292.6" y2="295.3" stroke="#5a2424" stroke-width="0.7"/>
<g transform="translate(115.12,17.13) scale(1,-1)"><path d="M 5.48,6.46 L 5.48,5.05 Q 4.93,5.30 4.41,5.42 Q 3.89,5.55 3.42,5.55 Q 2.81,5.55 2.51,5.38 Q 2.22,5.21 2.22,4.85 Q 2.22,4.58 2.42,4.43 Q 2.61,4.28 3.14,4.17 L 3.87,4.03 Q 4.98,3.80 5.45,3.35 Q 5.92,2.89 5.92,2.05 Q 5.92,0.95 5.27,0.41 Q 4.61,-0.13 3.27,-0.13 Q 2.63,-0.13 1.99,-0.01 Q 1.35,0.11 0.72,0.35 L 0.72,1.80 Q 1.35,1.46 1.95,1.29 Q 2.55,1.12 3.10,1.12 Q 3.67,1.12 3.96,1.30 Q 4.26,1.49 4.26,1.84 Q 4.26,2.15 4.06,2.32 Q 3.86,2.49 3.25,2.63 L 2.58,2.78 Q 1.58,2.99 1.12,3.46 Q 0.66,3.93 0.66,4.72 Q 0.66,5.72 1.30,6.26 Q 1.94,6.79 3.15,6.79 Q 3.70,6.79 4.28,6.71 Q 4.86,6.63 5.48,6.46 Z M 10.48,5.55 Q 9.69,5.55 9.26,4.97 Q 8.83,4.39 8.83,3.33 Q 8.83,2.28 9.26,1.70 Q 9.69,1.12 10.48,1.12 Q 11.27,1.12 11.71,1.70 Q 12.14,2.28 12.14,3.33 Q 12.14,4.39 11.71,4.97 Q 11.27,5.55 10.48,5.55 Z M 10.48,6.79 Q 12.09,6.79 13.00,5.87 Q 13.91,4.95 13.91,3.33 Q 13.91,1.71 13.00,0.79 Q 12.09,-0.13 10.48,-0.13 Q 8.88,-0.13 7.96,0.79 Q 7.05,1.71 7.05,3.33 Q 7.05,4.95 7.96,5.87 Q 8.88,6.79 10.48,6.79 Z M 15.21,6.67 L 16.94,6.67 L 16.94,2.67 Q 16.94,1.85 17.21,1.49 Q 17.48,1.14 18.09,1.14 Q 18.70,1.14 18.98,1.49 Q 19.25,1.85 19.25,2.67 L 19.25,6.67 L 20.97,6.67 L 20.97,2.67 Q 20.97,1.26 20.26,0.56 Q 19.55,-0.13 18.09,-0.13 Q 16.64,-0.13 15.92,0.56 Q 15.21,1.26 15.21,2.67 L 15.21,6.67 Z M 22.65,6.67 L 24.57,6.67 L 27.00,2.10 L 27.00,6.67 L 28.63,6.67 L 28.63,0.00 L 26.71,0.00 L 24.28,4.58 L 24.28,0.00 L 22.65,0.00 L 22.65,6.67 Z M 32.03,5.37 L 32.03,1.30 L 32.65,1.30 Q 33.70,1.30 34.26,1.82 Q 34.81,2.35 34.81,3.34 Q 34.81,4.34 34.26,4.85 Q 33.71,5.37 32.65,5.37 L 32.03,5.37 Z M 30.31,6.67 L 32.12,6.67 Q 33.64,6.67 34.39,6.46 Q 35.13,6.24 35.66,5.72 Q 36.13,5.27 36.36,4.68 Q 36.59,4.09 36.59,3.34 Q 36.59,2.59 36.36,2.00 Q 36.13,1.40 35.66,0.95 Q 35.13,0.43 34.37,0.22 Q 33.62,0.00 32.12,0.00 L 30.31,0.00 L 30.31,6.67 Z M 42.55,6.46 L 42.55,5.05 Q 42.00,5.30 41.48,5.42 Q 40.95,5.55 40.49,5.55 Q 39.87,5.55 39.58,5.38 Q 39.28,5.21 39.28,4.85 Q 39.28,4.58 39.48,4.43 Q 39.68,4.28 40.20,4.17 L 40.94,4.03 Q 42.05,3.80 42.52,3.35 Q 42.99,2.89 42.99,2.05 Q 42.99,0.95 42.33,0.41 Q 41.68,-0.13 40.33,-0.13 Q 39.70,-0.13 39.06,-0.01 Q 38.42,0.11 37.78,0.35 L 37.78,1.80 Q 38.42,1.46 39.02,1.29 Q 39.61,1.12 40.17,1.12 Q 40.73,1.12 41.03,1.30 Q 41.33,1.49 41.33,1.84 Q 41.33,2.15 41.13,2.32 Q 40.92,2.49 40.32,2.63 L 39.65,2.78 Q 38.65,2.99 38.18,3.46 Q 37.72,3.93 37.72,4.72 Q 37.72,5.72 38.37,6.26 Q 39.01,6.79 40.22,6.79 Q 40.77,6.79 41.35,6.71 Q 41.93,6.63 42.55,6.46 Z M 49.79,0.37 Q 49.32,0.12 48.80,-0.00 Q 48.29,-0.13 47.73,-0.13 Q 46.06,-0.13 45.09,0.80 Q 44.11,1.73 44.11,3.33 Q 44.11,4.93 45.09,5.86 Q 46.06,6.79 47.73,6.79 Q 48.29,6.79 48.80,6.67 Q 49.32,6.54 49.79,6.30 L 49.79,4.92 Q 49.31,5.24 48.85,5.39 Q 48.38,5.55 47.87,5.55 Q 46.95,5.55 46.42,4.96 Q 45.89,4.37 45.89,3.33 Q 45.89,2.30 46.42,1.71 Q 46.95,1.12 47.87,1.12 Q 48.38,1.12 48.85,1.27 Q 49.31,1.42 49.79,1.75 L 49.79,0.37 Z M 55.27,1.22 L 52.58,1.22 L 52.15,0.00 L 50.42,0.00 L 52.89,6.67 L 54.94,6.67 L 57.42,0.00 L 55.69,0.00 L 55.27,1.22 Z M 53.00,2.45 L 54.83,2.45 L 53.92,5.11 L 53.00,2.45 Z M 58.30,6.67 L 61.16,6.67 Q 62.43,6.67 63.11,6.11 Q 63.79,5.54 63.79,4.50 Q 63.79,3.45 63.11,2.88 Q 62.43,2.32 61.16,2.32 L 60.02,2.32 L 60.02,0.00 L 58.30,0.00 L 58.30,6.67 Z M 60.02,5.43 L 60.02,3.56 L 60.97,3.56 Q 61.47,3.56 61.75,3.81 Q 62.02,4.05 62.02,4.50 Q 62.02,4.94 61.75,5.18 Q 61.47,5.43 60.97,5.43 L 60.02,5.43 Z M 65.01,6.67 L 69.65,6.67 L 69.65,5.37 L 66.73,5.37 L 66.73,4.13 L 69.48,4.13 L 69.48,2.83 L 66.73,2.83 L 66.73,1.30 L 69.75,1.30 L 69.75,0.00 L 65.01,0.00 L 65.01,6.67 Z" fill="#ffffff"/></g>
<g transform="translate(123.44,28.35) scale(1,-1)"><path d="M 1.60,1.74 Q 1.24,1.74 1.04,1.55 Q 0.84,1.36 0.84,1.03 Q 0.84,0.70 1.04,0.51 Q 1.24,0.32 1.60,0.32 Q 1.95,0.32 2.15,0.51 Q 2.36,0.70 2.36,1.03 Q 2.36,1.36 2.15,1.55 Q 1.95,1.74 1.60,1.74 Z M 1.10,1.95 Q 0.78,2.03 0.60,2.24 Q 0.43,2.46 0.43,2.78 Q 0.43,3.22 0.74,3.47 Q 1.05,3.73 1.60,3.73 Q 2.14,3.73 2.45,3.47 Q 2.76,3.22 2.76,2.78 Q 2.76,2.46 2.59,2.24 Q 2.41,2.03 2.09,1.95 Q 2.45,1.87 2.65,1.62 Q 2.85,1.38 2.85,1.03 Q 2.85,0.50 2.53,0.21 Q 2.20,-0.07 1.60,-0.07 Q 0.99,-0.07 0.67,0.21 Q 0.34,0.50 0.34,1.03 Q 0.34,1.38 0.54,1.62 Q 0.74,1.87 1.10,1.95 Z M 0.92,2.73 Q 0.92,2.45 1.10,2.29 Q 1.27,2.13 1.60,2.13 Q 1.91,2.13 2.09,2.29 Q 2.27,2.45 2.27,2.73 Q 2.27,3.01 2.09,3.17 Q 1.91,3.33 1.60,3.33 Q 1.27,3.33 1.10,3.17 Q 0.92,3.01 0.92,2.73 Z M 8.02,3.38 L 8.02,2.86 Q 7.77,3.09 7.49,3.20 Q 7.21,3.32 6.89,3.32 Q 6.26,3.32 5.93,2.93 Q 5.59,2.55 5.59,1.83 Q 5.59,1.10 5.93,0.72 Q 6.26,0.34 6.89,0.34 Q 7.21,0.34 7.49,0.45 Q 7.77,0.57 8.02,0.80 L 8.02,0.28 Q 7.76,0.11 7.47,0.02 Q 7.18,-0.07 6.86,-0.07 Q 6.03,-0.07 5.55,0.44 Q 5.07,0.95 5.07,1.83 Q 5.07,2.71 5.55,3.22 Q 6.03,3.73 6.86,3.73 Q 7.19,3.73 7.48,3.64 Q 7.77,3.55 8.02,3.38 Z M 8.79,3.66 L 9.28,3.66 L 9.28,2.16 L 11.08,2.16 L 11.08,3.66 L 11.58,3.66 L 11.58,0.00 L 11.08,0.00 L 11.08,1.74 L 9.28,1.74 L 9.28,0.00 L 8.79,0.00 L 8.79,3.66 Z M 16.90,3.38 L 16.90,2.86 Q 16.65,3.09 16.36,3.20 Q 16.08,3.32 15.76,3.32 Q 15.14,3.32 14.80,2.93 Q 14.47,2.55 14.47,1.83 Q 14.47,1.10 14.80,0.72 Q 15.14,0.34 15.76,0.34 Q 16.08,0.34 16.36,0.45 Q 16.65,0.57 16.90,0.80 L 16.90,0.28 Q 16.64,0.11 16.35,0.02 Q 16.06,-0.07 15.73,-0.07 Q 14.90,-0.07 14.42,0.44 Q 13.95,0.95 13.95,1.83 Q 13.95,2.71 14.42,3.22 Q 14.90,3.73 15.73,3.73 Q 16.06,3.73 16.35,3.64 Q 16.64,3.55 16.90,3.38 Z M 18.61,0.00 L 17.21,3.66 L 17.73,3.66 L 18.89,0.58 L 20.05,3.66 L 20.56,3.66 L 19.17,0.00 L 18.61,0.00 Z M 24.89,3.54 L 24.89,3.06 Q 24.60,3.19 24.35,3.26 Q 24.10,3.32 23.87,3.32 Q 23.47,3.32 23.25,3.17 Q 23.03,3.01 23.03,2.72 Q 23.03,2.48 23.17,2.35 Q 23.32,2.23 23.73,2.15 L 24.02,2.09 Q 24.58,1.99 24.84,1.72 Q 25.11,1.46 25.11,1.01 Q 25.11,0.48 24.75,0.20 Q 24.39,-0.07 23.70,-0.07 Q 23.44,-0.07 23.15,-0.01 Q 22.86,0.05 22.54,0.16 L 22.54,0.67 Q 22.85,0.50 23.14,0.42 Q 23.42,0.33 23.70,0.33 Q 24.13,0.33 24.36,0.50 Q 24.59,0.66 24.59,0.97 Q 24.59,1.24 24.42,1.39 Q 24.26,1.55 23.88,1.62 L 23.58,1.68 Q 23.02,1.79 22.78,2.03 Q 22.53,2.26 22.53,2.68 Q 22.53,3.17 22.87,3.45 Q 23.21,3.73 23.81,3.73 Q 24.07,3.73 24.34,3.68 Q 24.61,3.63 24.89,3.54 Z M 25.88,3.66 L 28.19,3.66 L 28.19,3.24 L 26.37,3.24 L 26.37,2.16 L 28.12,2.16 L 28.12,1.74 L 26.37,1.74 L 26.37,0.42 L 28.24,0.42 L 28.24,0.00 L 25.88,0.00 L 25.88,3.66 Z M 30.53,3.32 Q 30.00,3.32 29.68,2.92 Q 29.36,2.52 29.36,1.83 Q 29.36,1.13 29.68,0.73 Q 30.00,0.33 30.53,0.33 Q 31.07,0.33 31.39,0.73 Q 31.70,1.13 31.70,1.83 Q 31.70,2.52 31.39,2.92 Q 31.07,3.32 30.53,3.32 Z M 31.23,0.07 L 31.88,-0.65 L 31.28,-0.65 L 30.74,-0.06 Q 30.66,-0.07 30.62,-0.07 Q 30.57,-0.07 30.53,-0.07 Q 29.76,-0.07 29.30,0.44 Q 28.84,0.96 28.84,1.83 Q 28.84,2.69 29.30,3.21 Q 29.76,3.73 30.53,3.73 Q 31.30,3.73 31.76,3.21 Q 32.23,2.69 32.23,1.83 Q 32.23,1.19 31.97,0.73 Q 31.71,0.28 31.23,0.07 Z M 32.94,3.66 L 33.44,3.66 L 33.44,1.44 Q 33.44,0.85 33.65,0.59 Q 33.87,0.33 34.35,0.33 Q 34.82,0.33 35.03,0.59 Q 35.25,0.85 35.25,1.44 L 35.25,3.66 L 35.75,3.66 L 35.75,1.37 Q 35.75,0.66 35.39,0.29 Q 35.04,-0.07 34.35,-0.07 Q 33.65,-0.07 33.30,0.29 Q 32.94,0.66 32.94,1.37 L 32.94,3.66 Z M 36.67,3.66 L 38.99,3.66 L 38.99,3.24 L 37.17,3.24 L 37.17,2.16 L 38.91,2.16 L 38.91,1.74 L 37.17,1.74 L 37.17,0.42 L 39.03,0.42 L 39.03,0.00 L 36.67,0.00 L 36.67,3.66 Z M 39.85,3.66 L 40.51,3.66 L 42.14,0.60 L 42.14,3.66 L 42.62,3.66 L 42.62,0.00 L 41.95,0.00 L 40.33,3.06 L 40.33,0.00 L 39.85,0.00 L 39.85,3.66 Z M 46.34,3.38 L 46.34,2.86 Q 46.09,3.09 45.81,3.20 Q 45.53,3.32 45.21,3.32 Q 44.58,3.32 44.25,2.93 Q 43.91,2.55 43.91,1.83 Q 43.91,1.10 44.25,0.72 Q 44.58,0.34 45.21,0.34 Q 45.53,0.34 45.81,0.45 Q 46.09,0.57 46.34,0.80 L 46.34,0.28 Q 46.08,0.11 45.79,0.02 Q 45.50,-0.07 45.18,-0.07 Q 44.35,-0.07 43.87,0.44 Q 43.39,0.95 43.39,1.83 Q 43.39,2.71 43.87,3.22 Q 44.35,3.73 45.18,3.73 Q 45.51,3.73 45.80,3.64 Q 46.09,3.55 46.34,3.38 Z M 47.11,3.66 L 49.42,3.66 L 49.42,3.24 L 47.60,3.24 L 47.60,2.16 L 49.34,2.16 L 49.34,1.74 L 47.60,1.74 L 47.60,0.42 L 49.46,0.42 L 49.46,0.00 L 47.11,0.00 L 47.11,3.66 Z M 52.01,1.72 Q 52.17,1.66 52.32,1.49 Q 52.47,1.31 52.63,1.00 L 53.13,0.00 L 52.60,0.00 L 52.13,0.94 Q 51.95,1.31 51.78,1.43 Q 51.61,1.55 51.31,1.55 L 50.77,1.55 L 50.77,0.00 L 50.28,0.00 L 50.28,3.66 L 51.40,3.66 Q 52.02,3.66 52.33,3.40 Q 52.64,3.13 52.64,2.61 Q 52.64,2.26 52.48,2.03 Q 52.32,1.80 52.01,1.72 Z M 50.77,3.25 L 50.77,1.95 L 51.40,1.95 Q 51.75,1.95 51.94,2.12 Q 52.12,2.28 52.12,2.61 Q 52.12,2.93 51.94,3.09 Q 51.75,3.25 51.40,3.25 L 50.77,3.25 Z" fill="#ccaaaa"/></g>
<g transform="translate(13.18,150.59) scale(1,-1)"><path d="M 2.66,2.78 L 2.66,2.35 Q 2.46,2.54 2.22,2.64 Q 1.99,2.73 1.73,2.73 Q 1.21,2.73 0.94,2.42 Q 0.66,2.10 0.66,1.50 Q 0.66,0.91 0.94,0.59 Q 1.21,0.28 1.73,0.28 Q 1.99,0.28 2.22,0.37 Q 2.46,0.47 2.66,0.66 L 2.66,0.23 Q 2.45,0.09 2.21,0.01 Q 1.97,-0.06 1.70,-0.06 Q 1.02,-0.06 0.63,0.36 Q 0.23,0.78 0.23,1.50 Q 0.23,2.23 0.63,2.65 Q 1.02,3.07 1.70,3.07 Q 1.97,3.07 2.21,3.00 Q 2.45,2.92 2.66,2.78 Z M 3.29,3.01 L 3.70,3.01 L 3.70,0.34 L 5.17,0.34 L 5.17,0.00 L 3.29,0.00 L 3.29,3.01 Z M 5.60,3.01 L 6.00,3.01 L 6.00,1.74 L 7.36,3.01 L 7.88,3.01 L 6.38,1.61 L 7.99,0.00 L 7.45,0.00 L 6.00,1.45 L 6.00,0.00 L 5.60,0.00 L 5.60,3.01 Z M 8.95,3.01 L 9.29,3.01 L 8.24,-0.38 L 7.90,-0.38 L 8.95,3.01 Z M 11.96,2.78 L 11.96,2.35 Q 11.75,2.54 11.52,2.64 Q 11.28,2.73 11.02,2.73 Q 10.50,2.73 10.23,2.42 Q 9.96,2.10 9.96,1.50 Q 9.96,0.91 10.23,0.59 Q 10.50,0.28 11.02,0.28 Q 11.28,0.28 11.52,0.37 Q 11.75,0.47 11.96,0.66 L 11.96,0.23 Q 11.74,0.09 11.50,0.01 Q 11.26,-0.06 11.00,-0.06 Q 10.31,-0.06 9.92,0.36 Q 9.52,0.78 9.52,1.50 Q 9.52,2.23 9.92,2.65 Q 10.31,3.07 11.00,3.07 Q 11.27,3.07 11.51,3.00 Q 11.75,2.92 11.96,2.78 Z M 13.36,0.00 L 12.21,3.01 L 12.64,3.01 L 13.59,0.48 L 14.55,3.01 L 14.97,3.01 L 13.82,0.00 L 13.36,0.00 Z" fill="#ffffff"/></g>
<g transform="translate(11.79,194.88) scale(1,-1)"><path d="M 1.84,1.41 Q 1.97,1.37 2.09,1.22 Q 2.21,1.08 2.34,0.82 L 2.75,0.00 L 2.31,0.00 L 1.93,0.77 Q 1.78,1.08 1.64,1.17 Q 1.50,1.27 1.26,1.27 L 0.81,1.27 L 0.81,0.00 L 0.41,0.00 L 0.41,3.01 L 1.33,3.01 Q 1.84,3.01 2.10,2.80 Q 2.35,2.58 2.35,2.15 Q 2.35,1.86 2.22,1.67 Q 2.09,1.49 1.84,1.41 Z M 0.81,2.68 L 0.81,1.61 L 1.33,1.61 Q 1.62,1.61 1.77,1.75 Q 1.92,1.88 1.92,2.15 Q 1.92,2.41 1.77,2.54 Q 1.62,2.68 1.33,2.68 L 0.81,2.68 Z M 5.08,2.92 L 5.08,2.52 Q 4.85,2.63 4.65,2.68 Q 4.44,2.74 4.25,2.74 Q 3.92,2.74 3.74,2.61 Q 3.55,2.48 3.55,2.24 Q 3.55,2.04 3.67,1.94 Q 3.79,1.84 4.13,1.77 L 4.38,1.72 Q 4.83,1.64 5.05,1.42 Q 5.27,1.20 5.27,0.83 Q 5.27,0.39 4.97,0.17 Q 4.68,-0.06 4.11,-0.06 Q 3.90,-0.06 3.66,-0.01 Q 3.42,0.04 3.16,0.13 L 3.16,0.55 Q 3.41,0.41 3.64,0.34 Q 3.88,0.27 4.11,0.27 Q 4.46,0.27 4.65,0.41 Q 4.84,0.55 4.84,0.80 Q 4.84,1.02 4.70,1.15 Q 4.57,1.27 4.26,1.34 L 4.01,1.38 Q 3.55,1.48 3.35,1.67 Q 3.14,1.86 3.14,2.21 Q 3.14,2.61 3.43,2.84 Q 3.71,3.07 4.20,3.07 Q 4.41,3.07 4.63,3.03 Q 4.85,2.99 5.08,2.92 Z M 5.48,3.01 L 8.03,3.01 L 8.03,2.67 L 6.96,2.67 L 6.96,0.00 L 6.55,0.00 L 6.55,2.67 L 5.48,2.67 L 5.48,3.01 Z M 9.07,3.01 L 9.41,3.01 L 8.36,-0.38 L 8.02,-0.38 L 9.07,3.01 Z M 9.82,3.01 L 10.23,3.01 L 10.23,1.78 L 11.71,1.78 L 11.71,3.01 L 12.12,3.01 L 12.12,0.00 L 11.71,0.00 L 11.71,1.44 L 10.23,1.44 L 10.23,0.00 L 9.82,0.00 L 9.82,3.01 Z M 12.93,3.01 L 13.34,3.01 L 13.34,0.34 L 14.80,0.34 L 14.80,0.00 L 12.93,0.00 L 12.93,3.01 Z M 15.64,2.68 L 15.64,0.34 L 16.13,0.34 Q 16.76,0.34 17.05,0.62 Q 17.33,0.90 17.33,1.51 Q 17.33,2.12 17.05,2.40 Q 16.76,2.68 16.13,2.68 L 15.64,2.68 Z M 15.23,3.01 L 16.07,3.01 Q 16.95,3.01 17.35,2.65 Q 17.76,2.29 17.76,1.51 Q 17.76,0.73 17.35,0.36 Q 16.94,0.00 16.07,0.00 L 15.23,0.00 L 15.23,3.01 Z" fill="#ffffff"/></g>
<g transform="translate(51.12,126.97) scale(1,-1)"><path d="M 0.52,3.87 L 1.30,3.87 L 2.29,1.24 L 3.29,3.87 L 4.07,3.87 L 4.07,0.00 L 3.56,0.00 L 3.56,3.40 L 2.56,0.74 L 2.03,0.74 L 1.03,3.40 L 1.03,0.00 L 0.52,0.00 L 0.52,3.87 Z M 6.68,3.52 Q 6.11,3.52 5.77,3.09 Q 5.44,2.67 5.44,1.93 Q 5.44,1.20 5.77,0.78 Q 6.11,0.35 6.68,0.35 Q 7.25,0.35 7.58,0.78 Q 7.92,1.20 7.92,1.93 Q 7.92,2.67 7.58,3.09 Q 7.25,3.52 6.68,3.52 Z M 6.68,3.94 Q 7.49,3.94 7.98,3.40 Q 8.47,2.85 8.47,1.93 Q 8.47,1.02 7.98,0.47 Q 7.49,-0.08 6.68,-0.08 Q 5.86,-0.08 5.37,0.47 Q 4.88,1.01 4.88,1.93 Q 4.88,2.85 5.37,3.40 Q 5.86,3.94 6.68,3.94 Z M 9.81,3.44 L 9.81,0.43 L 10.45,0.43 Q 11.25,0.43 11.62,0.79 Q 11.99,1.16 11.99,1.94 Q 11.99,2.72 11.62,3.08 Q 11.25,3.44 10.45,3.44 L 9.81,3.44 Z M 9.29,3.87 L 10.37,3.87 Q 11.49,3.87 12.02,3.41 Q 12.55,2.94 12.55,1.94 Q 12.55,0.94 12.02,0.47 Q 11.49,0.00 10.37,0.00 L 9.29,0.00 L 9.29,3.87 Z M 13.38,3.87 L 15.83,3.87 L 15.83,3.43 L 13.91,3.43 L 13.91,2.29 L 15.75,2.29 L 15.75,1.85 L 13.91,1.85 L 13.91,0.44 L 15.88,0.44 L 15.88,0.00 L 13.38,0.00 L 13.38,3.87 Z" fill="#ffffff"/></g>
<g transform="translate(46.39,138.78) scale(1,-1)"><path d="M 0.38,2.80 L 0.76,2.80 L 0.76,0.00 L 0.38,0.00 L 0.38,2.80 Z M 1.51,2.80 L 2.02,2.80 L 3.26,0.46 L 3.26,2.80 L 3.63,2.80 L 3.63,0.00 L 3.12,0.00 L 1.88,2.34 L 1.88,0.00 L 1.51,0.00 L 1.51,2.80 Z M 3.99,2.80 L 6.36,2.80 L 6.36,2.48 L 5.37,2.48 L 5.37,0.00 L 4.99,0.00 L 4.99,2.48 L 3.99,2.48 L 3.99,2.80 Z M 7.32,2.80 L 7.64,2.80 L 6.67,-0.36 L 6.35,-0.36 L 7.32,2.80 Z M 8.02,2.80 L 9.79,2.80 L 9.79,2.48 L 8.40,2.48 L 8.40,1.65 L 9.73,1.65 L 9.73,1.33 L 8.40,1.33 L 8.40,0.32 L 9.82,0.32 L 9.82,0.00 L 8.02,0.00 L 8.02,2.80 Z M 10.31,2.80 L 10.72,2.80 L 11.41,1.76 L 12.11,2.80 L 12.52,2.80 L 11.62,1.45 L 12.58,0.00 L 12.17,0.00 L 11.38,1.19 L 10.59,0.00 L 10.18,0.00 L 11.18,1.49 L 10.31,2.80 Z M 12.62,2.80 L 14.99,2.80 L 14.99,2.48 L 13.99,2.48 L 13.99,0.00 L 13.61,0.00 L 13.61,2.48 L 12.62,2.48 L 12.62,2.80 Z M 15.95,2.80 L 16.27,2.80 L 15.29,-0.36 L 14.97,-0.36 L 15.95,2.80 Z M 16.64,2.80 L 17.21,2.80 L 17.92,0.89 L 18.64,2.80 L 19.20,2.80 L 19.20,0.00 L 18.84,0.00 L 18.84,2.46 L 18.11,0.54 L 17.73,0.54 L 17.01,2.46 L 17.01,0.00 L 16.64,0.00 L 16.64,2.80 Z M 21.09,2.54 Q 20.68,2.54 20.44,2.23 Q 20.19,1.93 20.19,1.40 Q 20.19,0.87 20.44,0.56 Q 20.68,0.25 21.09,0.25 Q 21.50,0.25 21.75,0.56 Q 21.99,0.87 21.99,1.40 Q 21.99,1.93 21.75,2.23 Q 21.50,2.54 21.09,2.54 Z M 21.09,2.85 Q 21.68,2.85 22.03,2.45 Q 22.39,2.06 22.39,1.40 Q 22.39,0.73 22.03,0.34 Q 21.68,-0.05 21.09,-0.05 Q 20.50,-0.05 20.15,0.34 Q 19.79,0.73 19.79,1.40 Q 19.79,2.06 20.15,2.45 Q 20.50,2.85 21.09,2.85 Z M 23.36,2.49 L 23.36,0.31 L 23.81,0.31 Q 24.39,0.31 24.66,0.57 Q 24.93,0.84 24.93,1.40 Q 24.93,1.96 24.66,2.23 Q 24.39,2.49 23.81,2.49 L 23.36,2.49 Z M 22.98,2.80 L 23.76,2.80 Q 24.57,2.80 24.95,2.46 Q 25.33,2.12 25.33,1.40 Q 25.33,0.68 24.95,0.34 Q 24.56,0.00 23.76,0.00 L 22.98,0.00 L 22.98,2.80 Z" fill="#ddbbbb"/></g>
<g transform="translate(87.48,183.07) scale(1,-1)"><path d="M 2.84,3.75 L 2.84,3.24 Q 2.55,3.38 2.28,3.45 Q 2.02,3.52 1.77,3.52 Q 1.34,3.52 1.11,3.35 Q 0.88,3.19 0.88,2.88 Q 0.88,2.62 1.03,2.49 Q 1.19,2.36 1.62,2.28 L 1.93,2.22 Q 2.52,2.10 2.80,1.82 Q 3.08,1.54 3.08,1.07 Q 3.08,0.51 2.70,0.22 Q 2.32,-0.08 1.59,-0.08 Q 1.32,-0.08 1.01,-0.01 Q 0.70,0.05 0.37,0.17 L 0.37,0.71 Q 0.69,0.53 0.99,0.44 Q 1.30,0.35 1.59,0.35 Q 2.04,0.35 2.29,0.53 Q 2.53,0.70 2.53,1.03 Q 2.53,1.32 2.36,1.48 Q 2.18,1.64 1.78,1.72 L 1.46,1.78 Q 0.87,1.90 0.61,2.15 Q 0.35,2.40 0.35,2.84 Q 0.35,3.35 0.71,3.65 Q 1.07,3.94 1.71,3.94 Q 1.98,3.94 2.27,3.89 Q 2.55,3.85 2.84,3.75 Z M 3.36,3.87 L 3.93,3.87 L 5.00,2.28 L 6.07,3.87 L 6.63,3.87 L 5.26,1.85 L 5.26,0.00 L 4.73,0.00 L 4.73,1.85 L 3.36,3.87 Z M 7.14,3.87 L 7.85,3.87 L 9.57,0.63 L 9.57,3.87 L 10.07,3.87 L 10.07,0.00 L 9.37,0.00 L 7.65,3.24 L 7.65,0.00 L 7.14,0.00 L 7.14,3.87 Z M 14.02,3.58 L 14.02,3.02 Q 13.75,3.27 13.45,3.39 Q 13.15,3.51 12.82,3.51 Q 12.15,3.51 11.80,3.11 Q 11.45,2.70 11.45,1.93 Q 11.45,1.17 11.80,0.76 Q 12.15,0.36 12.82,0.36 Q 13.15,0.36 13.45,0.48 Q 13.75,0.60 14.02,0.85 L 14.02,0.30 Q 13.74,0.11 13.44,0.02 Q 13.13,-0.08 12.79,-0.08 Q 11.91,-0.08 11.40,0.46 Q 10.89,1.00 10.89,1.93 Q 10.89,2.87 11.40,3.41 Q 11.91,3.94 12.79,3.94 Q 13.13,3.94 13.44,3.85 Q 13.75,3.76 14.02,3.58 Z" fill="#ffffff"/></g>
<g transform="translate(80.78,194.88) scale(1,-1)"><path d="M 0.73,1.28 L 0.73,0.30 L 1.31,0.30 Q 1.60,0.30 1.75,0.42 Q 1.89,0.54 1.89,0.79 Q 1.89,1.05 1.75,1.16 Q 1.60,1.28 1.31,1.28 L 0.73,1.28 Z M 0.73,2.39 L 0.73,1.58 L 1.27,1.58 Q 1.53,1.58 1.66,1.68 Q 1.79,1.78 1.79,1.99 Q 1.79,2.19 1.66,2.29 Q 1.53,2.39 1.27,2.39 L 0.73,2.39 Z M 0.36,2.69 L 1.29,2.69 Q 1.71,2.69 1.93,2.52 Q 2.16,2.34 2.16,2.03 Q 2.16,1.78 2.04,1.63 Q 1.93,1.49 1.70,1.45 Q 1.97,1.39 2.12,1.21 Q 2.27,1.03 2.27,0.75 Q 2.27,0.39 2.03,0.20 Q 1.78,0.00 1.33,0.00 L 0.36,0.00 L 0.36,2.69 Z M 3.26,2.39 L 3.26,1.38 L 3.72,1.38 Q 3.97,1.38 4.11,1.51 Q 4.25,1.64 4.25,1.89 Q 4.25,2.13 4.11,2.26 Q 3.97,2.39 3.72,2.39 L 3.26,2.39 Z M 2.89,2.69 L 3.72,2.69 Q 4.17,2.69 4.40,2.49 Q 4.63,2.28 4.63,1.89 Q 4.63,1.49 4.40,1.28 Q 4.17,1.08 3.72,1.08 L 3.26,1.08 L 3.26,0.00 L 2.89,0.00 L 2.89,2.69 Z M 5.12,2.69 L 5.66,2.69 L 6.35,0.86 L 7.04,2.69 L 7.58,2.69 L 7.58,0.00 L 7.23,0.00 L 7.23,2.36 L 6.53,0.52 L 6.17,0.52 L 5.47,2.36 L 5.47,0.00 L 5.12,0.00 L 5.12,2.69 Z M 9.89,2.82 L 9.89,-0.87 L 9.58,-0.87 L 9.58,2.82 L 9.89,2.82 Z M 12.26,2.39 L 12.26,0.30 L 12.70,0.30 Q 13.26,0.30 13.51,0.55 Q 13.77,0.80 13.77,1.35 Q 13.77,1.89 13.51,2.14 Q 13.26,2.39 12.70,2.39 L 12.26,2.39 Z M 11.89,2.69 L 12.64,2.69 Q 13.42,2.69 13.79,2.37 Q 14.16,2.04 14.16,1.35 Q 14.16,0.65 13.79,0.33 Q 13.42,0.00 12.64,0.00 L 11.89,0.00 L 11.89,2.69 Z M 14.74,2.69 L 16.44,2.69 L 16.44,2.38 L 15.10,2.38 L 15.10,1.59 L 16.38,1.59 L 16.38,1.28 L 15.10,1.28 L 15.10,0.31 L 16.47,0.31 L 16.47,0.00 L 14.74,0.00 L 14.74,2.69 Z M 17.07,2.69 L 17.56,2.69 L 18.75,0.44 L 18.75,2.69 L 19.11,2.69 L 19.11,0.00 L 18.61,0.00 L 17.42,2.25 L 17.42,0.00 L 17.07,0.00 L 17.07,2.69 Z M 21.44,2.60 L 21.44,2.25 Q 21.24,2.35 21.05,2.40 Q 20.87,2.44 20.70,2.44 Q 20.40,2.44 20.24,2.33 Q 20.08,2.21 20.08,2.00 Q 20.08,1.82 20.18,1.73 Q 20.29,1.64 20.59,1.58 L 20.81,1.54 Q 21.22,1.46 21.41,1.27 Q 21.60,1.07 21.60,0.74 Q 21.60,0.35 21.34,0.15 Q 21.08,-0.05 20.57,-0.05 Q 20.38,-0.05 20.17,-0.01 Q 19.95,0.03 19.72,0.12 L 19.72,0.49 Q 19.94,0.37 20.16,0.31 Q 20.37,0.24 20.57,0.24 Q 20.89,0.24 21.06,0.37 Q 21.22,0.49 21.22,0.72 Q 21.22,0.91 21.10,1.03 Q 20.98,1.14 20.70,1.19 L 20.48,1.24 Q 20.07,1.32 19.89,1.49 Q 19.71,1.66 19.71,1.97 Q 19.71,2.33 19.96,2.53 Q 20.21,2.74 20.66,2.74 Q 20.84,2.74 21.04,2.70 Q 21.24,2.67 21.44,2.60 Z M 22.17,2.69 L 22.54,2.69 L 22.54,0.00 L 22.17,0.00 L 22.17,2.69 Z M 22.89,2.69 L 25.16,2.69 L 25.16,2.38 L 24.21,2.38 L 24.21,0.00 L 23.84,0.00 L 23.84,2.38 L 22.89,2.38 L 22.89,2.69 Z M 25.15,2.69 L 25.54,2.69 L 26.28,1.58 L 27.02,2.69 L 27.42,2.69 L 26.46,1.28 L 26.46,0.00 L 26.10,0.00 L 26.10,1.28 L 25.15,2.69 Z" fill="#ddbbbb"/></g>
<g transform="translate(133.11,183.07) scale(1,-1)"><path d="M 2.09,3.52 Q 1.52,3.52 1.19,3.09 Q 0.85,2.67 0.85,1.93 Q 0.85,1.20 1.19,0.78 Q 1.52,0.35 2.09,0.35 Q 2.66,0.35 3.00,0.78 Q 3.33,1.20 3.33,1.93 Q 3.33,2.67 3.00,3.09 Q 2.66,3.52 2.09,3.52 Z M 2.09,3.94 Q 2.91,3.94 3.40,3.40 Q 3.88,2.85 3.88,1.93 Q 3.88,1.02 3.40,0.47 Q 2.91,-0.08 2.09,-0.08 Q 1.28,-0.08 0.79,0.47 Q 0.30,1.01 0.30,1.93 Q 0.30,2.85 0.79,3.40 Q 1.28,3.94 2.09,3.94 Z M 4.70,3.87 L 6.93,3.87 L 6.93,3.43 L 5.23,3.43 L 5.23,2.29 L 6.77,2.29 L 6.77,1.85 L 5.23,1.85 L 5.23,0.00 L 4.70,0.00 L 4.70,3.87 Z M 7.76,3.87 L 9.99,3.87 L 9.99,3.43 L 8.29,3.43 L 8.29,2.29 L 9.82,2.29 L 9.82,1.85 L 8.29,1.85 L 8.29,0.00 L 7.76,0.00 L 7.76,3.87 Z M 13.05,3.75 L 13.05,3.24 Q 12.75,3.38 12.49,3.45 Q 12.22,3.52 11.97,3.52 Q 11.55,3.52 11.31,3.35 Q 11.08,3.19 11.08,2.88 Q 11.08,2.62 11.24,2.49 Q 11.39,2.36 11.82,2.28 L 12.14,2.22 Q 12.72,2.10 13.00,1.82 Q 13.28,1.54 13.28,1.07 Q 13.28,0.51 12.90,0.22 Q 12.53,-0.08 11.80,-0.08 Q 11.52,-0.08 11.21,-0.01 Q 10.90,0.05 10.57,0.17 L 10.57,0.71 Q 10.89,0.53 11.20,0.44 Q 11.50,0.35 11.80,0.35 Q 12.25,0.35 12.49,0.53 Q 12.74,0.70 12.74,1.03 Q 12.74,1.32 12.56,1.48 Q 12.38,1.64 11.99,1.72 L 11.67,1.78 Q 11.08,1.90 10.82,2.15 Q 10.56,2.40 10.56,2.84 Q 10.56,3.35 10.92,3.65 Q 11.28,3.94 11.91,3.94 Q 12.19,3.94 12.47,3.89 Q 12.75,3.85 13.05,3.75 Z M 14.10,3.87 L 16.55,3.87 L 16.55,3.43 L 14.62,3.43 L 14.62,2.29 L 16.47,2.29 L 16.47,1.85 L 14.62,1.85 L 14.62,0.44 L 16.60,0.44 L 16.60,0.00 L 14.10,0.00 L 14.10,3.87 Z M 16.92,3.87 L 20.20,3.87 L 20.20,3.43 L 18.82,3.43 L 18.82,0.00 L 18.30,0.00 L 18.30,3.43 L 16.92,3.43 L 16.92,3.87 Z" fill="#ffffff"/></g>
<g transform="translate(126.99,194.88) scale(1,-1)"><path d="M 1.98,2.60 L 1.98,2.25 Q 1.77,2.35 1.58,2.40 Q 1.40,2.44 1.23,2.44 Q 0.93,2.44 0.77,2.33 Q 0.61,2.21 0.61,2.00 Q 0.61,1.82 0.72,1.73 Q 0.82,1.64 1.12,1.58 L 1.34,1.54 Q 1.75,1.46 1.94,1.27 Q 2.14,1.07 2.14,0.74 Q 2.14,0.35 1.87,0.15 Q 1.61,-0.05 1.11,-0.05 Q 0.92,-0.05 0.70,-0.01 Q 0.49,0.03 0.25,0.12 L 0.25,0.49 Q 0.48,0.37 0.69,0.31 Q 0.90,0.24 1.11,0.24 Q 1.42,0.24 1.59,0.37 Q 1.76,0.49 1.76,0.72 Q 1.76,0.91 1.64,1.03 Q 1.51,1.14 1.24,1.19 L 1.01,1.24 Q 0.61,1.32 0.43,1.49 Q 0.24,1.66 0.24,1.97 Q 0.24,2.33 0.49,2.53 Q 0.75,2.74 1.19,2.74 Q 1.38,2.74 1.57,2.70 Q 1.77,2.67 1.98,2.60 Z M 2.71,2.69 L 3.07,2.69 L 3.07,1.59 L 4.39,1.59 L 4.39,2.69 L 4.76,2.69 L 4.76,0.00 L 4.39,0.00 L 4.39,1.28 L 3.07,1.28 L 3.07,0.00 L 2.71,0.00 L 2.71,2.69 Z M 5.48,2.69 L 5.84,2.69 L 5.84,0.00 L 5.48,0.00 L 5.48,2.69 Z M 6.57,2.69 L 8.12,2.69 L 8.12,2.38 L 6.93,2.38 L 6.93,1.59 L 8.00,1.59 L 8.00,1.28 L 6.93,1.28 L 6.93,0.00 L 6.57,0.00 L 6.57,2.69 Z M 8.25,2.69 L 10.53,2.69 L 10.53,2.38 L 9.58,2.38 L 9.58,0.00 L 9.21,0.00 L 9.21,2.38 L 8.25,2.38 L 8.25,2.69 Z M 12.47,2.82 L 12.47,-0.87 L 12.16,-0.87 L 12.16,2.82 L 12.47,2.82 Z M 15.75,1.26 Q 15.87,1.22 15.98,1.09 Q 16.09,0.96 16.20,0.74 L 16.57,0.00 L 16.18,0.00 L 15.83,0.69 Q 15.70,0.96 15.57,1.05 Q 15.45,1.14 15.23,1.14 L 14.84,1.14 L 14.84,0.00 L 14.47,0.00 L 14.47,2.69 L 15.29,2.69 Q 15.76,2.69 15.98,2.50 Q 16.21,2.31 16.21,1.92 Q 16.21,1.66 16.09,1.49 Q 15.97,1.33 15.75,1.26 Z M 14.84,2.39 L 14.84,1.44 L 15.29,1.44 Q 15.56,1.44 15.69,1.56 Q 15.83,1.68 15.83,1.92 Q 15.83,2.15 15.69,2.27 Q 15.56,2.39 15.29,2.39 L 14.84,2.39 Z M 18.13,2.44 Q 17.73,2.44 17.50,2.15 Q 17.27,1.85 17.27,1.34 Q 17.27,0.83 17.50,0.54 Q 17.73,0.24 18.13,0.24 Q 18.53,0.24 18.76,0.54 Q 18.99,0.83 18.99,1.34 Q 18.99,1.85 18.76,2.15 Q 18.53,2.44 18.13,2.44 Z M 18.13,2.74 Q 18.69,2.74 19.03,2.36 Q 19.37,1.98 19.37,1.34 Q 19.37,0.71 19.03,0.33 Q 18.69,-0.05 18.13,-0.05 Q 17.56,-0.05 17.22,0.33 Q 16.88,0.70 16.88,1.34 Q 16.88,1.98 17.22,2.36 Q 17.56,2.74 18.13,2.74 Z M 19.57,2.69 L 21.84,2.69 L 21.84,2.38 L 20.89,2.38 L 20.89,0.00 L 20.52,0.00 L 20.52,2.38 L 19.57,2.38 L 19.57,2.69 Z M 22.81,2.33 L 22.32,0.99 L 23.31,0.99 L 22.81,2.33 Z M 22.60,2.69 L 23.02,2.69 L 24.04,0.00 L 23.66,0.00 L 23.42,0.69 L 22.21,0.69 L 21.96,0.00 L 21.58,0.00 L 22.60,2.69 Z M 23.78,2.69 L 26.05,2.69 L 26.05,2.38 L 25.10,2.38 L 25.10,0.00 L 24.73,0.00 L 24.73,2.38 L 23.78,2.38 L 23.78,2.69 Z M 26.40,2.69 L 26.77,2.69 L 26.77,0.00 L 26.40,0.00 L 26.40,2.69 Z M 28.58,2.44 Q 28.19,2.44 27.95,2.15 Q 27.72,1.85 27.72,1.34 Q 27.72,0.83 27.95,0.54 Q 28.19,0.24 28.58,0.24 Q 28.98,0.24 29.21,0.54 Q 29.44,0.83 29.44,1.34 Q 29.44,1.85 29.21,2.15 Q 28.98,2.44 28.58,2.44 Z M 28.58,2.74 Q 29.15,2.74 29.49,2.36 Q 29.83,1.98 29.83,1.34 Q 29.83,0.71 29.49,0.33 Q 29.15,-0.05 28.58,-0.05 Q 28.02,-0.05 27.68,0.33 Q 27.34,0.70 27.34,1.34 Q 27.34,1.98 27.68,2.36 Q 28.02,2.74 28.58,2.74 Z M 30.40,2.69 L 30.89,2.69 L 32.08,0.44 L 32.08,2.69 L 32.43,2.69 L 32.43,0.00 L 31.94,0.00 L 30.75,2.25 L 30.75,0.00 L 30.40,0.00 L 30.40,2.69 Z" fill="#ddbbbb"/></g>
<g transform="translate(180.81,183.07) scale(1,-1)"><path d="M 2.36,1.82 Q 2.53,1.76 2.69,1.57 Q 2.85,1.39 3.01,1.06 L 3.54,0.00 L 2.98,0.00 L 2.48,0.99 Q 2.29,1.38 2.11,1.51 Q 1.93,1.64 1.62,1.64 L 1.05,1.64 L 1.05,0.00 L 0.52,0.00 L 0.52,3.87 L 1.70,3.87 Q 2.37,3.87 2.70,3.60 Q 3.02,3.32 3.02,2.76 Q 3.02,2.39 2.85,2.15 Q 2.68,1.91 2.36,1.82 Z M 1.05,3.44 L 1.05,2.07 L 1.70,2.07 Q 2.08,2.07 2.28,2.24 Q 2.47,2.42 2.47,2.76 Q 2.47,3.10 2.28,3.27 Q 2.08,3.44 1.70,3.44 L 1.05,3.44 Z M 4.21,3.87 L 4.74,3.87 L 4.74,2.29 L 6.64,2.29 L 6.64,3.87 L 7.17,3.87 L 7.17,0.00 L 6.64,0.00 L 6.64,1.85 L 4.74,1.85 L 4.74,0.00 L 4.21,0.00 L 4.21,3.87 Z M 7.68,3.87 L 8.24,3.87 L 9.32,2.28 L 10.38,3.87 L 10.95,3.87 L 9.58,1.85 L 9.58,0.00 L 9.05,0.00 L 9.05,1.85 L 7.68,3.87 Z M 10.92,3.87 L 14.20,3.87 L 14.20,3.43 L 12.82,3.43 L 12.82,0.00 L 12.30,0.00 L 12.30,3.43 L 10.92,3.43 L 10.92,3.87 Z M 14.70,3.87 L 15.23,3.87 L 15.23,2.29 L 17.13,2.29 L 17.13,3.87 L 17.66,3.87 L 17.66,0.00 L 17.13,0.00 L 17.13,1.85 L 15.23,1.85 L 15.23,0.00 L 14.70,0.00 L 14.70,3.87 Z M 18.70,3.87 L 19.48,3.87 L 20.47,1.24 L 21.46,3.87 L 22.25,3.87 L 22.25,0.00 L 21.73,0.00 L 21.73,3.40 L 20.74,0.74 L 20.21,0.74 L 19.21,3.40 L 19.21,0.00 L 18.70,0.00 L 18.70,3.87 Z" fill="#ffffff"/></g>
<g transform="translate(176.40,194.88) scale(1,-1)"><path d="M 0.73,2.39 L 0.73,0.30 L 1.17,0.30 Q 1.72,0.30 1.98,0.55 Q 2.24,0.80 2.24,1.35 Q 2.24,1.89 1.98,2.14 Q 1.72,2.39 1.17,2.39 L 0.73,2.39 Z M 0.36,2.69 L 1.11,2.69 Q 1.89,2.69 2.26,2.37 Q 2.62,2.04 2.62,1.35 Q 2.62,0.65 2.26,0.33 Q 1.89,0.00 1.11,0.00 L 0.36,0.00 L 0.36,2.69 Z M 3.20,2.69 L 3.57,2.69 L 3.57,0.00 L 3.20,0.00 L 3.20,2.69 Z M 4.99,0.00 L 3.96,2.69 L 4.34,2.69 L 5.19,0.43 L 6.05,2.69 L 6.42,2.69 L 5.40,0.00 L 4.99,0.00 Z M 8.40,2.82 L 8.40,-0.87 L 8.10,-0.87 L 8.10,2.82 L 8.40,2.82 Z M 10.17,2.69 L 10.54,2.69 L 11.10,0.42 L 11.67,2.69 L 12.08,2.69 L 12.64,0.42 L 13.20,2.69 L 13.57,2.69 L 12.90,0.00 L 12.44,0.00 L 11.87,2.34 L 11.30,0.00 L 10.84,0.00 L 10.17,2.69 Z M 14.75,2.33 L 14.26,0.99 L 15.25,0.99 L 14.75,2.33 Z M 14.55,2.69 L 14.96,2.69 L 15.99,0.00 L 15.61,0.00 L 15.36,0.69 L 14.15,0.69 L 13.90,0.00 L 13.52,0.00 L 14.55,2.69 Z M 16.84,0.00 L 15.81,2.69 L 16.19,2.69 L 17.04,0.43 L 17.90,2.69 L 18.28,2.69 L 17.25,0.00 L 16.84,0.00 Z M 18.67,2.69 L 20.37,2.69 L 20.37,2.38 L 19.03,2.38 L 19.03,1.59 L 20.31,1.59 L 20.31,1.28 L 19.03,1.28 L 19.03,0.31 L 20.40,0.31 L 20.40,0.00 L 18.67,0.00 L 18.67,2.69 Z M 21.00,2.69 L 22.55,2.69 L 22.55,2.38 L 21.36,2.38 L 21.36,1.59 L 22.43,1.59 L 22.43,1.28 L 21.36,1.28 L 21.36,0.00 L 21.00,0.00 L 21.00,2.69 Z M 24.22,2.44 Q 23.82,2.44 23.59,2.15 Q 23.35,1.85 23.35,1.34 Q 23.35,0.83 23.59,0.54 Q 23.82,0.24 24.22,0.24 Q 24.61,0.24 24.84,0.54 Q 25.08,0.83 25.08,1.34 Q 25.08,1.85 24.84,2.15 Q 24.61,2.44 24.22,2.44 Z M 24.22,2.74 Q 24.78,2.74 25.12,2.36 Q 25.46,1.98 25.46,1.34 Q 25.46,0.71 25.12,0.33 Q 24.78,-0.05 24.22,-0.05 Q 23.65,-0.05 23.31,0.33 Q 22.97,0.70 22.97,1.34 Q 22.97,1.98 23.31,2.36 Q 23.65,2.74 24.22,2.74 Z M 27.31,1.26 Q 27.42,1.22 27.53,1.09 Q 27.64,0.96 27.76,0.74 L 28.13,0.00 L 27.73,0.00 L 27.39,0.69 Q 27.26,0.96 27.13,1.05 Q 27.01,1.14 26.79,1.14 L 26.39,1.14 L 26.39,0.00 L 26.03,0.00 L 26.03,2.69 L 26.85,2.69 Q 27.31,2.69 27.54,2.50 Q 27.77,2.31 27.77,1.92 Q 27.77,1.66 27.65,1.49 Q 27.53,1.33 27.31,1.26 Z M 26.39,2.39 L 26.39,1.44 L 26.85,1.44 Q 27.11,1.44 27.25,1.56 Q 27.38,1.68 27.38,1.92 Q 27.38,2.15 27.25,2.27 Q 27.11,2.39 26.85,2.39 L 26.39,2.39 Z M 28.59,2.69 L 29.14,2.69 L 29.82,0.86 L 30.51,2.69 L 31.06,2.69 L 31.06,0.00 L 30.70,0.00 L 30.70,2.36 L 30.01,0.52 L 29.64,0.52 L 28.95,2.36 L 28.95,0.00 L 28.59,0.00 L 28.59,2.69 Z" fill="#ddbbbb"/></g>
<g transform="translate(226.26,124.02) scale(1,-1)"><path d="M 0.39,2.91 L 0.98,2.91 L 1.72,0.93 L 2.46,2.91 L 3.05,2.91 L 3.05,0.00 L 2.67,0.00 L 2.67,2.55 L 1.92,0.56 L 1.52,0.56 L 0.77,2.55 L 0.77,0.00 L 0.39,0.00 L 0.39,2.91 Z M 3.79,2.91 L 4.18,2.91 L 4.18,1.14 Q 4.18,0.67 4.35,0.47 Q 4.52,0.26 4.90,0.26 Q 5.28,0.26 5.45,0.47 Q 5.62,0.67 5.62,1.14 L 5.62,2.91 L 6.01,2.91 L 6.01,1.09 Q 6.01,0.52 5.73,0.23 Q 5.45,-0.06 4.90,-0.06 Q 4.35,-0.06 4.07,0.23 Q 3.79,0.52 3.79,1.09 L 3.79,2.91 Z M 6.35,2.91 L 8.80,2.91 L 8.80,2.57 L 7.77,2.57 L 7.77,0.00 L 7.38,0.00 L 7.38,2.57 L 6.35,2.57 L 6.35,2.91 Z M 9.18,2.91 L 11.02,2.91 L 11.02,2.57 L 9.58,2.57 L 9.58,1.71 L 10.96,1.71 L 10.96,1.38 L 9.58,1.38 L 9.58,0.33 L 11.06,0.33 L 11.06,0.00 L 9.18,0.00 L 9.18,2.91 Z" fill="#ffffff"/></g>
<g transform="translate(253.22,124.02) scale(1,-1)"><path d="M 0.39,2.91 L 0.78,2.91 L 0.78,0.33 L 2.20,0.33 L 2.20,0.00 L 0.39,0.00 L 0.39,2.91 Z M 2.61,2.91 L 4.45,2.91 L 4.45,2.57 L 3.01,2.57 L 3.01,1.71 L 4.39,1.71 L 4.39,1.38 L 3.01,1.38 L 3.01,0.33 L 4.48,0.33 L 4.48,0.00 L 2.61,0.00 L 2.61,2.91 Z M 5.13,2.91 L 5.66,2.91 L 6.95,0.48 L 6.95,2.91 L 7.33,2.91 L 7.33,0.00 L 6.80,0.00 L 5.51,2.43 L 5.51,0.00 L 5.13,0.00 L 5.13,2.91 Z" fill="#ffffff"/></g>
<g transform="translate(276.30,124.02) scale(1,-1)"><path d="M 2.13,2.81 L 2.13,2.43 Q 1.91,2.53 1.71,2.59 Q 1.51,2.64 1.33,2.64 Q 1.01,2.64 0.83,2.52 Q 0.66,2.39 0.66,2.16 Q 0.66,1.97 0.77,1.87 Q 0.89,1.77 1.21,1.71 L 1.45,1.66 Q 1.89,1.58 2.10,1.37 Q 2.31,1.16 2.31,0.80 Q 2.31,0.38 2.02,0.16 Q 1.74,-0.06 1.20,-0.06 Q 0.99,-0.06 0.76,-0.01 Q 0.52,0.04 0.27,0.13 L 0.27,0.53 Q 0.51,0.40 0.74,0.33 Q 0.97,0.26 1.20,0.26 Q 1.53,0.26 1.71,0.39 Q 1.90,0.53 1.90,0.77 Q 1.90,0.99 1.77,1.11 Q 1.63,1.23 1.34,1.29 L 1.10,1.34 Q 0.66,1.42 0.46,1.61 Q 0.26,1.80 0.26,2.13 Q 0.26,2.52 0.53,2.74 Q 0.81,2.96 1.28,2.96 Q 1.49,2.96 1.70,2.92 Q 1.91,2.88 2.13,2.81 Z M 2.92,2.91 L 3.31,2.91 L 3.31,1.71 L 4.74,1.71 L 4.74,2.91 L 5.14,2.91 L 5.14,0.00 L 4.74,0.00 L 4.74,1.38 L 3.31,1.38 L 3.31,0.00 L 2.92,0.00 L 2.92,2.91 Z M 5.92,2.91 L 6.31,2.91 L 6.31,0.00 L 5.92,0.00 L 5.92,2.91 Z M 7.09,2.91 L 8.76,2.91 L 8.76,2.57 L 7.49,2.57 L 7.49,1.72 L 8.64,1.72 L 8.64,1.39 L 7.49,1.39 L 7.49,0.00 L 7.09,0.00 L 7.09,2.91 Z M 8.91,2.91 L 11.37,2.91 L 11.37,2.57 L 10.34,2.57 L 10.34,0.00 L 9.95,0.00 L 9.95,2.57 L 8.91,2.57 L 8.91,2.91 Z" fill="#ffffff"/></g>
<g transform="translate(225.53,168.31) scale(1,-1)"><path d="M 2.13,2.81 L 2.13,2.43 Q 1.91,2.53 1.71,2.59 Q 1.51,2.64 1.33,2.64 Q 1.01,2.64 0.83,2.52 Q 0.66,2.39 0.66,2.16 Q 0.66,1.97 0.77,1.87 Q 0.89,1.77 1.21,1.71 L 1.45,1.66 Q 1.89,1.58 2.10,1.37 Q 2.31,1.16 2.31,0.80 Q 2.31,0.38 2.02,0.16 Q 1.74,-0.06 1.20,-0.06 Q 0.99,-0.06 0.76,-0.01 Q 0.52,0.04 0.27,0.13 L 0.27,0.53 Q 0.51,0.40 0.74,0.33 Q 0.97,0.26 1.20,0.26 Q 1.53,0.26 1.71,0.39 Q 1.90,0.53 1.90,0.77 Q 1.90,0.99 1.77,1.11 Q 1.63,1.23 1.34,1.29 L 1.10,1.34 Q 0.66,1.42 0.46,1.61 Q 0.26,1.80 0.26,2.13 Q 0.26,2.52 0.53,2.74 Q 0.81,2.96 1.28,2.96 Q 1.49,2.96 1.70,2.92 Q 1.91,2.88 2.13,2.81 Z M 5.10,2.68 L 5.10,2.27 Q 4.90,2.45 4.67,2.54 Q 4.45,2.64 4.20,2.64 Q 3.70,2.64 3.43,2.33 Q 3.17,2.03 3.17,1.45 Q 3.17,0.88 3.43,0.57 Q 3.70,0.27 4.20,0.27 Q 4.45,0.27 4.67,0.36 Q 4.90,0.45 5.10,0.63 L 5.10,0.22 Q 4.89,0.08 4.66,0.01 Q 4.43,-0.06 4.17,-0.06 Q 3.51,-0.06 3.13,0.35 Q 2.75,0.75 2.75,1.45 Q 2.75,2.15 3.13,2.55 Q 3.51,2.96 4.17,2.96 Q 4.43,2.96 4.66,2.89 Q 4.90,2.82 5.10,2.68 Z M 6.68,2.52 L 6.14,1.07 L 7.21,1.07 L 6.68,2.52 Z M 6.45,2.91 L 6.90,2.91 L 8.01,0.00 L 7.60,0.00 L 7.33,0.75 L 6.02,0.75 L 5.76,0.00 L 5.34,0.00 L 6.45,2.91 Z M 8.43,2.91 L 8.82,2.91 L 8.82,0.33 L 10.24,0.33 L 10.24,0.00 L 8.43,0.00 L 8.43,2.91 Z M 10.65,2.91 L 12.49,2.91 L 12.49,2.57 L 11.05,2.57 L 11.05,1.71 L 12.43,1.71 L 12.43,1.38 L 11.05,1.38 L 11.05,0.33 L 12.52,0.33 L 12.52,0.00 L 10.65,0.00 L 10.65,2.91 Z" fill="#ffffff"/></g>
<g transform="translate(251.86,168.31) scale(1,-1)"><path d="M 2.13,2.81 L 2.13,2.43 Q 1.91,2.53 1.71,2.59 Q 1.51,2.64 1.33,2.64 Q 1.01,2.64 0.83,2.52 Q 0.66,2.39 0.66,2.16 Q 0.66,1.97 0.77,1.87 Q 0.89,1.77 1.21,1.71 L 1.45,1.66 Q 1.89,1.58 2.10,1.37 Q 2.31,1.16 2.31,0.80 Q 2.31,0.38 2.02,0.16 Q 1.74,-0.06 1.20,-0.06 Q 0.99,-0.06 0.76,-0.01 Q 0.52,0.04 0.27,0.13 L 0.27,0.53 Q 0.51,0.40 0.74,0.33 Q 0.97,0.26 1.20,0.26 Q 1.53,0.26 1.71,0.39 Q 1.90,0.53 1.90,0.77 Q 1.90,0.99 1.77,1.11 Q 1.63,1.23 1.34,1.29 L 1.10,1.34 Q 0.66,1.42 0.46,1.61 Q 0.26,1.80 0.26,2.13 Q 0.26,2.52 0.53,2.74 Q 0.81,2.96 1.28,2.96 Q 1.49,2.96 1.70,2.92 Q 1.91,2.88 2.13,2.81 Z M 3.97,2.52 L 3.43,1.07 L 4.50,1.07 L 3.97,2.52 Z M 3.75,2.91 L 4.19,2.91 L 5.30,0.00 L 4.89,0.00 L 4.63,0.75 L 3.32,0.75 L 3.05,0.00 L 2.64,0.00 L 3.75,2.91 Z M 6.22,0.00 L 5.11,2.91 L 5.52,2.91 L 6.44,0.46 L 7.36,2.91 L 7.77,2.91 L 6.66,0.00 L 6.22,0.00 Z M 8.20,2.91 L 10.03,2.91 L 10.03,2.57 L 8.59,2.57 L 8.59,1.71 L 9.97,1.71 L 9.97,1.38 L 8.59,1.38 L 8.59,0.33 L 10.07,0.33 L 10.07,0.00 L 8.20,0.00 L 8.20,2.91 Z" fill="#ffffff"/></g>
<g transform="translate(276.85,168.31) scale(1,-1)"><path d="M 1.77,1.36 Q 1.90,1.32 2.02,1.18 Q 2.14,1.04 2.26,0.79 L 2.66,0.00 L 2.23,0.00 L 1.86,0.75 Q 1.72,1.04 1.58,1.13 Q 1.45,1.23 1.21,1.23 L 0.78,1.23 L 0.78,0.00 L 0.39,0.00 L 0.39,2.91 L 1.28,2.91 Q 1.78,2.91 2.02,2.70 Q 2.27,2.49 2.27,2.07 Q 2.27,1.79 2.14,1.61 Q 2.01,1.43 1.77,1.36 Z M 0.78,2.58 L 0.78,1.55 L 1.28,1.55 Q 1.56,1.55 1.71,1.68 Q 1.85,1.81 1.85,2.07 Q 1.85,2.32 1.71,2.45 Q 1.56,2.58 1.28,2.58 L 0.78,2.58 Z M 3.16,2.91 L 5.00,2.91 L 5.00,2.57 L 3.55,2.57 L 3.55,1.71 L 4.94,1.71 L 4.94,1.38 L 3.55,1.38 L 3.55,0.33 L 5.03,0.33 L 5.03,0.00 L 3.16,0.00 L 3.16,2.91 Z M 7.86,2.68 L 7.86,2.27 Q 7.66,2.45 7.43,2.54 Q 7.21,2.64 6.95,2.64 Q 6.46,2.64 6.19,2.33 Q 5.93,2.03 5.93,1.45 Q 5.93,0.88 6.19,0.57 Q 6.46,0.27 6.95,0.27 Q 7.21,0.27 7.43,0.36 Q 7.66,0.45 7.86,0.63 L 7.86,0.22 Q 7.65,0.08 7.42,0.01 Q 7.19,-0.06 6.93,-0.06 Q 6.27,-0.06 5.89,0.35 Q 5.51,0.75 5.51,1.45 Q 5.51,2.15 5.89,2.55 Q 6.27,2.96 6.93,2.96 Q 7.19,2.96 7.42,2.89 Q 7.65,2.82 7.86,2.68 Z M 8.46,2.91 L 8.86,2.91 L 8.86,0.33 L 10.27,0.33 L 10.27,0.00 L 8.46,0.00 L 8.46,2.91 Z" fill="#ffffff"/></g>
<g transform="translate(19.22,320.37) scale(1,-1)"><path d="M 0.66,0.44 L 1.52,0.44 L 1.52,3.40 L 0.58,3.21 L 0.58,3.69 L 1.51,3.87 L 2.03,3.87 L 2.03,0.44 L 2.89,0.44 L 2.89,0.00 L 0.66,0.00 L 0.66,0.44 Z" fill="#ffffff"/></g>
<g transform="translate(56.18,320.37) scale(1,-1)"><path d="M 1.02,0.44 L 2.85,0.44 L 2.85,0.00 L 0.39,0.00 L 0.39,0.44 Q 0.69,0.75 1.20,1.27 Q 1.72,1.79 1.85,1.94 Q 2.10,2.22 2.20,2.42 Q 2.30,2.62 2.30,2.81 Q 2.30,3.11 2.09,3.31 Q 1.87,3.50 1.52,3.50 Q 1.27,3.50 1.00,3.42 Q 0.73,3.33 0.42,3.16 L 0.42,3.69 Q 0.73,3.82 1.01,3.88 Q 1.28,3.94 1.51,3.94 Q 2.11,3.94 2.47,3.64 Q 2.83,3.34 2.83,2.84 Q 2.83,2.60 2.74,2.39 Q 2.65,2.17 2.41,1.88 Q 2.35,1.81 2.00,1.45 Q 1.65,1.09 1.02,0.44 Z" fill="#ffffff"/></g>
<g transform="translate(93.10,320.37) scale(1,-1)"><path d="M 2.16,2.09 Q 2.53,2.01 2.74,1.75 Q 2.96,1.50 2.96,1.13 Q 2.96,0.55 2.56,0.24 Q 2.17,-0.08 1.44,-0.08 Q 1.20,-0.08 0.94,-0.03 Q 0.68,0.02 0.41,0.12 L 0.41,0.62 Q 0.62,0.50 0.88,0.43 Q 1.14,0.37 1.43,0.37 Q 1.92,0.37 2.18,0.56 Q 2.43,0.75 2.43,1.13 Q 2.43,1.47 2.19,1.66 Q 1.95,1.86 1.53,1.86 L 1.07,1.86 L 1.07,2.29 L 1.55,2.29 Q 1.93,2.29 2.14,2.44 Q 2.34,2.60 2.34,2.89 Q 2.34,3.18 2.13,3.34 Q 1.92,3.50 1.53,3.50 Q 1.31,3.50 1.06,3.46 Q 0.82,3.41 0.52,3.31 L 0.52,3.78 Q 0.82,3.86 1.08,3.90 Q 1.34,3.94 1.57,3.94 Q 2.17,3.94 2.52,3.67 Q 2.87,3.40 2.87,2.94 Q 2.87,2.62 2.68,2.40 Q 2.50,2.17 2.16,2.09 Z" fill="#ffffff"/></g>
<g transform="translate(129.97,320.37) scale(1,-1)"><path d="M 2.01,3.42 L 0.69,1.35 L 2.01,1.35 L 2.01,3.42 Z M 1.87,3.87 L 2.53,3.87 L 2.53,1.35 L 3.08,1.35 L 3.08,0.91 L 2.53,0.91 L 2.53,0.00 L 2.01,0.00 L 2.01,0.91 L 0.26,0.91 L 0.26,1.42 L 1.87,3.87 Z" fill="#ffffff"/></g>
<g transform="translate(167.03,320.37) scale(1,-1)"><path d="M 0.57,3.87 L 2.63,3.87 L 2.63,3.43 L 1.05,3.43 L 1.05,2.48 Q 1.17,2.52 1.28,2.54 Q 1.40,2.56 1.51,2.56 Q 2.16,2.56 2.54,2.21 Q 2.92,1.85 2.92,1.24 Q 2.92,0.62 2.53,0.27 Q 2.14,-0.08 1.43,-0.08 Q 1.19,-0.08 0.93,-0.03 Q 0.68,0.01 0.41,0.09 L 0.41,0.62 Q 0.64,0.49 0.89,0.43 Q 1.14,0.37 1.42,0.37 Q 1.87,0.37 2.13,0.60 Q 2.39,0.84 2.39,1.24 Q 2.39,1.65 2.13,1.88 Q 1.87,2.12 1.42,2.12 Q 1.21,2.12 1.00,2.07 Q 0.79,2.03 0.57,1.93 L 0.57,3.87 Z" fill="#ffffff"/></g>
<g transform="translate(203.90,320.37) scale(1,-1)"><path d="M 1.75,2.15 Q 1.40,2.15 1.20,1.90 Q 0.99,1.66 0.99,1.24 Q 0.99,0.83 1.20,0.58 Q 1.40,0.34 1.75,0.34 Q 2.11,0.34 2.31,0.58 Q 2.52,0.83 2.52,1.24 Q 2.52,1.66 2.31,1.90 Q 2.11,2.15 1.75,2.15 Z M 2.80,3.79 L 2.80,3.31 Q 2.60,3.40 2.40,3.45 Q 2.20,3.50 2.00,3.50 Q 1.48,3.50 1.21,3.15 Q 0.93,2.80 0.89,2.09 Q 1.05,2.32 1.28,2.44 Q 1.51,2.56 1.79,2.56 Q 2.37,2.56 2.71,2.21 Q 3.05,1.85 3.05,1.24 Q 3.05,0.65 2.69,0.28 Q 2.34,-0.08 1.75,-0.08 Q 1.08,-0.08 0.73,0.44 Q 0.37,0.96 0.37,1.93 Q 0.37,2.85 0.81,3.40 Q 1.24,3.94 1.98,3.94 Q 2.17,3.94 2.38,3.91 Q 2.58,3.87 2.80,3.79 Z" fill="#ffffff"/></g>
<g transform="translate(240.93,320.37) scale(1,-1)"><path d="M 0.44,3.87 L 2.93,3.87 L 2.93,3.65 L 1.52,0.00 L 0.97,0.00 L 2.30,3.43 L 0.44,3.43 L 0.44,3.87 Z" fill="#ffffff"/></g>
<g transform="translate(277.82,320.37) scale(1,-1)"><path d="M 1.69,1.84 Q 1.32,1.84 1.10,1.64 Q 0.89,1.44 0.89,1.09 Q 0.89,0.74 1.10,0.54 Q 1.32,0.34 1.69,0.34 Q 2.06,0.34 2.28,0.54 Q 2.49,0.74 2.49,1.09 Q 2.49,1.44 2.28,1.64 Q 2.07,1.84 1.69,1.84 Z M 1.17,2.06 Q 0.83,2.15 0.64,2.38 Q 0.45,2.61 0.45,2.94 Q 0.45,3.40 0.78,3.67 Q 1.11,3.94 1.69,3.94 Q 2.27,3.94 2.60,3.67 Q 2.93,3.40 2.93,2.94 Q 2.93,2.61 2.74,2.38 Q 2.55,2.15 2.22,2.06 Q 2.60,1.97 2.81,1.72 Q 3.02,1.46 3.02,1.09 Q 3.02,0.53 2.67,0.23 Q 2.33,-0.08 1.69,-0.08 Q 1.05,-0.08 0.70,0.23 Q 0.36,0.53 0.36,1.09 Q 0.36,1.46 0.57,1.72 Q 0.79,1.97 1.17,2.06 Z M 0.97,2.89 Q 0.97,2.59 1.16,2.42 Q 1.35,2.25 1.69,2.25 Q 2.03,2.25 2.22,2.42 Q 2.41,2.59 2.41,2.89 Q 2.41,3.19 2.22,3.36 Q 2.03,3.53 1.69,3.53 Q 1.35,3.53 1.16,3.36 Q 0.97,3.19 0.97,2.89 Z" fill="#ffffff"/></g>
<g transform="translate(16.41,364.67) scale(1,-1)"><path d="M 2.85,2.98 L 2.85,2.52 Q 2.63,2.73 2.38,2.83 Q 2.13,2.93 1.85,2.93 Q 1.30,2.93 1.00,2.59 Q 0.71,2.25 0.71,1.61 Q 0.71,0.97 1.00,0.63 Q 1.30,0.30 1.85,0.30 Q 2.13,0.30 2.38,0.40 Q 2.63,0.50 2.85,0.71 L 2.85,0.25 Q 2.62,0.09 2.37,0.01 Q 2.11,-0.06 1.83,-0.06 Q 1.09,-0.06 0.67,0.39 Q 0.25,0.83 0.25,1.61 Q 0.25,2.39 0.67,2.84 Q 1.09,3.29 1.83,3.29 Q 2.11,3.29 2.37,3.21 Q 2.63,3.13 2.85,2.98 Z M 3.53,3.23 L 3.96,3.23 L 3.96,0.37 L 5.54,0.37 L 5.54,0.00 L 3.53,0.00 L 3.53,3.23 Z M 7.53,1.51 Q 7.67,1.47 7.80,1.31 Q 7.93,1.16 8.07,0.88 L 8.51,0.00 L 8.04,0.00 L 7.63,0.83 Q 7.47,1.15 7.32,1.26 Q 7.17,1.36 6.91,1.36 L 6.43,1.36 L 6.43,0.00 L 5.99,0.00 L 5.99,3.23 L 6.98,3.23 Q 7.53,3.23 7.81,3.00 Q 8.08,2.77 8.08,2.30 Q 8.08,1.99 7.94,1.79 Q 7.80,1.59 7.53,1.51 Z M 6.43,2.87 L 6.43,1.72 L 6.98,1.72 Q 7.30,1.72 7.46,1.87 Q 7.62,2.02 7.62,2.30 Q 7.62,2.58 7.46,2.73 Q 7.30,2.87 6.98,2.87 L 6.43,2.87 Z" fill="#ffffff"/></g>
<g transform="translate(51.49,364.67) scale(1,-1)"><path d="M 2.37,3.12 L 2.37,2.70 Q 2.12,2.82 1.90,2.87 Q 1.68,2.93 1.47,2.93 Q 1.12,2.93 0.92,2.79 Q 0.73,2.66 0.73,2.40 Q 0.73,2.19 0.86,2.08 Q 0.99,1.97 1.35,1.90 L 1.61,1.85 Q 2.10,1.75 2.33,1.52 Q 2.56,1.28 2.56,0.89 Q 2.56,0.42 2.25,0.18 Q 1.94,-0.06 1.33,-0.06 Q 1.10,-0.06 0.84,-0.01 Q 0.58,0.04 0.31,0.14 L 0.31,0.59 Q 0.57,0.44 0.83,0.37 Q 1.08,0.29 1.33,0.29 Q 1.70,0.29 1.91,0.44 Q 2.11,0.59 2.11,0.86 Q 2.11,1.10 1.96,1.23 Q 1.82,1.36 1.48,1.43 L 1.22,1.48 Q 0.73,1.58 0.51,1.79 Q 0.29,2.00 0.29,2.37 Q 0.29,2.79 0.59,3.04 Q 0.90,3.29 1.42,3.29 Q 1.65,3.29 1.89,3.25 Q 2.12,3.20 2.37,3.12 Z M 3.25,3.23 L 3.90,3.23 L 4.72,1.03 L 5.55,3.23 L 6.20,3.23 L 6.20,0.00 L 5.77,0.00 L 5.77,2.84 L 4.94,0.62 L 4.50,0.62 L 3.67,2.84 L 3.67,0.00 L 3.25,0.00 L 3.25,3.23 Z M 6.62,3.23 L 9.35,3.23 L 9.35,2.86 L 8.21,2.86 L 8.21,0.00 L 7.77,0.00 L 7.77,2.86 L 6.62,2.86 L 6.62,3.23 Z M 9.77,3.23 L 10.21,3.23 L 10.21,1.91 L 11.80,1.91 L 11.80,3.23 L 12.23,3.23 L 12.23,0.00 L 11.80,0.00 L 11.80,1.54 L 10.21,1.54 L 10.21,0.00 L 9.77,0.00 L 9.77,3.23 Z" fill="#ffffff"/></g>
<g transform="translate(89.81,364.67) scale(1,-1)"><path d="M 1.97,1.51 Q 2.11,1.47 2.24,1.31 Q 2.37,1.16 2.51,0.88 L 2.95,0.00 L 2.48,0.00 L 2.07,0.83 Q 1.91,1.15 1.76,1.26 Q 1.61,1.36 1.35,1.36 L 0.87,1.36 L 0.87,0.00 L 0.43,0.00 L 0.43,3.23 L 1.42,3.23 Q 1.97,3.23 2.25,3.00 Q 2.52,2.77 2.52,2.30 Q 2.52,1.99 2.38,1.79 Q 2.24,1.59 1.97,1.51 Z M 0.87,2.87 L 0.87,1.72 L 1.42,1.72 Q 1.74,1.72 1.90,1.87 Q 2.06,2.02 2.06,2.30 Q 2.06,2.58 1.90,2.73 Q 1.74,2.87 1.42,2.87 L 0.87,2.87 Z M 3.51,3.23 L 4.10,3.23 L 5.53,0.53 L 5.53,3.23 L 5.96,3.23 L 5.96,0.00 L 5.37,0.00 L 3.94,2.70 L 3.94,0.00 L 3.51,0.00 L 3.51,3.23 Z M 7.26,2.87 L 7.26,0.36 L 7.79,0.36 Q 8.46,0.36 8.77,0.66 Q 9.08,0.96 9.08,1.62 Q 9.08,2.27 8.77,2.57 Q 8.46,2.87 7.79,2.87 L 7.26,2.87 Z M 6.83,3.23 L 7.72,3.23 Q 8.66,3.23 9.10,2.84 Q 9.54,2.45 9.54,1.62 Q 9.54,0.78 9.10,0.39 Q 8.66,0.00 7.72,0.00 L 6.83,0.00 L 6.83,3.23 Z" fill="#ffffff"/></g>
<g transform="translate(127.29,364.67) scale(1,-1)"><path d="M 0.43,3.23 L 2.29,3.23 L 2.29,2.86 L 0.87,2.86 L 0.87,1.91 L 2.15,1.91 L 2.15,1.54 L 0.87,1.54 L 0.87,0.00 L 0.43,0.00 L 0.43,3.23 Z M 4.51,1.51 Q 4.65,1.47 4.79,1.31 Q 4.92,1.16 5.05,0.88 L 5.50,0.00 L 5.03,0.00 L 4.62,0.83 Q 4.45,1.15 4.30,1.26 Q 4.15,1.36 3.90,1.36 L 3.42,1.36 L 3.42,0.00 L 2.98,0.00 L 2.98,3.23 L 3.97,3.23 Q 4.52,3.23 4.79,3.00 Q 5.07,2.77 5.07,2.30 Q 5.07,1.99 4.93,1.79 Q 4.78,1.59 4.51,1.51 Z M 3.42,2.87 L 3.42,1.72 L 3.97,1.72 Q 4.28,1.72 4.45,1.87 Q 4.61,2.02 4.61,2.30 Q 4.61,2.58 4.45,2.73 Q 4.28,2.87 3.97,2.87 L 3.42,2.87 Z M 5.87,3.23 L 8.41,3.23 L 8.41,2.90 L 6.37,0.37 L 8.46,0.37 L 8.46,0.00 L 5.82,0.00 L 5.82,0.33 L 7.87,2.86 L 5.87,2.86 L 5.87,3.23 Z" fill="#ffffff"/></g>
<g transform="translate(163.45,364.67) scale(1,-1)"><path d="M 0.43,3.23 L 2.29,3.23 L 2.29,2.86 L 0.87,2.86 L 0.87,1.91 L 2.15,1.91 L 2.15,1.54 L 0.87,1.54 L 0.87,0.00 L 0.43,0.00 L 0.43,3.23 Z M 2.70,3.23 L 3.14,3.23 L 3.81,0.50 L 4.49,3.23 L 4.98,3.23 L 5.66,0.50 L 6.34,3.23 L 6.78,3.23 L 5.97,0.00 L 5.42,0.00 L 4.74,2.80 L 4.05,0.00 L 3.50,0.00 L 2.70,3.23 Z M 7.80,2.87 L 7.80,0.36 L 8.33,0.36 Q 8.99,0.36 9.30,0.66 Q 9.61,0.96 9.61,1.62 Q 9.61,2.27 9.30,2.57 Q 8.99,2.87 8.33,2.87 L 7.80,2.87 Z M 7.36,3.23 L 8.26,3.23 Q 9.20,3.23 9.64,2.84 Q 10.08,2.45 10.08,1.62 Q 10.08,0.78 9.63,0.39 Q 9.19,0.00 8.26,0.00 L 7.36,0.00 L 7.36,3.23 Z" fill="#ffffff"/></g>
<g transform="translate(200.99,364.67) scale(1,-1)"><path d="M 1.97,1.51 Q 2.11,1.47 2.24,1.31 Q 2.37,1.16 2.51,0.88 L 2.95,0.00 L 2.48,0.00 L 2.07,0.83 Q 1.91,1.15 1.76,1.26 Q 1.61,1.36 1.35,1.36 L 0.87,1.36 L 0.87,0.00 L 0.43,0.00 L 0.43,3.23 L 1.42,3.23 Q 1.97,3.23 2.25,3.00 Q 2.52,2.77 2.52,2.30 Q 2.52,1.99 2.38,1.79 Q 2.24,1.59 1.97,1.51 Z M 0.87,2.87 L 0.87,1.72 L 1.42,1.72 Q 1.74,1.72 1.90,1.87 Q 2.06,2.02 2.06,2.30 Q 2.06,2.58 1.90,2.73 Q 1.74,2.87 1.42,2.87 L 0.87,2.87 Z M 3.51,3.23 L 5.55,3.23 L 5.55,2.86 L 3.95,2.86 L 3.95,1.91 L 5.49,1.91 L 5.49,1.54 L 3.95,1.54 L 3.95,0.37 L 5.59,0.37 L 5.59,0.00 L 3.51,0.00 L 3.51,3.23 Z M 7.14,0.00 L 5.91,3.23 L 6.37,3.23 L 7.39,0.51 L 8.42,3.23 L 8.87,3.23 L 7.64,0.00 L 7.14,0.00 Z" fill="#ffffff"/></g>
<g transform="translate(236.43,364.67) scale(1,-1)"><path d="M 0.87,2.87 L 0.87,1.66 L 1.42,1.66 Q 1.73,1.66 1.89,1.81 Q 2.06,1.97 2.06,2.26 Q 2.06,2.55 1.89,2.71 Q 1.73,2.87 1.42,2.87 L 0.87,2.87 Z M 0.43,3.23 L 1.42,3.23 Q 1.96,3.23 2.24,2.98 Q 2.52,2.74 2.52,2.26 Q 2.52,1.79 2.24,1.54 Q 1.96,1.30 1.42,1.30 L 0.87,1.30 L 0.87,0.00 L 0.43,0.00 L 0.43,3.23 Z M 3.11,3.23 L 5.15,3.23 L 5.15,2.86 L 3.54,2.86 L 3.54,1.91 L 5.08,1.91 L 5.08,1.54 L 3.54,1.54 L 3.54,0.37 L 5.19,0.37 L 5.19,0.00 L 3.11,0.00 L 3.11,3.23 Z M 5.90,3.23 L 6.49,3.23 L 7.92,0.53 L 7.92,3.23 L 8.35,3.23 L 8.35,0.00 L 7.76,0.00 L 6.33,2.70 L 6.33,0.00 L 5.90,0.00 L 5.90,3.23 Z M 9.65,2.87 L 9.65,0.36 L 10.18,0.36 Q 10.85,0.36 11.16,0.66 Q 11.47,0.96 11.47,1.62 Q 11.47,2.27 11.16,2.57 Q 10.85,2.87 10.18,2.87 L 9.65,2.87 Z M 9.22,3.23 L 10.11,3.23 Q 11.05,3.23 11.49,2.84 Q 11.93,2.45 11.93,1.62 Q 11.93,0.78 11.49,0.39 Q 11.05,0.00 10.11,0.00 L 9.22,0.00 L 9.22,3.23 Z" fill="#ffffff"/></g>
<g transform="translate(273.37,364.67) scale(1,-1)"><path d="M 1.97,1.51 Q 2.11,1.47 2.24,1.31 Q 2.37,1.16 2.51,0.88 L 2.95,0.00 L 2.48,0.00 L 2.07,0.83 Q 1.91,1.15 1.76,1.26 Q 1.61,1.36 1.35,1.36 L 0.87,1.36 L 0.87,0.00 L 0.43,0.00 L 0.43,3.23 L 1.42,3.23 Q 1.97,3.23 2.25,3.00 Q 2.52,2.77 2.52,2.30 Q 2.52,1.99 2.38,1.79 Q 2.24,1.59 1.97,1.51 Z M 0.87,2.87 L 0.87,1.72 L 1.42,1.72 Q 1.74,1.72 1.90,1.87 Q 2.06,2.02 2.06,2.30 Q 2.06,2.58 1.90,2.73 Q 1.74,2.87 1.42,2.87 L 0.87,2.87 Z M 5.45,3.12 L 5.45,2.70 Q 5.20,2.82 4.98,2.87 Q 4.76,2.93 4.55,2.93 Q 4.20,2.93 4.00,2.79 Q 3.81,2.66 3.81,2.40 Q 3.81,2.19 3.94,2.08 Q 4.07,1.97 4.42,1.90 L 4.69,1.85 Q 5.18,1.75 5.41,1.52 Q 5.64,1.28 5.64,0.89 Q 5.64,0.42 5.33,0.18 Q 5.01,-0.06 4.41,-0.06 Q 4.18,-0.06 3.92,-0.01 Q 3.66,0.04 3.38,0.14 L 3.38,0.59 Q 3.65,0.44 3.90,0.37 Q 4.16,0.29 4.41,0.29 Q 4.78,0.29 4.98,0.44 Q 5.19,0.59 5.19,0.86 Q 5.19,1.10 5.04,1.23 Q 4.89,1.36 4.56,1.43 L 4.29,1.48 Q 3.81,1.58 3.59,1.79 Q 3.37,2.00 3.37,2.37 Q 3.37,2.79 3.67,3.04 Q 3.97,3.29 4.50,3.29 Q 4.73,3.29 4.97,3.25 Q 5.20,3.20 5.45,3.12 Z M 6.32,3.23 L 8.37,3.23 L 8.37,2.86 L 6.76,2.86 L 6.76,1.91 L 8.30,1.91 L 8.30,1.54 L 6.76,1.54 L 6.76,0.37 L 8.40,0.37 L 8.40,0.00 L 6.32,0.00 L 6.32,3.23 Z M 10.43,2.93 Q 9.96,2.93 9.68,2.58 Q 9.40,2.22 9.40,1.61 Q 9.40,1.00 9.68,0.65 Q 9.96,0.29 10.43,0.29 Q 10.91,0.29 11.19,0.65 Q 11.46,1.00 11.46,1.61 Q 11.46,2.22 11.19,2.58 Q 10.91,2.93 10.43,2.93 Z M 11.04,0.06 L 11.62,-0.57 L 11.09,-0.57 L 10.61,-0.05 Q 10.54,-0.06 10.50,-0.06 Q 10.47,-0.06 10.43,-0.06 Q 9.75,-0.06 9.34,0.39 Q 8.94,0.85 8.94,1.61 Q 8.94,2.38 9.34,2.83 Q 9.75,3.29 10.43,3.29 Q 11.11,3.29 11.52,2.83 Q 11.92,2.38 11.92,1.61 Q 11.92,1.05 11.70,0.65 Q 11.47,0.25 11.04,0.06 Z" fill="#ffffff"/></g>
</svg>