<?xml version="1.0" encoding="UTF-8" standalone="no"?>
<svg
   width="300"
   height="380"
   viewBox="0 0 300 380"
   version="1.1"
   id="svg186"
   xmlns="http://www.w3.org/2000/svg">
  
  <path id="panel-border-dark" style="fill:#b8b5ae" d="M 0,0 H 300 V 380 H 0 Z" />
  <path id="panel-face-light" style="fill:#e2dfd8" d="m 3,2 h 294 c 0.554,0 1,0.446 1,1 v 374 c 0,0.554 -0.446,1 -1,1 H 3 c -0.554,0 -1,-0.446 -1,-1 V 3 C 2,2.446 2.446,2 3,2 Z" />
  
  <path id="outputs-band" style="fill:#dedad3" d="m 2,35 h 296 v 80 H 2 Z" />
  <path id="controls-band" style="fill:#e5e2db" d="m 2,115 h 296 v 90 H 2 Z" />
  <path id="sliders-band" style="fill:#dedad3" d="M 2,205 H 298 V 305 H 2 Z" />
  <path id="step-buttons-band" style="fill:#e5e2db" d="m 2,305 h 296 v 73 H 2 Z" />
  
  <path id="line-div-1" style="stroke:#c8c5be;stroke-width:0.75" d="M 4,35 H 296" />
  <path id="line-div-2" style="stroke:#c8c5be;stroke-width:0.75" d="M 4,115 H 296" />
  <path id="line-div-3" style="stroke:#c8c5be;stroke-width:0.75" d="M 4,205 H 296" />
  <path id="line-div-4" style="stroke:#c8c5be;stroke-width:0.75" d="M 4,305 H 296" />

  <text x="150" y="18" font-family="sans-serif" font-weight="bold" font-size="12px" fill="#111111" text-anchor="middle" letter-spacing="3">SOUNDSCAPE</text>
  <text x="150" y="28" font-family="sans-serif" font-weight="bold" font-size="6.5px" fill="#777777" text-anchor="middle" letter-spacing="1.2">8 CHANNEL CV SEQUENCER</text>

  <g font-family="sans-serif" font-weight="bold" font-size="8px" fill="#555555" text-anchor="middle">
    <text x="20.7" y="48">1</text>
    <text x="57.6" y="48">2</text>
    <text x="94.6" y="48">3</text>
    <text x="131.5" y="48">4</text>
    <text x="168.5" y="48">5</text>
    <text x="205.4" y="48">6</text>
    <text x="242.4" y="48">7</text>
    <text x="279.3" y="48">8</text>
  </g>

  <text x="150" y="110" font-family="sans-serif" font-size="6px" fill="#999999" text-anchor="middle" letter-spacing="1">CV OUTPUTS</text>

  <g font-family="sans-serif" font-weight="bold" font-size="6.5px" fill="#444444" text-anchor="middle" letter-spacing="0.5">
    <text x="57.6" y="132">OFFSET</text>
    <text x="131.5" y="132">ATTEN</text>
    <text x="205.4" y="132">DIVIDE</text>
    
    <text x="57.6" y="172">MUTE</text>
    <text x="131.5" y="172">LENGTH</text>
    <text x="205.4" y="172">SHIFT</text>
    
    <text x="94.6" y="200">SCALE</text>
    <text x="168.5" y="200">SAVE</text>
    <text x="242.4" y="200">RECALL</text>
  </g>

  <text x="150" y="215" font-family="sans-serif" font-size="6px" fill="#999999" text-anchor="middle" letter-spacing="1">VALUE ATTENUATORS</text>

  <text x="150" y="315" font-family="sans-serif" font-size="6px" fill="#999999" text-anchor="middle" letter-spacing="1">STEP SELECT / GATE STATUS</text>

</svg>
